<svg width="40" height="40" viewBox="0 0 40 40" fill="none" xmlns="http://www.w3.org/2000/svg">
<path fill-rule="evenodd" clip-rule="evenodd" d="M10.8037 5H29.1963C29.9475 5 30.5537 5 31.0475 5.03375C31.5544 5.06812 32.0031 5.14125 32.4281 5.31687C33.4491 5.73979 34.2602 6.55093 34.6831 7.57187C34.8588 7.99687 34.9319 8.44562 34.9662 8.95312C35 9.44625 35 10.0525 35 10.8037V29.1963C35 29.9475 35 30.5537 34.9662 31.0475C34.9319 31.5544 34.8588 32.0031 34.6831 32.4281C34.4737 32.9337 34.1668 33.393 33.7799 33.7799C33.393 34.1668 32.9337 34.4737 32.4281 34.6831C32.0031 34.8588 31.5544 34.9319 31.0469 34.9662C30.5537 35 29.9475 35 29.1963 35H10.8037C10.0525 35 9.44625 35 8.9525 34.9662C8.44563 34.9319 7.99687 34.8588 7.57187 34.6831C6.55093 34.2602 5.73979 33.4491 5.31687 32.4281C5.14125 32.0031 5.06812 31.5544 5.03375 31.0469C5 30.5544 5 29.9481 5 29.1969V10.8037C5 10.0525 5 9.44625 5.03375 8.9525C5.06812 8.44563 5.14125 7.99687 5.31687 7.57187C5.73979 6.55093 6.55093 5.73979 7.57187 5.31687C7.99687 5.14125 8.44562 5.06812 8.95312 5.03375C9.44562 5 10.0525 5 10.8037 5ZM9.06625 6.69625C8.64375 6.725 8.3975 6.77937 8.21 6.85687C7.90665 6.98251 7.63102 7.16668 7.39885 7.39885C7.16668 7.63102 6.98251 7.90665 6.85687 8.21C6.77937 8.3975 6.72562 8.64375 6.69625 9.06625C6.66687 9.49625 6.66687 10.0456 6.66687 10.8331V29.1669C6.66687 29.9544 6.66687 30.5044 6.69625 30.9337C6.725 31.3562 6.77937 31.6025 6.85687 31.79C6.98251 32.0934 7.16668 32.369 7.39885 32.6012C7.63102 32.8333 7.90665 33.0175 8.21 33.1431C8.3975 33.2206 8.64375 33.2744 9.06625 33.3037C9.49625 33.3331 10.0456 33.3331 10.8331 33.3331H29.1669C29.9544 33.3331 30.5044 33.3331 30.9337 33.3037C31.3562 33.275 31.6025 33.2206 31.79 33.1431C32.0934 33.0175 32.369 32.8333 32.6012 32.6012C32.8333 32.369 33.0175 32.0934 33.1431 31.79C33.2206 31.6025 33.2744 31.3562 33.3037 30.9337C33.3331 30.5037 33.3331 29.9544 33.3331 29.1669V10.8331C33.3331 10.0456 33.3331 9.49562 33.3037 9.06625C33.275 8.64375 33.2206 8.3975 33.1431 8.21C33.0175 7.90665 32.8333 7.63102 32.6012 7.39885C32.369 7.16668 32.0934 6.98251 31.79 6.85687C31.6025 6.77937 31.3562 6.72562 30.9337 6.69625C30.5037 6.66687 29.9544 6.66687 29.1669 6.66687H10.8331C10.0456 6.66687 9.49562 6.66687 9.06625 6.69625Z" fill="black"/>
<path fill-rule="evenodd" clip-rule="evenodd" d="M14.0154 13.3835C14.3016 13.2072 14.6344 13.1215 14.9701 13.1377C15.3058 13.1538 15.6288 13.2711 15.8967 13.4742C16.1917 13.6985 16.3479 14.0317 16.4467 14.2698C16.5548 14.5285 16.6686 14.8692 16.8004 15.2642L19.7929 24.2429C19.9354 24.6692 20.0273 24.9448 20.1073 25.136L20.1286 25.186L20.1554 25.1385C20.2554 24.9573 20.3779 24.6942 20.5667 24.2854L23.1667 18.6517C23.3104 18.3404 23.4379 18.0642 23.5561 17.8529C23.6704 17.6467 23.8411 17.376 24.1211 17.1942C24.3842 17.0227 24.6905 16.9291 25.0045 16.9241C25.3185 16.9192 25.6276 17.003 25.8961 17.166C26.1811 17.3398 26.3604 17.6048 26.4817 17.8073C26.6067 18.0154 26.7417 18.2867 26.8954 18.5935L27.9004 20.6035C27.9369 20.6787 27.975 20.7531 28.0148 20.8267L28.0173 20.831H28.0223C28.0723 20.8335 28.1398 20.8342 28.2729 20.8342H30.0004C30.2214 20.8342 30.4333 20.9219 30.5895 21.0782C30.7458 21.2344 30.8336 21.4463 30.8336 21.6673C30.8336 21.8882 30.7458 22.1001 30.5895 22.2564C30.4333 22.4126 30.2214 22.5004 30.0004 22.5004H28.2204C28.0286 22.501 27.7892 22.5023 27.5598 22.4373C27.262 22.3528 26.9937 22.187 26.7848 21.9585C26.6248 21.7829 26.5186 21.5679 26.4329 21.396L26.4098 21.3492L25.4179 19.366C25.2974 19.1163 25.1684 18.8707 25.0311 18.6298L25.0117 18.6642C24.9286 18.8135 24.8279 19.0304 24.6673 19.3779L22.0667 25.0129C21.8954 25.3842 21.7473 25.7048 21.6136 25.946C21.4892 26.1704 21.2992 26.4798 20.9848 26.6692C20.6985 26.8413 20.3671 26.9235 20.0335 26.905C19.7 26.8865 19.3797 26.7682 19.1142 26.5654C18.8223 26.3423 18.6679 26.0142 18.5692 25.7779C18.4629 25.5229 18.3511 25.1879 18.2217 24.7998L15.2292 15.8217C15.0842 15.3873 14.9898 15.1067 14.9086 14.911C14.9015 14.8939 14.8942 14.8768 14.8867 14.8598L14.8598 14.9092C14.7598 15.0954 14.6392 15.3654 14.4536 15.7842L12.7586 19.5967L12.7361 19.6473C12.6548 19.831 12.5542 20.061 12.3936 20.2492C12.1842 20.4942 11.9086 20.6742 11.5992 20.7654C11.3617 20.8354 11.1104 20.8342 10.9098 20.8342H10.0004C9.77939 20.8342 9.5674 20.7463 9.4111 20.59C9.2548 20.4337 9.16699 20.2218 9.16699 20.0007C9.16699 19.7797 9.2548 19.5677 9.4111 19.4114C9.5674 19.2551 9.77939 19.1673 10.0004 19.1673H10.8548C10.9444 19.1682 11.034 19.1669 11.1236 19.1635L11.1254 19.1592C11.1498 19.1129 11.1792 19.0467 11.2354 18.9198L12.9429 15.0785C13.1117 14.6973 13.2579 14.3698 13.3898 14.1223C13.5117 13.8948 13.6998 13.5785 14.0154 13.3835Z" fill="black"/>
</svg>
