<svg width="40" height="40" viewBox="0 0 40 40" fill="none" xmlns="http://www.w3.org/2000/svg">
<path d="M4.99967 9.99967C4.08301 9.99967 3.33301 10.7497 3.33301 11.6663V33.333C3.33301 35.1663 4.83301 36.6663 6.66634 36.6663H28.333C29.2497 36.6663 29.9997 35.9163 29.9997 34.9997C29.9997 34.083 29.2497 33.333 28.333 33.333H8.33301C7.41634 33.333 6.66634 32.583 6.66634 31.6663V11.6663C6.66634 10.7497 5.91634 9.99967 4.99967 9.99967ZM33.333 3.33301H13.333C11.4997 3.33301 9.99967 4.83301 9.99967 6.66634V26.6663C9.99967 28.4997 11.4997 29.9997 13.333 29.9997H33.333C35.1663 29.9997 36.6663 28.4997 36.6663 26.6663V6.66634C36.6663 4.83301 35.1663 3.33301 33.333 3.33301ZM29.9997 18.333H24.9997V23.333C24.9997 24.2497 24.2497 24.9997 23.333 24.9997C22.4163 24.9997 21.6663 24.2497 21.6663 23.333V18.333H16.6663C15.7497 18.333 14.9997 17.583 14.9997 16.6663C14.9997 15.7497 15.7497 14.9997 16.6663 14.9997H21.6663V9.99967C21.6663 9.08301 22.4163 8.33301 23.333 8.33301C24.2497 8.33301 24.9997 9.08301 24.9997 9.99967V14.9997H29.9997C30.9163 14.9997 31.6663 15.7497 31.6663 16.6663C31.6663 17.583 30.9163 18.333 29.9997 18.333Z" fill="black"/>
</svg>
