<svg width="24" height="24" viewBox="0 0 24 24" fill="none" xmlns="http://www.w3.org/2000/svg">
<g clip-path="url(#clip0_163_167)">
<path d="M7 16L3 12M3 12L7 8M3 12H17M11 16V17C11 17.7956 11.3161 18.5587 11.8787 19.1213C12.4413 19.6839 13.2044 20 14 20H18C18.7956 20 19.5587 19.6839 20.1213 19.1213C20.6839 18.5587 21 17.7956 21 17V7C21 6.20435 20.6839 5.44129 20.1213 4.87868C19.5587 4.31607 18.7956 4 18 4H14C13.2044 4 12.4413 4.31607 11.8787 4.87868C11.3161 5.44129 11 6.20435 11 7V8" stroke="#05131A" stroke-width="2" stroke-linecap="round" stroke-linejoin="round"/>
<path d="M7 16L3 12M3 12L7 8M3 12H17M11 16V17C11 17.7956 11.3161 18.5587 11.8787 19.1213C12.4413 19.6839 13.2044 20 14 20H18C18.7956 20 19.5587 19.6839 20.1213 19.1213C20.6839 18.5587 21 17.7956 21 17V7C21 6.20435 20.6839 5.44129 20.1213 4.87868C19.5587 4.31607 18.7956 4 18 4H14C13.2044 4 12.4413 4.31607 11.8787 4.87868C11.3161 5.44129 11 6.20435 11 7V8" stroke="#05131A" stroke-width="2" stroke-linecap="round" stroke-linejoin="round"/>
</g>
<defs>
<clipPath id="clip0_163_167">
<rect width="24" height="24" fill="white" transform="matrix(-1 0 0 1 24 0)"/>
</clipPath>
</defs>
</svg>
