<svg width="70" height="70" viewBox="0 0 70 70" fill="none" xmlns="http://www.w3.org/2000/svg">
<path d="M59.3474 17.8806H10.6517C7.91258 17.8806 5.70605 15.674 5.70605 12.9349C5.70605 10.1958 7.91258 7.98926 10.6517 7.98926H59.3474C62.0865 7.98926 64.293 10.1958 64.293 12.9349C64.293 15.674 62.0865 17.8806 59.3474 17.8806ZM64.293 35.0001C64.293 32.261 62.0865 30.0545 59.3474 30.0545H10.6517C7.91258 30.0545 5.70605 32.261 5.70605 35.0001C5.70605 37.7393 7.91258 39.9458 10.6517 39.9458H59.3474C62.0865 39.9458 64.293 37.7393 64.293 35.0001ZM64.293 57.0653C64.293 54.3262 62.0865 52.1197 59.3474 52.1197H10.6517C7.91258 52.1197 5.70605 54.3262 5.70605 57.0653C5.70605 59.8045 7.91258 62.011 10.6517 62.011H59.3474C62.0865 62.011 64.293 59.8045 64.293 57.0653Z" fill="black"/>
</svg>
