<svg width="40" height="40" viewBox="0 0 40 40" fill="none" xmlns="http://www.w3.org/2000/svg">
<path d="M19.7278 26.4051C24.2578 26.4051 27.9322 22.7308 27.9322 18.2007V11.2044C27.9322 6.67435 24.2578 3 19.7278 3C15.1978 3 11.5234 6.67435 11.5234 11.2044V18.2007C11.5234 22.7308 15.1978 26.4051 19.7278 26.4051ZM13.9394 11.2044C13.9394 8.03336 16.5568 5.41601 19.7278 5.41601C22.8988 5.41601 25.5162 7.98302 25.5162 11.2044V17.3954C25.5162 20.5664 22.8988 23.1838 19.7278 23.1838C16.5568 23.1838 13.9394 20.5664 13.9394 17.3954V11.2044Z" fill="black"/>
<path d="M27.2274 34.9109H20.9357V29.8776C26.8248 29.2736 31.4554 24.2906 31.4554 18.2002C31.4554 17.5459 30.9018 16.9922 30.2474 16.9922C29.5931 16.9922 29.0394 17.5459 29.0394 18.2002C29.0394 23.3342 24.8617 27.5119 19.7277 27.5119C14.5937 27.5119 10.416 23.3342 10.416 18.2002C10.416 17.5459 9.86234 16.9922 9.20801 16.9922C8.55367 16.9922 8 17.5459 8 18.2002C8 24.2402 12.6307 29.2736 18.5197 29.8776V34.9109H11.775C11.1207 34.9109 10.567 35.4646 10.567 36.1189C10.567 36.7733 11.1207 37.3269 11.775 37.3269H27.2274C27.8818 37.3269 28.4354 36.7733 28.4354 36.1189C28.4354 35.4646 27.8818 34.9109 27.2274 34.9109Z" fill="black"/>
</svg>
