<svg width="24" height="24" viewBox="0 0 24 24" fill="none" xmlns="http://www.w3.org/2000/svg">
<path d="M6.28016 21.9998C8.00328 21.9998 9.40016 20.6029 9.40016 18.8798C9.40016 17.1567 8.00328 15.7598 6.28016 15.7598C4.55703 15.7598 3.16016 17.1567 3.16016 18.8798C3.16016 20.6029 4.55703 21.9998 6.28016 21.9998Z" stroke="white" stroke-width="1.5" stroke-linecap="round" stroke-linejoin="round"/>
<path d="M20.8404 7.96034V4.60034C20.8404 2.00034 19.2104 1.64034 17.5604 2.09034L11.3204 3.79034C10.1804 4.10034 9.40039 5.00034 9.40039 6.30034V8.47034V9.93034V18.8703" stroke="white" stroke-width="1.5" stroke-linecap="round" stroke-linejoin="round"/>
<path d="M20.8398 16.8V12" stroke="white" stroke-width="1.5" stroke-linecap="round" stroke-linejoin="round"/>
<path d="M17.7196 19.9197C19.4427 19.9197 20.8396 18.5229 20.8396 16.7997C20.8396 15.0766 19.4427 13.6797 17.7196 13.6797C15.9965 13.6797 14.5996 15.0766 14.5996 16.7997C14.5996 18.5229 15.9965 19.9197 17.7196 19.9197Z" stroke="white" stroke-width="1.5" stroke-linecap="round" stroke-linejoin="round"/>
<path d="M9.40039 9.51941L20.8404 6.39941" stroke="white" stroke-width="1.5" stroke-linecap="round" stroke-linejoin="round"/>
</svg>
