<svg width="35" height="24" viewBox="0 0 35 24" fill="none" xmlns="http://www.w3.org/2000/svg">
<path d="M15.2433 20.0002C15.3244 20.0003 15.4039 19.9781 15.4732 19.936L27.9983 12.3817C28.0641 12.3421 28.1185 12.2862 28.1563 12.2193C28.194 12.1524 28.2139 12.077 28.2139 12.0002C28.2139 11.9234 28.194 11.8479 28.1563 11.7811C28.1185 11.7142 28.0641 11.6582 27.9983 11.6186L15.4723 4.06433C15.4047 4.02385 15.3277 4.00201 15.2489 4.00101C15.1702 4.00002 15.0926 4.01991 15.0241 4.05867C14.9555 4.09743 14.8985 4.15366 14.8587 4.22164C14.819 4.28963 14.798 4.36693 14.7978 4.44568V19.5547C14.7978 19.6728 14.8448 19.7861 14.9283 19.8697C15.0118 19.9532 15.1252 20.0002 15.2433 20.0002ZM26.9055 12L15.6888 18.7657V5.23465L26.9055 12Z" fill="#4F46E5"/>
<path d="M5.84994 20C5.93112 20 6.01076 19.9778 6.08026 19.9358L15.4727 14.27C15.5241 14.2405 15.5692 14.201 15.6052 14.1538C15.6412 14.1067 15.6674 14.0528 15.6823 13.9953C15.6971 13.9379 15.7004 13.8781 15.6919 13.8194C15.6833 13.7606 15.6631 13.7042 15.6325 13.6534C15.6018 13.6026 15.5613 13.5585 15.5133 13.5235C15.4654 13.4886 15.4109 13.4636 15.3532 13.45C15.2954 13.4364 15.2355 13.4344 15.177 13.4443C15.1185 13.4541 15.0626 13.4756 15.0125 13.5073L6.29543 18.7655V5.23448L15.0133 10.4913C15.0634 10.5261 15.12 10.5502 15.1797 10.5622C15.2394 10.5741 15.301 10.5738 15.3605 10.561C15.4201 10.5483 15.4764 10.5235 15.526 10.4881C15.5756 10.4528 15.6174 10.4076 15.6489 10.3555C15.6803 10.3033 15.7007 10.2453 15.7089 10.1849C15.717 10.1246 15.7127 10.0632 15.6962 10.0046C15.6797 9.94596 15.6513 9.89135 15.6129 9.84412C15.5744 9.79688 15.5267 9.75804 15.4727 9.72998L6.08026 4.06416C6.01268 4.02334 5.93547 4.00122 5.85653 4.00005C5.77759 3.99888 5.69976 4.01871 5.631 4.05751C5.56225 4.0963 5.50504 4.15268 5.46523 4.22085C5.42542 4.28903 5.40444 4.36656 5.40444 4.4455V19.5545C5.40444 19.6727 5.45138 19.786 5.53492 19.8695C5.61847 19.9531 5.73178 20 5.84994 20Z" fill="#4F46E5"/>
</svg>
