<svg width="30" height="30" viewBox="0 0 30 30" fill="none" xmlns="http://www.w3.org/2000/svg">
<g clip-path="url(#clip0_411_167)">
<path d="M27.4395 12.4629H17.8828V2.56055C17.8828 1.14258 16.7344 -0.00585938 15.3164 -0.00585938C13.8984 -0.00585938 12.75 1.14258 12.75 2.56055V12.4629H2.55469C1.14844 12.4629 0 13.6113 0 15.0293C0 16.4473 1.14844 17.5957 2.56641 17.5957H12.7617V27.4395C12.7617 28.8574 13.9102 30.0059 15.3281 30.0059C16.7461 30.0059 17.8945 28.8574 17.8945 27.4395V17.5957H27.4512C28.8691 17.5957 30.0176 16.4473 30.0176 15.0293C30 13.6113 28.8574 12.4629 27.4395 12.4629Z" fill="#231F20"/>
</g>
<defs>
<clipPath id="clip0_411_167">
<rect width="30" height="30" fill="white"/>
</clipPath>
</defs>
</svg>
