<svg width="35" height="24" viewBox="0 0 35 24" fill="none" xmlns="http://www.w3.org/2000/svg">
<path d="M18.9706 20.0002C18.8895 20.0003 18.81 19.9781 18.7407 19.936L6.21555 12.3817C6.14979 12.3421 6.09538 12.2862 6.05761 12.2193C6.01985 12.1524 6 12.077 6 12.0002C6 11.9234 6.01985 11.8479 6.05761 11.7811C6.09538 11.7142 6.14979 11.6582 6.21555 11.6186L18.7416 4.06433C18.8091 4.02385 18.8862 4.00201 18.9649 4.00101C19.0437 4.00002 19.1213 4.01991 19.1898 4.05867C19.2584 4.09743 19.3154 4.15366 19.3552 4.22164C19.3949 4.28963 19.4159 4.36693 19.4161 4.44568V19.5547C19.4161 19.6728 19.3691 19.7861 19.2856 19.8697C19.202 19.9532 19.0887 20.0002 18.9706 20.0002ZM7.30836 12L18.5251 18.7657V5.23465L7.30836 12Z" fill="#4F46E5"/>
<path d="M28.3639 20C28.2827 20 28.2031 19.9778 28.1336 19.9358L18.7412 14.27C18.6897 14.2405 18.6447 14.201 18.6087 14.1538C18.5727 14.1067 18.5465 14.0528 18.5316 13.9953C18.5167 13.9379 18.5135 13.8781 18.522 13.8194C18.5306 13.7606 18.5508 13.7042 18.5814 13.6534C18.6121 13.6026 18.6526 13.5585 18.7005 13.5235C18.7485 13.4886 18.8029 13.4636 18.8607 13.45C18.9184 13.4364 18.9783 13.4344 19.0368 13.4443C19.0953 13.4541 19.1513 13.4756 19.2014 13.5073L27.9184 18.7655V5.23448L19.2005 10.4913C19.1505 10.5261 19.0939 10.5502 19.0342 10.5622C18.9744 10.5741 18.9129 10.5738 18.8534 10.561C18.7938 10.5483 18.7375 10.5235 18.6879 10.4881C18.6383 10.4528 18.5965 10.4076 18.565 10.3555C18.5336 10.3033 18.5131 10.2453 18.505 10.1849C18.4968 10.1246 18.5012 10.0632 18.5177 10.0046C18.5342 9.94596 18.5625 9.89135 18.601 9.84412C18.6394 9.79688 18.6872 9.75804 18.7412 9.72998L28.1336 4.06416C28.2012 4.02334 28.2784 4.00122 28.3573 4.00005C28.4363 3.99888 28.5141 4.01871 28.5829 4.05751C28.6516 4.0963 28.7088 4.15268 28.7486 4.22085C28.7884 4.28903 28.8094 4.36656 28.8094 4.4455V19.5545C28.8094 19.6727 28.7625 19.786 28.6789 19.8695C28.5954 19.9531 28.4821 20 28.3639 20Z" fill="#4F46E5"/>
</svg>
