<svg width="92" height="92" viewBox="0 0 92 92" fill="none" xmlns="http://www.w3.org/2000/svg">
<path d="M71.6999 43.7C64.3999 36.4 53.9999 32.4 41.9999 31.7V21C41.9999 19.4 40.7999 17.9 39.2999 17.3C37.7999 16.7 35.9999 17 34.7999 18.2L10.1999 43.2C8.69991 44.8 8.59991 47.3 10.1999 48.8L34.7999 73.8C35.8999 75 37.7999 75.3 39.2999 74.7C40.7999 74.1 41.9999 72.6 41.9999 71V60.2C49.9999 60 68.7999 60.8 75.6999 73C76.3999 74.3 77.6999 75 79.0999 75C79.3999 75 79.6999 75 80.0999 74.9C81.8999 74.4 83.1999 72.9 83.1999 71C83.0999 70.4 83.0999 55.1 71.6999 43.7ZM37.3999 52.4C35.3999 52.6 33.9999 54.3 33.9999 56.4V61.2L18.9999 46L33.9999 30.8V35.6C33.9999 37.8 35.5999 39.6 37.7999 39.6C59.2999 39.6 68.3999 49.9 72.2999 58.7C58.1999 50.3 38.3999 52.3 37.3999 52.4Z" fill="#f5982e"/>
</svg>
