<svg width="24" height="24" viewBox="0 0 24 24" fill="none" xmlns="http://www.w3.org/2000/svg">
<path d="M20.6844 2.05086L2.68443 8.05085C2.50157 8.11223 2.34034 8.22514 2.22012 8.37598C2.09991 8.52683 2.02584 8.7092 2.00683 8.90114C1.98781 9.09309 2.02466 9.28645 2.11294 9.45795C2.20122 9.62945 2.33717 9.77179 2.50443 9.86786L9.00043 13.5799V20.9999C9.00038 21.2145 9.06939 21.4234 9.19727 21.5958C9.32514 21.7682 9.50508 21.8949 9.7105 21.9571C9.91591 22.0194 10.1359 22.0138 10.3379 21.9414C10.54 21.869 10.7134 21.7334 10.8324 21.5549L14.3144 16.3319L20.5044 19.8679C20.6565 19.9547 20.8287 20.0001 21.0038 19.9995C21.1789 19.9989 21.3508 19.9524 21.5023 19.8645C21.6538 19.7766 21.7795 19.6505 21.8669 19.4987C21.9543 19.347 22.0004 19.175 22.0004 18.9999V2.99986C22.0002 2.84148 21.9625 2.68541 21.8903 2.54446C21.818 2.40352 21.7134 2.28172 21.5849 2.18909C21.4565 2.09645 21.3079 2.03562 21.1513 2.01159C20.9948 1.98756 20.8348 2.00102 20.6844 2.05086ZM11.0004 13.5149L14.6734 10.8909L13.1174 14.5209L11.0004 17.6969V13.5149ZM20.0004 17.2769L15.2704 14.5739L17.9194 8.39386C18.0046 8.19334 18.0219 7.97054 17.969 7.75925C17.916 7.54795 17.7955 7.35971 17.6259 7.22308C17.4562 7.08645 17.2466 7.0089 17.0289 7.00218C16.8112 6.99546 16.5972 7.05995 16.4194 7.18585L9.94043 11.8139L5.43943 9.24086L20.0004 4.38686V17.2769Z" fill="#000"/>
</svg>
