<svg width="40" height="40" viewBox="0 0 40 40" fill="none" xmlns="http://www.w3.org/2000/svg">
<path d="M37.4896 23.503C37.7938 23.4053 38 23.1222 38 22.8025V18.2122C38 17.8925 37.7935 17.6095 37.4892 17.5118L33.1593 16.1232C32.9675 15.5901 32.771 15.1153 32.5648 14.6857L34.6459 10.6255C34.7914 10.3417 34.7372 9.99619 34.512 9.77062L31.2678 6.51929C31.0422 6.29228 30.6971 6.23912 30.413 6.38352L26.352 8.45457C25.8955 8.22685 25.4084 8.02355 24.8966 7.84683L23.5105 3.51148C23.4128 3.20689 23.1298 3 22.8097 3H18.2197C17.9008 3 17.6181 3.20545 17.5197 3.50932L16.1185 7.84252C15.6796 7.99482 15.1746 8.18949 14.6624 8.44523L10.6262 6.36915C10.341 6.22332 9.99476 6.27792 9.76883 6.5042L6.5175 9.76344C6.29265 9.98901 6.23841 10.3331 6.38316 10.6169L8.44093 14.6512C8.20961 15.1218 8.00919 15.6088 7.84217 16.1059L3.52441 17.4974C3.22126 17.5951 3.01545 17.8767 3.01437 18.1956L3 22.786C2.99893 23.1057 3.20438 23.3887 3.50825 23.4879L7.84325 24.8959C8.00847 25.3614 8.20494 25.8305 8.44488 26.3333L6.37598 30.3828C6.23123 30.6665 6.2851 31.0106 6.50995 31.2362L9.74656 34.4875C9.97177 34.7138 10.3173 34.7713 10.6014 34.624L14.6602 32.5573C15.1383 32.7915 15.6131 32.9904 16.0977 33.1593L17.5057 37.4853C17.6041 37.7884 17.8864 37.9932 18.205 37.9932H22.795C23.1136 37.9932 23.3959 37.7884 23.4943 37.4853L24.9038 33.1564C25.4124 32.9761 25.8861 32.7807 26.3369 32.5645L30.3907 34.6319C30.6759 34.7763 31.0189 34.7217 31.2448 34.4976L34.4886 31.2606C34.7138 31.0358 34.7691 30.691 34.6247 30.4072L32.5598 26.3376C32.776 25.9016 32.9736 25.4253 33.1578 24.8966L37.4896 23.503ZM31.0767 26.6659L33.0713 30.5961L30.5836 33.0788L26.6753 31.0853C26.4634 30.9761 26.2137 30.9776 26.0032 31.0868C25.4203 31.3885 24.7935 31.6478 24.0877 31.8799C23.8654 31.9531 23.6908 32.1284 23.6186 32.3511L22.2609 36.5219H18.7391L17.3814 32.3511C17.3081 32.1255 17.13 31.9488 16.9037 31.8777C16.2589 31.6737 15.6361 31.4129 14.9996 31.0803C14.7892 30.9711 14.5377 30.969 14.3254 31.0774L10.4111 33.0702L7.92909 30.5767L9.9222 26.6753C10.0285 26.4669 10.0296 26.2205 9.92508 26.0115C9.57559 25.3125 9.32021 24.7005 9.12122 24.0841C9.04867 23.86 8.87303 23.684 8.64854 23.6107L4.47302 22.2544L4.48379 18.7344L8.65428 17.3904C8.88488 17.3156 9.06411 17.1325 9.13344 16.9004C9.33027 16.2424 9.59319 15.6031 9.9161 14.9982C10.0292 14.7863 10.0318 14.532 9.9222 14.3179L7.93627 10.4243L10.4308 7.9237L14.3301 9.92938C14.5496 10.0407 14.81 10.0371 15.0248 9.91789C15.5517 9.62408 16.1221 9.38558 16.9328 9.1205C17.1565 9.04794 17.3318 8.87194 17.4044 8.64781L18.7549 4.47122H22.2728L23.6096 8.65284C23.6829 8.88128 23.8625 9.05944 24.0909 9.13056C24.7809 9.34607 25.4217 9.61474 25.9953 9.92795C26.2087 10.0436 26.4659 10.0479 26.6821 9.93728L30.6044 7.93735L33.0925 10.4308L31.0853 14.3459C30.9765 14.5585 30.9776 14.8107 31.0882 15.0219C31.3691 15.56 31.6313 16.19 31.8896 16.9486C31.9646 17.1691 32.1395 17.3408 32.3612 17.4119L36.5288 18.7488V22.2666L32.3536 23.61C32.1281 23.6825 31.9517 23.8593 31.8788 24.0841C31.6406 24.8219 31.3817 25.4426 31.0871 25.9799C30.9708 26.1932 30.9668 26.4497 31.0767 26.6659Z" fill="black"/>
<path d="M21.1593 15.0481C18.1875 14.6518 15.4453 16.7495 15.0488 19.7222C14.8566 21.1647 15.2358 22.596 16.1169 23.7517C16.9992 24.9085 18.279 25.6518 19.7213 25.8438C19.9643 25.8762 20.2057 25.8918 20.4445 25.8918C23.1331 25.8918 25.4799 23.8963 25.8443 21.1602C26.2405 18.1876 24.139 15.4454 21.1593 15.0481ZM24.7115 21.0096C24.3982 23.3639 22.2319 25.0252 19.8719 24.711C18.7333 24.5592 17.7224 23.9727 17.026 23.0587C16.3295 22.1452 16.0296 21.014 16.1817 19.8728C16.469 17.716 18.3189 16.1429 20.4384 16.1429C20.6267 16.1429 20.817 16.1552 21.0084 16.1809C23.3633 16.495 25.0243 18.6608 24.7115 21.0096Z" fill="black"/>
</svg>
