<svg width="18" height="18" viewBox="0 0 18 18" fill="none" xmlns="http://www.w3.org/2000/svg">
<path d="M13.4971 10.5C13.0539 10.5029 12.617 10.604 12.2176 10.7959C11.8182 10.9878 11.4662 11.2658 11.1871 11.61L7.36206 9.84746C7.5419 9.29677 7.5419 8.70315 7.36206 8.15246L11.1871 6.38996C11.6383 6.93444 12.2673 7.30202 12.9632 7.42784C13.659 7.55366 14.377 7.42963 14.9903 7.07764C15.6036 6.72565 16.0728 6.16832 16.3152 5.50402C16.5576 4.83972 16.5575 4.11115 16.315 3.44689C16.0725 2.78264 15.6032 2.2254 14.9898 1.87351C14.3764 1.52163 13.6585 1.39773 12.9626 1.52368C12.2668 1.64963 11.6378 2.01733 11.1867 2.56188C10.7356 3.10644 10.4913 3.79285 10.4971 4.49996C10.4993 4.67864 10.5169 4.85679 10.5496 5.03246L6.58956 6.85496C6.16737 6.44215 5.63274 6.1631 5.05267 6.05278C4.47259 5.94247 3.87285 6.00579 3.3286 6.23481C2.78435 6.46384 2.31978 6.84838 1.99311 7.34026C1.66644 7.83214 1.49219 8.40949 1.49219 8.99996C1.49219 9.59044 1.66644 10.1678 1.99311 10.6597C2.31978 11.1515 2.78435 11.5361 3.3286 11.7651C3.87285 11.9941 4.47259 12.0575 5.05267 11.9471C5.63274 11.8368 6.16737 11.5578 6.58956 11.145L10.5496 12.9675C10.5169 13.1431 10.4993 13.3213 10.4971 13.5C10.4971 14.0933 10.673 14.6733 11.0027 15.1667C11.3323 15.66 11.8008 16.0445 12.349 16.2716C12.8972 16.4987 13.5004 16.5581 14.0823 16.4423C14.6643 16.3266 15.1988 16.0408 15.6184 15.6213C16.0379 15.2017 16.3237 14.6672 16.4394 14.0852C16.5552 13.5033 16.4958 12.9001 16.2687 12.3519C16.0416 11.8037 15.6571 11.3352 15.1638 11.0056C14.6704 10.6759 14.0904 10.5 13.4971 10.5ZM13.4971 2.99996C13.7937 2.99996 14.0837 3.08794 14.3304 3.25276C14.5771 3.41758 14.7693 3.65185 14.8829 3.92594C14.9964 4.20003 15.0261 4.50163 14.9682 4.7926C14.9104 5.08357 14.7675 5.35085 14.5577 5.56062C14.3479 5.7704 14.0807 5.91326 13.7897 5.97114C13.4987 6.02902 13.1971 5.99931 12.923 5.88578C12.6489 5.77225 12.4147 5.57999 12.2499 5.33332C12.085 5.08665 11.9971 4.79664 11.9971 4.49996C11.9971 4.10214 12.1551 3.72061 12.4364 3.4393C12.7177 3.158 13.0992 2.99996 13.4971 2.99996ZM4.49706 10.5C4.20039 10.5 3.91038 10.412 3.66371 10.2472C3.41703 10.0823 3.22477 9.84808 3.11124 9.57399C2.99771 9.2999 2.96801 8.9983 3.02588 8.70733C3.08376 8.41636 3.22662 8.14908 3.4364 7.9393C3.64618 7.72953 3.91345 7.58666 4.20443 7.52879C4.4954 7.47091 4.797 7.50061 5.07109 7.61414C5.34518 7.72768 5.57944 7.91993 5.74427 8.16661C5.90909 8.41328 5.99706 8.70329 5.99706 8.99996C5.99706 9.39779 5.83903 9.77932 5.55772 10.0606C5.27642 10.3419 4.89489 10.5 4.49706 10.5ZM13.4971 15C13.2004 15 12.9104 14.912 12.6637 14.7472C12.417 14.5823 12.2248 14.3481 12.1112 14.074C11.9977 13.7999 11.968 13.4983 12.0259 13.2073C12.0838 12.9164 12.2266 12.6491 12.4364 12.4393C12.6462 12.2295 12.9135 12.0867 13.2044 12.0288C13.4954 11.9709 13.797 12.0006 14.0711 12.1141C14.3452 12.2277 14.5794 12.4199 14.7443 12.6666C14.9091 12.9133 14.9971 13.2033 14.9971 13.5C14.9971 13.8978 14.839 14.2793 14.5577 14.5606C14.2764 14.8419 13.8949 15 13.4971 15Z" fill="white"/>
</svg>
