<svg width="24" height="24" viewBox="0 0 24 24" fill="none" xmlns="http://www.w3.org/2000/svg">
<path d="M19.5716 22.4337C18.7719 23.0034 13.6406 19.3926 12.6578 19.3846C11.675 19.3768 6.48592 22.9045 5.69553 22.3221C4.90515 21.7397 6.76331 15.7575 6.46719 14.8231C6.17107 13.8887 1.20281 10.0577 1.51403 9.12812C1.82531 8.19857 8.10505 8.11223 8.90477 7.5426C9.70449 6.97305 11.8231 1.07759 12.8059 1.08546C13.7886 1.09339 15.8115 7.02217 16.6019 7.60459C17.3923 8.18694 23.6699 8.37439 23.9661 9.3088C24.2622 10.2432 19.2327 13.9938 18.9214 14.9233C18.6102 15.8529 20.3713 21.8641 19.5716 22.4337Z" fill="url(#paint0_linear_405_698)"/>
<defs>
<linearGradient id="paint0_linear_405_698" x1="1.50003" y1="11.7901" x2="23.9787" y2="11.7901" gradientUnits="userSpaceOnUse">
<stop stop-color="#ffc422"/>
<stop offset="1" stop-color="#ffc422"/>
</linearGradient>
</defs>
</svg>
