<svg width="29" height="29" viewBox="0 0 29 29" fill="none" xmlns="http://www.w3.org/2000/svg">
<path d="M14.5 2C11.1859 2.00371 8.00866 3.32186 5.66526 5.66526C3.32186 8.00866 2.00371 11.1859 2 14.5C2.00555 17.8135 3.3243 20.9897 5.6673 23.3327C8.0103 25.6757 11.1865 26.9944 14.5 27C17.8152 27 20.9946 25.683 23.3388 23.3388C25.683 20.9946 27 17.8152 27 14.5C27 11.1848 25.683 8.00537 23.3388 5.66117C20.9946 3.31696 17.8152 2 14.5 2ZM22.103 21.713C21.401 20.297 20.3172 19.1054 18.974 18.2726C17.6307 17.4397 16.0815 16.9989 14.501 16.9997C12.9206 17.0005 11.3718 17.443 10.0294 18.2773C8.68705 19.1115 7.60453 20.3043 6.904 21.721C5.03491 19.7825 3.99344 17.1928 4 14.5C4 11.7152 5.10625 9.04451 7.07538 7.07538C9.04451 5.10625 11.7152 4 14.5 4C17.2848 4 19.9555 5.10625 21.9246 7.07538C23.8938 9.04451 25 11.7152 25 14.5C25.0063 17.189 23.9675 19.7753 22.103 21.713ZM14.5 7C13.61 7 12.74 7.26392 11.9999 7.75839C11.2599 8.25285 10.6831 8.95566 10.3425 9.77792C10.0019 10.6002 9.91283 11.505 10.0865 12.3779C10.2601 13.2508 10.6887 14.0526 11.318 14.682C11.9474 15.3113 12.7492 15.7399 13.6221 15.9135C14.495 16.0872 15.3998 15.9981 16.2221 15.6575C17.0443 15.3169 17.7471 14.7401 18.2416 14.0001C18.7361 13.26 19 12.39 19 11.5C19 10.9091 18.8836 10.3239 18.6575 9.77792C18.4313 9.23196 18.0998 8.73588 17.682 8.31802C17.2641 7.90016 16.768 7.56869 16.2221 7.34254C15.6761 7.1164 15.0909 7 14.5 7Z" fill="black"/>
</svg>
