<svg width="24" height="24" viewBox="0 0 24 24" fill="none" xmlns="http://www.w3.org/2000/svg">
<path d="M23.9088 11.582C21.9428 7.311 17.4998 3 11.9998 3C6.49975 3 2.05675 7.311 0.0907541 11.582C0.0309481 11.7132 0 11.8558 0 12C0 12.1442 0.0309481 12.2868 0.0907541 12.418C2.05675 16.689 6.49975 21 11.9998 21C17.4998 21 21.9428 16.689 23.9088 12.418C23.9686 12.2868 23.9995 12.1442 23.9995 12C23.9995 11.8558 23.9686 11.7132 23.9088 11.582ZM11.9998 19C7.58875 19 3.85375 15.448 2.10975 12C3.85375 8.552 7.58875 5 11.9998 5C16.4108 5 20.1458 8.552 21.8898 12C20.1458 15.448 16.4108 19 11.9998 19Z" fill="#585858"/>
<path d="M12 7C11.0111 7 10.0444 7.29324 9.22215 7.84265C8.39991 8.39206 7.75904 9.17295 7.3806 10.0866C7.00217 11.0002 6.90315 12.0055 7.09608 12.9755C7.289 13.9454 7.76521 14.8363 8.46447 15.5355C9.16373 16.2348 10.0546 16.711 11.0246 16.9039C11.9945 17.0969 12.9998 16.9978 13.9134 16.6194C14.827 16.241 15.6079 15.6001 16.1574 14.7779C16.7068 13.9556 17 12.9889 17 12C16.9984 10.6744 16.4711 9.40356 15.5338 8.46622C14.5964 7.52888 13.3256 7.00159 12 7ZM12 15C11.4067 15 10.8266 14.8241 10.3333 14.4944C9.83994 14.1648 9.45543 13.6962 9.22836 13.1481C9.0013 12.5999 8.94189 11.9967 9.05765 11.4147C9.1734 10.8328 9.45912 10.2982 9.87868 9.87868C10.2982 9.45912 10.8328 9.1734 11.4147 9.05764C11.9967 8.94189 12.5999 9.0013 13.1481 9.22836C13.6962 9.45542 14.1648 9.83994 14.4944 10.3333C14.8241 10.8266 15 11.4067 15 12C15 12.7956 14.6839 13.5587 14.1213 14.1213C13.5587 14.6839 12.7957 15 12 15Z" fill="#585858"/>
</svg>
