<svg width="130" height="34" fill="none" xmlns="http://www.w3.org/2000/svg"><path d="M28.178 33.495H7.082c-3.466 0-6.276-2.782-6.276-6.214V6.397c0-3.432 2.81-6.213 6.276-6.213h21.096c3.466 0 6.276 2.781 6.276 6.213v20.884c0 3.432-2.81 6.214-6.276 6.214Z" fill="#3C2B4A"/><path d="M23.692 17.145c.6.745.904 1.613.904 2.593 0 1.443-.485 2.574-1.457 3.376-.971.801-2.362 1.216-4.171 1.216h-7.905V7.5h7.714c1.734 0 3.067.377 4.01 1.122.943.745 1.419 1.81 1.419 3.187 0 1.018-.276 1.857-.82 2.536-.542.679-1.256 1.113-2.142 1.32 1.038.245 1.848.736 2.448 1.48Zm-8.524-2.762h2.695c1.429 0 2.143-.604 2.143-1.81 0-1.207-.733-1.81-2.19-1.81h-2.648v3.62Zm5.219 4.79c0-.604-.2-1.075-.6-1.415-.4-.34-.972-.509-1.705-.509h-2.905v3.781h2.934c1.514-.01 2.276-.622 2.276-1.857Z" fill="#fff"/><path d="m53.95 24.33-3.677-6.355h-.933v6.355h-4.114V7.5h7.019c1.343 0 2.485.226 3.41.688.932.462 1.628 1.094 2.094 1.895.467.802.696 1.716.696 2.754 0 1.225-.343 2.262-1.02 3.12-.685.858-1.666 1.443-2.97 1.764l4.037 6.619H53.95v-.01Zm-4.61-9.136h2.543c.819 0 1.419-.18 1.8-.538.38-.358.58-.886.58-1.584 0-.67-.2-1.188-.59-1.574-.39-.377-.99-.575-1.79-.575H49.34v4.27ZM77.054 21.267h-6.371l-1.057 3.073h-4.324L71.53 7.633h4.734l6.228 16.707h-4.371l-1.067-3.073Zm-1.057-3.102-2.114-6.186-2.143 6.186h4.257ZM105.188 24.33h-4.115l-6.876-10.334V24.33h-4.114V7.5h4.114l6.876 10.428V7.5h4.115v16.83ZM128.255 20.276c-.715 1.273-1.743 2.272-3.076 2.989-1.343.716-2.915 1.075-4.724 1.075h-6.419V7.51h6.419c1.828 0 3.409.349 4.733 1.046 1.333.698 2.352 1.679 3.067 2.952.714 1.272 1.066 2.724 1.066 4.384 0 1.64-.362 3.102-1.066 4.384Zm-4.429-.849c.886-.839 1.333-2.027 1.333-3.545 0-1.527-.447-2.706-1.333-3.545-.886-.839-2.133-1.263-3.743-1.263h-1.943v9.617h1.943c1.61 0 2.857-.415 3.743-1.264Z" fill="#3C2B4A"/></svg>