<svg width="92" height="38" fill="none" xmlns="http://www.w3.org/2000/svg"><path d="M.143 23.22V.477h13.53v22.732H.143v.011Zm11.89-5.291.349-2.512-1.258-.123-.381 1.934c-.786.39-1.752.578-2.908.578-1.572 0-2.819-.489-3.728-1.478-.921-.99-1.37-2.29-1.37-3.913 0-1.578.449-2.879 1.336-3.901.887-1.023 2.055-1.535 3.503-1.535.741 0 1.37.09 1.875.256.506.167.966.39 1.404.678l.37 1.912 1.28-.122-.37-2.512c-.539-.456-1.179-.823-1.92-1.112-.741-.278-1.662-.422-2.751-.422-1.291 0-2.403.31-3.335.945a6.473 6.473 0 0 0-2.178 2.5 7.498 7.498 0 0 0-.775 3.369c0 1.9.595 3.49 1.785 4.758 1.19 1.267 2.74 1.9 4.66 1.9 1.887 0 3.357-.4 4.413-1.2ZM18.266 23.22V.477h5.816v22.732h-5.816v.011Zm.618-4.29h4.592v-1.146h-1.583V5.09H18.86v1.145h1.606v11.55h-1.583v1.144ZM28.675 23.22V.477h10.218v22.732H28.675v.011Zm1.852-12.561-.325 2.067 1.179.145.348-1.545c.505-.245 1.078-.367 1.752-.367.808 0 1.358.2 1.639.6.28.4.415.923.415 1.568v.8a15.387 15.387 0 0 0-.786-.056c-.28-.01-.55-.022-.82-.022-1.01 0-1.976.178-2.874.534-.898.356-1.347 1.1-1.347 2.223 0 .956.303 1.612.92 1.968.618.366 1.224.544 1.82.544.73 0 1.358-.189 1.875-.567.516-.378.92-.8 1.212-1.29v.045c.023 1.212.573 1.812 1.65 1.812.416 0 .81-.1 1.18-.3l-.023-.923c-.18.078-.381.123-.606.123-.516 0-.775-.323-.775-.967v-4.258c0-2-1.078-3.001-3.233-3.001-.596 0-1.157.067-1.685.2a5.423 5.423 0 0 0-1.515.667Zm4.997 4.913c-.056.734-.36 1.323-.91 1.745-.55.434-1.133.645-1.762.645-.393 0-.775-.111-1.134-.322-.37-.211-.55-.612-.55-1.19 0-.7.28-1.145.82-1.356.55-.211 1.156-.311 1.84-.311.304 0 .596.011.876.044.281.023.562.045.809.056v.69h.011ZM43.496 23.22V.477h9.286v22.732h-9.286v.011Zm8.31-6.88c0-.712-.192-1.235-.574-1.58-.381-.344-.842-.577-1.403-.71a23.177 23.177 0 0 0-1.662-.334 4.963 4.963 0 0 1-1.403-.423c-.382-.189-.573-.522-.573-1 0-.456.18-.79.55-1.012.37-.222.831-.322 1.404-.322.662 0 1.28.145 1.852.445l.225 1.445 1.179-.145-.225-2.09c-.382-.233-.842-.422-1.392-.578a6.428 6.428 0 0 0-1.763-.244c-.83 0-1.594.2-2.302.589-.707.39-1.055 1.056-1.055 2.012 0 .7.19 1.212.572 1.534.382.334.854.556 1.427.69a32.72 32.72 0 0 0 1.695.344 4.595 4.595 0 0 1 1.415.444c.381.2.572.545.572 1.045 0 .512-.247.89-.74 1.134-.495.245-1.056.367-1.696.367a4.545 4.545 0 0 1-2.01-.445l.056-1.189-1.134-.122-.28 2.034c.392.256.909.467 1.538.634a7.362 7.362 0 0 0 1.897.255c1.09 0 1.999-.244 2.729-.744.73-.479 1.1-1.168 1.1-2.035ZM57.374 23.22V.477h9.286v22.732h-9.285v.011Zm8.31-6.88c0-.712-.191-1.235-.573-1.58-.382-.344-.842-.577-1.404-.71a23.188 23.188 0 0 0-1.662-.334 4.965 4.965 0 0 1-1.403-.423c-.382-.189-.573-.522-.573-1 0-.456.18-.79.55-1.012.371-.222.831-.322 1.404-.322.662 0 1.28.145 1.853.445l.224 1.445 1.18-.145-.225-2.09c-.382-.233-.842-.422-1.393-.578a6.428 6.428 0 0 0-1.762-.244c-.831 0-1.595.2-2.302.589-.708.39-1.056 1.056-1.056 2.012 0 .7.191 1.212.573 1.534.382.334.853.556 1.426.69.573.133 1.134.244 1.695.344a4.593 4.593 0 0 1 1.415.444c.382.2.573.545.573 1.045 0 .512-.247.89-.741 1.134-.494.245-1.056.367-1.696.367a4.545 4.545 0 0 1-2.01-.445l.056-1.189-1.133-.122-.281 2.034c.393.256.91.467 1.538.634a7.362 7.362 0 0 0 1.898.255c1.089 0 1.998-.244 2.728-.744.73-.479 1.1-1.168 1.1-2.035ZM71.252 23.22V.477h6.12v22.732h-6.12v.011Zm.899-4.29h4.592v-1.146H75.16V9.981h-3.043v1.145h1.628v6.658h-1.583v1.145h-.011Zm1.437-13.095v1.834h1.55V5.835h-1.55ZM81.964 23.22V.477h9.78v22.732h-9.78v.011Zm8.904-7.303-1.223-.267c-.27 1.512-1.09 2.268-2.437 2.268-.898 0-1.583-.3-2.055-.9-.471-.601-.707-1.446-.707-2.513 0-.967.213-1.79.629-2.479.415-.689 1.111-1.022 2.077-1.022.74 0 1.392.166 1.931.5l.348 1.511 1.18-.144-.349-2.157a4.213 4.213 0 0 0-1.448-.722 6.453 6.453 0 0 0-1.65-.2c-1.404 0-2.471.489-3.167 1.467-.708.978-1.056 2.09-1.056 3.324 0 1.434.37 2.557 1.123 3.346.741.8 1.74 1.2 2.987 1.2 1.246 0 2.167-.344 2.75-1.022.585-.69.944-1.412 1.067-2.19ZM5.993 35.637a2.67 2.67 0 0 1-1.134 1.09c-.505.255-1.1.388-1.796.388h-2.01v-6.27h2.01c.696 0 1.302.123 1.796.379.494.255.876.611 1.134 1.089.258.478.382 1.023.382 1.667 0 .634-.123 1.19-.382 1.657Zm-1.111.122c.438-.422.65-1.011.65-1.779 0-.767-.212-1.356-.65-1.778-.438-.422-1.067-.634-1.898-.634H1.85v4.825h1.134c.83 0 1.46-.212 1.898-.634ZM10.54 31.502v2.145h2.404v.623H10.54v2.19h2.672v.655H9.721v-6.27h3.492v.657h-2.672ZM20.31 36.315c-.146.256-.36.467-.651.623-.292.155-.652.244-1.09.244-.415 0-.797-.078-1.122-.222a2.075 2.075 0 0 1-.786-.623 1.837 1.837 0 0 1-.337-.9h.875c.023.178.08.356.18.522.101.167.258.312.45.423.19.111.426.166.707.166.359 0 .64-.088.83-.288.192-.2.293-.434.293-.734 0-.256-.068-.467-.203-.623a1.495 1.495 0 0 0-.494-.378 8.14 8.14 0 0 0-.808-.3 10.046 10.046 0 0 1-.966-.367 1.542 1.542 0 0 1-.617-.522c-.169-.233-.259-.534-.259-.911 0-.323.08-.612.236-.868.158-.244.382-.444.685-.578.292-.133.651-.2 1.044-.2.618 0 1.123.145 1.483.445.37.3.572.678.64 1.145h-.876a1.202 1.202 0 0 0-.382-.656c-.213-.189-.494-.289-.853-.289-.326 0-.595.089-.786.256-.202.166-.292.411-.292.711 0 .245.067.445.19.59.135.155.293.266.483.355.191.089.46.178.786.289.405.133.73.256.988.378.248.122.46.3.63.533.168.234.258.556.258.956-.023.29-.09.567-.236.823ZM24.688 30.846v6.27h-.82v-6.27h.82ZM32.975 31.324a2.61 2.61 0 0 1 1.01 1.478h-.864a1.873 1.873 0 0 0-.752-.911c-.348-.234-.764-.345-1.247-.345-.426 0-.82.1-1.156.3-.337.2-.606.478-.809.845-.19.367-.291.8-.291 1.3 0 .512.1.957.291 1.323.191.367.472.656.82.856.348.2.753.3 1.213.3.393 0 .74-.088 1.067-.244.325-.167.583-.411.797-.723.213-.31.325-.689.37-1.111h-2.492v-.6h3.177v.744c-.056.5-.213.945-.471 1.356a2.692 2.692 0 0 1-1.045.956 3.116 3.116 0 0 1-1.493.356c-.606 0-1.145-.133-1.617-.4a2.734 2.734 0 0 1-1.089-1.134c-.258-.478-.393-1.034-.393-1.656 0-.623.135-1.178.393-1.657a2.876 2.876 0 0 1 1.09-1.133c.46-.267.998-.412 1.605-.412.763-.022 1.38.156 1.886.512ZM42.395 37.115h-.82l-3.289-4.958v4.958h-.82v-6.27h.82l3.29 4.959v-4.958h.82v6.27ZM54.208 36.315c-.146.256-.36.467-.651.623-.293.155-.652.244-1.09.244-.415 0-.797-.078-1.123-.222a2.075 2.075 0 0 1-.785-.623 1.837 1.837 0 0 1-.337-.9h.875c.023.178.08.356.18.522.101.167.258.312.45.423.19.111.426.166.707.166.359 0 .64-.088.83-.288.191-.2.292-.434.292-.734 0-.256-.067-.467-.202-.623a1.497 1.497 0 0 0-.494-.378 8.137 8.137 0 0 0-.808-.3 10.06 10.06 0 0 1-.966-.367 1.54 1.54 0 0 1-.617-.522c-.169-.233-.259-.534-.259-.911 0-.323.079-.612.236-.868.157-.244.382-.444.685-.578.292-.133.651-.2 1.044-.2.618 0 1.123.145 1.483.445.37.3.572.678.64 1.145h-.876a1.201 1.201 0 0 0-.382-.656c-.213-.189-.494-.289-.853-.289-.326 0-.595.089-.786.256-.203.166-.292.411-.292.711 0 .245.067.445.19.59.135.155.293.266.483.355.191.089.46.178.786.289.405.133.73.256.989.378.246.122.46.3.628.533.169.234.258.556.258.956-.022.29-.09.567-.235.823ZM61.652 30.846v.656h-1.785v5.613h-.831v-5.613H57.25v-.656h4.401ZM65.47 30.846v3.757c0 .611.135 1.067.416 1.367.28.29.651.445 1.145.445.483 0 .854-.145 1.123-.445.27-.3.404-.745.404-1.356v-3.757h.82v3.757c0 .856-.213 1.5-.64 1.923-.427.434-1 .645-1.718.645-.707 0-1.28-.211-1.707-.645-.426-.433-.64-1.067-.64-1.923v-3.757h.797v-.011ZM77.832 35.637a2.67 2.67 0 0 1-1.134 1.09c-.505.255-1.1.388-1.796.388h-2.01v-6.27h2.01c.696 0 1.302.123 1.796.379.494.255.876.611 1.134 1.089.258.478.382 1.023.382 1.667 0 .634-.124 1.19-.382 1.657Zm-1.1.122c.438-.422.651-1.011.651-1.779 0-.767-.213-1.356-.651-1.778-.438-.422-1.067-.634-1.898-.634H73.7v4.825h1.134c.82 0 1.46-.212 1.898-.634ZM82.39 30.846v6.27h-.819v-6.27h.82ZM90.43 31.179a2.96 2.96 0 0 1 1.112 1.145c.27.489.405 1.045.405 1.656 0 .612-.135 1.167-.405 1.656-.27.49-.64.867-1.111 1.145-.472.278-1 .412-1.584.412a3.097 3.097 0 0 1-1.594-.412 2.989 2.989 0 0 1-1.123-1.145 3.384 3.384 0 0 1-.404-1.656c0-.611.135-1.167.404-1.656.27-.49.64-.867 1.123-1.145a3.125 3.125 0 0 1 1.594-.411c.584 0 1.112.133 1.584.41Zm-2.761.645c-.349.2-.618.478-.809.855-.19.367-.292.8-.292 1.301 0 .49.101.923.292 1.3.191.379.46.657.809.857.348.2.73.3 1.167.3.427 0 .82-.1 1.168-.3.348-.2.618-.49.808-.856.191-.367.292-.8.292-1.29 0-.5-.1-.934-.291-1.3a2.062 2.062 0 0 0-.809-.856c-.348-.2-.73-.3-1.168-.3a2.196 2.196 0 0 0-1.167.289Z" fill="#3C2B4A"/></svg>