<svg width="81" height="80" fill="none" xmlns="http://www.w3.org/2000/svg"><g style="mix-blend-mode:multiply"><path d="M40.564 79.125c21.915 0 39.68-17.588 39.68-39.284C80.245 18.145 62.48.557 40.565.557S.883 18.145.883 39.84c0 21.696 17.766 39.284 39.68 39.284Z" fill="#fff"/><path d="M40.564 79.68C18.376 79.68.32 61.805.32 39.84.321 17.875 18.376 0 40.564 0 62.75 0 80.806 17.875 80.806 39.84c0 21.965-18.055 39.84-40.242 39.84Zm0-78.568c-21.57 0-39.12 17.374-39.12 38.728 0 21.354 17.55 38.728 39.12 38.728 21.57 0 39.12-17.374 39.12-38.728 0-21.354-17.55-38.728-39.12-38.728Z" fill="#3C2B4A"/><path d="M46.223 4.546c.27.023.505.034.696.034l-.022.178c-.314.044-.584.278-.797.722l-2.673 5.291-.078-.01-.068-.012-1.695-5.902c-.112-.39-.303-.6-.573-.634l.023-.178c.247.045.572.078.977.122.527.045.92.078 1.178.078l-.022.178c-.236-.011-.404 0-.505.033-.101.034-.157.123-.169.234-.01.1.012.244.068.433l1.246 4.514 1.853-3.691c.157-.3.236-.545.258-.723.022-.189-.034-.333-.157-.433-.124-.1-.326-.156-.595-.189l.022-.178c.326.056.674.1 1.033.133ZM53.769 6.891a.321.321 0 0 0-.27.134 1.788 1.788 0 0 0-.224.444l-1.606 4.224c-.078.212-.123.378-.123.49 0 .11.033.2.112.266.078.067.224.145.426.234l-.067.167a32.625 32.625 0 0 0-1.078-.434 19.251 19.251 0 0 0-1.111-.39l.067-.166c.213.067.37.1.472.1a.336.336 0 0 0 .27-.133c.066-.09.145-.234.224-.445l1.605-4.224c.079-.211.124-.378.124-.49 0-.11-.034-.2-.113-.266a1.923 1.923 0 0 0-.426-.233l.067-.167c.236.1.595.245 1.09.433.46.178.83.3 1.1.378l-.068.167c-.202-.067-.359-.1-.471-.089ZM63.762 12.772a.436.436 0 0 0-.326.078c-.101.067-.224.2-.36.39l-3.255 4.368-.169-.123.438-7.025-2.886 3.869a2.149 2.149 0 0 0-.27.466.412.412 0 0 0 .035.345c.056.111.19.233.381.39l-.112.144a16.105 16.105 0 0 0-.741-.578 8.155 8.155 0 0 0-.707-.478l.112-.145c.18.122.325.19.438.2a.436.436 0 0 0 .325-.078c.101-.077.225-.2.36-.389l2.65-3.557c.134-.189.224-.333.258-.433.034-.1.022-.2-.034-.29-.056-.088-.168-.2-.348-.344l.112-.145c.146.134.37.312.674.523.225.167.415.3.595.4l-.36 5.892 2.336-3.135c.135-.189.236-.345.27-.467a.458.458 0 0 0-.034-.345c-.056-.11-.19-.244-.382-.389l.113-.144c.168.144.415.333.74.578.293.211.529.378.708.478l-.112.144c-.191-.11-.337-.189-.45-.2ZM67.523 17.786c.292-.21.595-.444.921-.733.28.422.775 1.122 1.482 2.112.707.978 1.213 1.667 1.516 2.067-.382.223-.707.423-1 .623-.246.178-.448.333-.594.456l-.124-.167c.36-.311.606-.567.752-.756a.874.874 0 0 0 .191-.6c-.011-.212-.146-.467-.36-.778l-.291-.4-4.256 3c-.202.145-.348.279-.415.379a.392.392 0 0 0-.045.355c.034.123.135.3.28.523l-.145.111a19.12 19.12 0 0 0-.764-1.1c-.36-.5-.629-.856-.808-1.079l.146-.11c.168.21.303.355.415.433.112.078.225.1.348.066.124-.033.292-.122.494-.266l4.256-3.002-.292-.4c-.225-.311-.427-.5-.618-.59a.817.817 0 0 0-.628-.021c-.225.078-.55.222-.966.455l-.124-.166c.169-.09.371-.223.63-.412ZM69.679 33.215l-.18.055a12.854 12.854 0 0 0-.292-.933c-.168-.49-.303-.856-.404-1.1l.18-.056c.078.21.168.366.235.444.079.078.18.1.292.056a1.23 1.23 0 0 0 .37-.234l1.247-1.011-.707-2.079-1.044-.044c-.337-.022-.596 0-.775.066-.18.067-.292.167-.337.312-.034.144-.011.355.067.611l-.18.056c-.09-.334-.201-.667-.314-1a7.008 7.008 0 0 0-.247-.634l.18-.056c.157.267.494.411.988.422l5.974.267.044.134-4.76 3.923c-.292.278-.405.534-.337.8Zm3.896-4.724-2.942-.123.663 1.957 2.28-1.834ZM70.499 41.718c.112-.044.168-.1.168-.178a.187.187 0 0 0-.034-.11c-.022-.034-.067-.1-.134-.19a2.62 2.62 0 0 1-.382-.656 2.017 2.017 0 0 1-.135-.756c-.011-.622.112-1.156.36-1.611.258-.456.617-.8 1.111-1.045.483-.245 1.067-.367 1.752-.378.707-.011 1.325.1 1.852.344.528.245.944.578 1.236 1.023.291.445.449.945.449 1.5 0 .245-.023.468-.068.657a2.03 2.03 0 0 1-.19.5c-.08.144-.18.311-.315.489-.056.078-.09.144-.09.189 0 .111.191.189.562.222v.211c-.393-.022-1.1-.022-2.111 0v-.21c.325-.056.595-.123.808-.19.213-.067.393-.167.55-.289a1.85 1.85 0 0 0 .517-.7c.123-.29.18-.578.18-.89a1.574 1.574 0 0 0-.416-1.044c-.27-.3-.651-.523-1.134-.69-.494-.155-1.056-.233-1.707-.222-.74.011-1.336.1-1.808.267-.471.167-.808.411-1.033.734-.224.322-.325.733-.314 1.233.011.367.112.678.303.945.079.111.146.178.225.212a.697.697 0 0 0 .292.044l.887-.011c.258 0 .438-.034.561-.078a.38.38 0 0 0 .236-.267c.045-.122.067-.322.067-.589h.18c-.011.3-.023.723-.011 1.29.011.422.022.744.045.945h-.18a.707.707 0 0 0-.079-.3c-.033-.056-.112-.1-.213-.123a2.093 2.093 0 0 0-.505-.022l-1.82.033v-.178c.102-.044.225-.066.338-.11ZM69.163 51.178c-.326-.1-.707-.2-1.145-.29.145-.388.359-1.044.662-1.978.36-1.111.618-1.956.775-2.523l.18.055a1.946 1.946 0 0 0-.08.478.337.337 0 0 0 .147.256c.09.067.247.133.46.2l4.346 1.356c.224.067.381.1.494.1a.321.321 0 0 0 .27-.133c.066-.09.134-.234.212-.434l.18.056c-.202.567-.472 1.4-.83 2.512-.27.845-.461 1.456-.551 1.823a9.185 9.185 0 0 0-1.022-.378 5.265 5.265 0 0 0-.55-.144l.067-.2c.393.078.697.11.899.11a.69.69 0 0 0 .505-.2c.135-.122.247-.344.348-.644l.225-.723c.067-.21.1-.366.09-.466a.343.343 0 0 0-.135-.256c-.09-.067-.236-.134-.46-.2l-2.067-.645-.18.578c-.09.29-.067.511.08.667.145.156.302.267.482.345.18.078.292.133.337.155l-.067.2a9.079 9.079 0 0 0-.82-.289l-.416-.122a17.816 17.816 0 0 0-1.257-.333l.067-.2c.045.01.191.033.438.088.247.045.46.023.629-.066.168-.09.28-.256.36-.49l.179-.577-2.111-.656c-.225-.067-.382-.1-.494-.1a.289.289 0 0 0-.258.133 1.538 1.538 0 0 0-.203.445l-.202.633c-.112.367-.157.656-.112.867.034.223.146.4.337.556.19.145.483.312.876.49l-.068.2c-.134-.1-.348-.167-.617-.256ZM65.963 64.817c.044-.1.033-.2-.012-.3-.045-.1-.157-.222-.325-.389l-3.302-3.123c-.168-.156-.303-.256-.404-.3a.361.361 0 0 0-.303 0c-.101.044-.224.144-.382.3l-.134-.123c.213-.189.482-.467.83-.811.36-.378.63-.667.798-.856l.134.122c-.145.167-.235.3-.28.39-.045.1-.034.2.011.3.045.1.157.222.326.388l3.3 3.124c.17.156.304.256.405.3a.361.361 0 0 0 .303 0c.101-.044.225-.144.382-.3l.135.122c-.191.167-.472.445-.831.823-.348.356-.607.645-.786.856l-.135-.123c.135-.166.225-.3.27-.4ZM56.61 71.599c.067-.1.078-.2.056-.323-.023-.122-.102-.278-.225-.489l-2.785-4.68.18-.111 6.355 3.146-2.459-4.135c-.123-.2-.224-.345-.325-.423a.466.466 0 0 0-.337-.1c-.124.011-.292.078-.506.19l-.1-.156c.202-.09.47-.245.819-.445.314-.189.55-.333.719-.456l.09.156c-.18.111-.304.222-.36.322-.067.1-.078.2-.056.323.023.122.101.277.225.489l2.268 3.813c.112.2.213.333.303.4.09.066.18.1.292.078.1-.023.258-.078.449-.178l.09.155c-.18.09-.427.223-.752.412-.236.133-.438.266-.607.377l-5.333-2.634 1.998 3.357c.124.2.225.345.326.422.09.078.202.112.337.1.135-.01.303-.077.516-.189l.09.156c-.202.09-.471.245-.82.445-.314.189-.55.333-.718.456l-.09-.156c.168-.122.292-.234.36-.323ZM50.434 73.055c.078.344.18.722.314 1.122-.505.09-1.347.267-2.538.512-1.19.255-2.02.444-2.515.567a12.447 12.447 0 0 0-.19-1.156 5.9 5.9 0 0 0-.192-.723l.203-.045c.146.456.28.779.404.99.123.211.28.344.483.411.202.067.494.056.864-.022l.483-.1-1.1-5.058c-.056-.245-.113-.422-.191-.522a.412.412 0 0 0-.303-.178c-.135-.023-.337 0-.607.044l-.033-.178c.314-.044.763-.133 1.325-.255.595-.134 1.044-.234 1.325-.312l.033.178c-.27.067-.449.134-.561.2a.413.413 0 0 0-.202.29c-.023.122-.012.31.045.555l1.1 5.058.483-.1c.37-.078.64-.19.797-.334a.851.851 0 0 0 .27-.566c.022-.234.01-.59-.045-1.057l.202-.044c.033.178.078.422.146.723ZM35.534 69.93c.033-.344.044-.733.044-1.166.416.055 1.112.122 2.1.21 1.168.1 2.055.179 2.661.212l-.01.178c-.225-.011-.383 0-.484.033a.345.345 0 0 0-.224.19c-.045.1-.079.266-.101.488l-.405 4.502c-.022.223-.01.39.012.5.022.112.09.19.19.234.102.044.259.089.472.111l-.011.178c-.595-.067-1.482-.156-2.65-.256a71.055 71.055 0 0 0-1.92-.144c.079-.39.135-.745.157-1.067.023-.234.034-.423.023-.567l.213.022c.011.4.034.69.09.89.045.2.146.344.303.444.146.1.393.167.707.189l.764.067c.224.022.382.01.483-.011a.318.318 0 0 0 .224-.19c.045-.1.079-.266.101-.489l.191-2.134-.606-.055c-.303-.023-.517.044-.64.222a1.548 1.548 0 0 0-.236.545c-.045.189-.067.31-.078.366l-.214-.022c.045-.3.079-.578.112-.856l.034-.433c.023-.311.045-.734.068-1.29l.213.022c0 .045.011.19.011.445.011.256.067.456.202.59.124.144.315.222.562.244l.606.055.19-2.178c.023-.223.012-.39-.01-.5a.317.317 0 0 0-.191-.223 1.685 1.685 0 0 0-.472-.1l-.674-.056c-.381-.033-.673-.01-.887.078a.911.911 0 0 0-.471.445c-.112.211-.202.533-.292.956l-.214-.022c0-.167.023-.39.057-.656ZM26.697 65.808c.168-.034.36 0 .561.088.236.1.393.245.483.434.09.2.101.478.045.845l-.168.911c-.056.323-.09.567-.101.756a.901.901 0 0 0 .112.49c.078.144.224.255.438.344l.808.334.82-1.935c.09-.21.135-.367.146-.478.011-.11-.034-.2-.112-.278-.079-.077-.214-.155-.416-.244l.068-.167c.258.122.606.278 1.066.467.483.2.854.345 1.1.422l-.067.167a2.106 2.106 0 0 0-.471-.122c-.113 0-.203.033-.27.122-.079.078-.157.222-.247.434l-1.763 4.168a1.76 1.76 0 0 0-.146.478c-.01.111.034.2.113.278.078.078.213.156.415.256l-.067.166a25.734 25.734 0 0 0-1.022-.455c-.225-.09-.46-.19-.73-.3-.27-.112-.45-.178-.55-.223-.438-.189-.786-.4-1.044-.656a1.644 1.644 0 0 1-.472-.811 1.296 1.296 0 0 1 .09-.845c.09-.222.236-.422.438-.6s.46-.311.774-.378c.315-.067.697-.056 1.112.044l-.1-.055c-.237-.145-.416-.29-.529-.445a1.01 1.01 0 0 1-.213-.489c-.034-.178-.022-.4.022-.667l.158-.945a2.78 2.78 0 0 0 .056-.444c0-.112-.011-.2-.045-.267a.272.272 0 0 0-.169-.145.353.353 0 0 0-.258-.022c-.078.022-.19.078-.337.156l-.09-.145c.203-.122.393-.211.562-.244Zm.561 3.957c-.27.033-.482.133-.65.3a2.095 2.095 0 0 0-.439.678c-.19.456-.236.856-.112 1.178.123.323.427.59.932.8.18.079.314.112.427.1.1 0 .19-.044.269-.132.079-.09.157-.234.236-.434l.876-2.068-.573-.233c-.37-.156-.696-.222-.966-.19ZM17.938 67.32a.341.341 0 0 0 .292-.045c.09-.056.214-.178.36-.356l2.818-3.557c.146-.178.236-.322.27-.422.033-.1.022-.2-.034-.29a1.795 1.795 0 0 0-.337-.355l.112-.145c.213.19.505.434.898.734.416.322.73.556.944.7l-.113.145c-.18-.133-.325-.211-.426-.234a.308.308 0 0 0-.292.045c-.09.056-.214.178-.36.356l-2.818 3.557c-.146.178-.236.322-.27.422-.033.1-.022.2.034.29.056.088.169.21.337.355l-.112.144c-.191-.166-.494-.41-.91-.744-.393-.3-.707-.534-.932-.69l.113-.144c.19.122.325.2.426.233ZM10.685 59.405c-.045-.5.068-1 .326-1.478.27-.49.674-.923 1.235-1.334.55-.39 1.1-.645 1.673-.745.573-.1 1.1-.067 1.595.122.494.19.91.512 1.235.968.348.466.539.956.584 1.456.045.5-.068 1-.326 1.478-.27.49-.674.923-1.235 1.334-.55.39-1.1.645-1.673.745-.562.1-1.1.067-1.595-.122a2.721 2.721 0 0 1-1.235-.956c-.348-.478-.539-.967-.584-1.468Zm1.685 1.979c.393.078.842.044 1.336-.111.494-.156.988-.412 1.505-.79.516-.366.92-.766 1.2-1.189.293-.422.45-.845.473-1.245.033-.4-.068-.756-.281-1.056a1.489 1.489 0 0 0-.943-.59c-.393-.077-.842-.044-1.337.112-.494.156-.988.411-1.504.778-.517.367-.92.767-1.202 1.2-.292.423-.449.834-.482 1.246-.034.4.067.756.28 1.056.236.311.55.511.955.589ZM11.55 46.02c.134.1.235.267.303.49a.847.847 0 0 1-.023.645c-.09.2-.303.389-.629.578l-.82.455c-.28.167-.493.3-.64.412a.872.872 0 0 0-.302.4c-.056.155-.056.333.01.556l.26.833 2.02-.622c.225-.067.37-.134.46-.2a.356.356 0 0 0 .147-.256c.01-.1-.023-.267-.079-.478l.18-.055c.067.266.168.644.325 1.111.157.5.281.867.37 1.1l-.179.056c-.078-.211-.146-.356-.213-.433a.353.353 0 0 0-.27-.134c-.112 0-.28.023-.494.1L7.62 51.912c-.225.067-.37.134-.46.2a.356.356 0 0 0-.147.256c-.01.111.023.267.079.478l-.18.056c-.056-.245-.157-.6-.303-1.068-.067-.222-.157-.478-.247-.744-.09-.267-.157-.456-.19-.556-.147-.456-.192-.856-.158-1.212a1.66 1.66 0 0 1 .326-.878c.18-.233.415-.39.707-.478.225-.067.472-.089.741-.056.27.034.528.145.797.345.27.2.494.49.685.878l-.011-.111c-.034-.278-.045-.5 0-.69a1.13 1.13 0 0 1 .236-.477 2.24 2.24 0 0 1 .539-.411l.83-.49c.17-.089.304-.177.382-.244a.723.723 0 0 0 .18-.2.302.302 0 0 0 .011-.222.379.379 0 0 0-.146-.212c-.067-.044-.18-.1-.337-.155l.057-.167c.224.078.415.167.539.267ZM8.866 49a1.1 1.1 0 0 0-.651-.3 1.992 1.992 0 0 0-.809.11c-.482.145-.808.379-.988.679-.18.3-.18.711-.022 1.212.056.177.123.31.19.389a.367.367 0 0 0 .281.122c.113 0 .281-.033.483-.089l2.156-.667-.18-.59c-.112-.4-.27-.688-.46-.866ZM10.685 35.472c.427-.189.685-.545.797-1.078.034-.2.034-.4-.022-.59a1.085 1.085 0 0 0-.314-.5c-.158-.144-.37-.244-.652-.289a1.164 1.164 0 0 0-.65.056 2.01 2.01 0 0 0-.596.367c-.19.167-.415.389-.662.667-.281.311-.528.567-.742.745-.213.188-.449.322-.707.422-.258.1-.55.111-.876.056-.337-.067-.617-.19-.82-.39a1.483 1.483 0 0 1-.415-.71 2.097 2.097 0 0 1-.011-.88c.034-.188.079-.333.135-.466.056-.133.112-.233.18-.311.067-.078.134-.167.224-.256a.857.857 0 0 0 .19-.278c.012-.055-.01-.1-.067-.144-.056-.045-.157-.078-.292-.123l.034-.2c.348.09.955.223 1.842.39l-.034.2a2.686 2.686 0 0 0-.898.044c-.281.056-.528.178-.73.367-.202.178-.337.433-.393.745-.045.21-.034.4.022.589a.975.975 0 0 0 .292.456c.146.122.315.2.517.244.325.056.606.011.842-.144.236-.156.46-.356.674-.59.213-.233.348-.389.426-.467.315-.333.573-.589.786-.778.214-.189.45-.322.708-.411.258-.089.538-.1.842-.044.37.066.673.21.898.422.225.222.37.478.45.79.078.31.078.644.01 1-.056.289-.123.511-.224.689-.09.178-.214.333-.348.478a.858.858 0 0 0-.191.278c-.011.055.011.1.067.144a.81.81 0 0 0 .292.123l-.034.2c-.325-.09-1.044-.234-2.155-.434l.033-.2c.63.056 1.146 0 1.572-.189ZM8.462 26.1a9.939 9.939 0 0 0-1.078-.477c.247-.434.663-1.19 1.224-2.268.562-1.067.955-1.823 1.168-2.279.37.234.707.434 1.01.59.27.144.506.244.685.322l-.1.189c-.45-.178-.787-.29-1.022-.323a.863.863 0 0 0-.63.111c-.179.112-.359.334-.527.667l-.225.445 4.638 2.39c.224.122.404.178.527.189a.43.43 0 0 0 .337-.111c.101-.09.214-.256.349-.49l.168.09c-.168.278-.382.667-.651 1.178-.281.534-.483.945-.607 1.2l-.168-.088c.112-.245.19-.434.202-.556a.389.389 0 0 0-.101-.345c-.09-.1-.236-.2-.46-.322L8.563 23.81l-.236.433c-.18.334-.258.6-.247.812.012.21.101.4.27.567.168.166.449.389.853.644l-.1.19a15.36 15.36 0 0 0-.64-.356ZM16.389 13.328c.19-.189.348-.367.46-.5l.135.133a.662.662 0 0 0-.09.412c.012.167.056.4.146.678l1.022 3.012 1.19 1.168c.169.155.292.266.393.31a.361.361 0 0 0 .303 0c.101-.044.225-.144.393-.288l.135.133c-.213.19-.494.456-.842.8-.37.367-.64.656-.808.845l-.135-.133c.146-.167.247-.29.292-.39.045-.1.045-.2-.012-.3-.044-.1-.157-.233-.314-.388l-.988-.967-3.75-1.09c-.225-.067-.393-.089-.505-.078a.388.388 0 0 0-.248.1l-.134-.133c.18-.156.382-.333.584-.545.415-.422.718-.722.887-.922l.134.133c-.303.3-.37.534-.202.7a.713.713 0 0 0 .292.156l3.155.967-.83-2.456c-.124-.356-.247-.6-.382-.723-.124-.122-.259-.156-.405-.111-.146.044-.314.155-.516.344l-.135-.133c.27-.244.517-.49.775-.734ZM23.183 8.849a.33.33 0 0 0-.079.289c.023.111.079.267.191.467l2.167 3.98c.112.2.202.333.292.41.079.079.18.1.28.09.102-.012.259-.078.45-.178l.595-.323c.337-.178.573-.366.696-.555a.923.923 0 0 0 .135-.656c-.034-.256-.135-.578-.314-1l.19-.1c.079.177.191.4.337.666.169.3.37.634.618 1-.37.178-1 .5-1.864.968-1.033.556-1.82.978-2.336 1.278l-.09-.155c.191-.112.326-.212.394-.29a.332.332 0 0 0 .078-.289 1.674 1.674 0 0 0-.19-.466l-2.19-3.98c-.113-.2-.202-.333-.292-.411a.333.333 0 0 0-.28-.09c-.113.012-.26.067-.461.168l-.079-.167c.236-.1.584-.278 1.044-.534.438-.233.775-.422 1.01-.567l.09.156a1.95 1.95 0 0 0-.392.289ZM36.859 9.56c.067.334.168.712.292 1.135-.416.066-1.1.189-2.066.378-1.157.222-2.021.4-2.617.533l-.033-.178c.213-.055.37-.1.46-.166a.33.33 0 0 0 .157-.245c.012-.111 0-.278-.044-.5l-.876-4.436c-.045-.222-.09-.377-.157-.478-.068-.1-.135-.155-.248-.166-.1-.022-.269-.011-.482.022l-.034-.178c.595-.1 1.47-.256 2.616-.478.887-.178 1.516-.3 1.875-.389.034.4.09.756.146 1.067.045.234.09.412.135.545l-.202.044c-.124-.378-.236-.655-.337-.833a.733.733 0 0 0-.415-.345c-.18-.056-.416-.056-.742.011l-.752.145c-.213.044-.37.089-.46.144a.354.354 0 0 0-.169.245c-.01.11 0 .278.045.5l.416 2.112.595-.122c.303-.056.483-.19.55-.39.068-.2.09-.388.079-.577-.011-.19-.023-.312-.023-.367l.202-.045c.034.3.079.578.135.845l.09.423c.056.3.157.722.303 1.256l-.202.044c-.011-.044-.056-.178-.135-.422-.078-.245-.19-.412-.36-.512-.167-.1-.358-.122-.605-.077l-.596.11.427 2.146c.045.223.09.378.146.478a.358.358 0 0 0 .247.167c.101.011.27 0 .483-.045l.662-.133c.371-.078.652-.178.831-.311.18-.134.281-.323.326-.556.045-.233.045-.567.011-1l.202-.045c.034.167.068.378.124.645Z" fill="#3C2B4A"/><path d="M29.29 52.012a13.06 13.06 0 0 1-1.358-2.28 15.485 15.485 0 0 1-.943-2.545c-.517-3.813-.528-7.514-.045-11.105a65.492 65.492 0 0 1 2.347-10.616c.18-.389.572-.578 1.179-.578.606 0 1.201.134 1.807.4.607.267 1.1.623 1.494 1.068.393.444.483.911.27 1.39-.338.71-.663 1.678-.989 2.878a63.346 63.346 0 0 0-.943 4.002 71.945 71.945 0 0 0-.786 4.58 65.185 65.185 0 0 0-.494 4.58 34.208 34.208 0 0 0-.067 3.957c.056 1.178.235 2.112.538 2.79a60.684 60.684 0 0 0 3.885-5.836 100.95 100.95 0 0 0 3.313-6.125 139.564 139.564 0 0 0 2.953-6.28c.932-2.113 1.853-4.202 2.75-6.259.45-1.045.9-2.145 1.337-3.301.438-1.167 1.01-2.157 1.74-2.99.304-.267.54-.356.697-.267.168.089.28.255.337.511.056.256.09.523.09.8v.645a87.87 87.87 0 0 0-.54 4.069 15.897 15.897 0 0 1-.943 3.89 267.6 267.6 0 0 1-2.414 5.858 106.073 106.073 0 0 1-2.661 5.725 72.117 72.117 0 0 1-3.065 5.47 48.108 48.108 0 0 1-3.594 5.068c-1.021 1.279-2.043 1.957-3.042 2.035-1.045.089-1.977-.434-2.852-1.534ZM47.885 46.965a85.898 85.898 0 0 1-1.786-2.546 4.99 4.99 0 0 1-.875-2.857c0-1.156.336-2.256 1.01-3.29.674-1.023 1.449-1.857 2.324-2.48a6.15 6.15 0 0 1 1.1-.577c.371-.145.776-.134 1.202.044.18.09.37.156.562.2.19.045.37.1.516.156.146.055.314.145.494.267.18.122.27.278.27.489 0 .834.022 1.512.067 2.034.045.523.112.967.202 1.345.09.378.18.7.27.978.09.29.18.59.27.912.055.3.044.556-.046.756-.09.211-.314.233-.674.089-.662-.234-1.156-.712-1.47-1.434-.315-.723-.55-1.367-.697-1.968a5.745 5.745 0 0 0-.224-.622c-.124-.3-.191-.512-.225-.623-.235-.055-.527.022-.853.245a3.267 3.267 0 0 0-.876.911 3.132 3.132 0 0 0-.494 1.345c-.078.512.023 1.012.292 1.523.123.178.292.4.517.645.224.256.449.511.673.778.225.267.45.534.674.778.225.245.415.456.561.6.18.178.303.278.36.29.056.01.213-.023.449-.112.303-.144.763-.344 1.38-.578a73.428 73.428 0 0 1 1.943-.711 29.144 29.144 0 0 1 1.943-.6c.617-.167 1.09-.245 1.426-.245.213 0 .36.078.449.222.09.09.079.212-.045.356-.123.145-.28.3-.471.445-.191.144-.405.278-.607.4-.213.122-.348.189-.404.222-.517.3-1.157.634-1.942 1.012-.786.367-1.46.733-2.033 1.09a.899.899 0 0 1-.337.177 1.76 1.76 0 0 0-.382.178c.36.8.618 1.5.764 2.079.146.578.202 1.133.157 1.678a7.301 7.301 0 0 1-.337 1.634 27.45 27.45 0 0 1-.718 1.901 40.17 40.17 0 0 1-1.292 1.968c-.437.622-.92 1.189-1.47 1.7a6.512 6.512 0 0 1-1.763 1.2c-.629.301-1.325.445-2.078.445-.426 0-.83-.055-1.223-.155a1.877 1.877 0 0 1-.989-.645c-.696-.745-1.077-1.556-1.167-2.434a7.101 7.101 0 0 1 .224-2.612 7.74 7.74 0 0 1 .674-1.479c.663-1.134 1.392-2.09 2.19-2.88a40.054 40.054 0 0 1 2.515-2.245Zm1.538 2.011c-.337.334-.786.8-1.359 1.412-.572.612-1.1 1.279-1.605 1.99a13.267 13.267 0 0 0-1.213 2.123c-.314.7-.393 1.3-.247 1.812.606-.267 1.224-.711 1.853-1.323a12.02 12.02 0 0 0 1.673-2.012c.483-.733.82-1.456 1.01-2.167.191-.723.158-1.334-.112-1.834Z" fill="#3C2B4A" stroke="#fff" stroke-miterlimit="10"/><path d="M40.564 65.062c-14.047 0-25.478-11.316-25.478-25.222 0-13.907 11.43-25.223 25.478-25.223 14.046 0 25.477 11.316 25.477 25.223 0 13.906-11.43 25.222-25.477 25.222Zm0-49.333c-13.43 0-24.355 10.816-24.355 24.11 0 13.295 10.925 24.111 24.355 24.111 13.429 0 24.354-10.816 24.354-24.11 0-13.295-10.925-24.111-24.354-24.111Z" fill="#3C2B4A"/></g></svg>