<svg width="104" height="34" fill="none" xmlns="http://www.w3.org/2000/svg"><path d="M9.205.344v.144l-.606.145v6.403l.606.144v.145H6.33V7.18l.607-.144V1.578l-2.38 5.847h-.304L1.165 1.578V6.88l.809.3v.145H.054V7.18l.808-.3V.633L.256.488V.344h1.257c.191 0 .36.022.494.066a1.269 1.269 0 0 1 .652.445c.078.1.146.222.213.345l2.2 4.168L6.758 1.2c.056-.145.112-.267.19-.367.068-.1.158-.19.26-.267A.943.943 0 0 1 7.576.4c.146-.033.325-.055.55-.055h1.078ZM12.798 2.2c.415 0 .797.055 1.123.177.325.122.606.3.842.523.236.233.404.51.527.833.124.323.18.7.18 1.112 0 .411-.056.79-.18 1.111-.123.323-.303.6-.527.834-.236.234-.517.4-.842.523a3.214 3.214 0 0 1-1.123.177c-.416 0-.797-.055-1.123-.177a2.498 2.498 0 0 1-.842-.523 2.306 2.306 0 0 1-.528-.834c-.123-.322-.18-.7-.18-1.111 0-.411.057-.79.18-1.112.124-.322.303-.6.528-.833.236-.234.516-.4.842-.523.326-.122.696-.178 1.123-.178Zm0 5.101a.64.64 0 0 0 .348-.11.947.947 0 0 0 .303-.39 2.97 2.97 0 0 0 .225-.745c.056-.322.09-.722.09-1.2 0-.49-.034-.89-.09-1.2a2.83 2.83 0 0 0-.225-.745c-.09-.178-.19-.312-.303-.39a.588.588 0 0 0-.348-.11.64.64 0 0 0-.348.11.947.947 0 0 0-.303.39 2.97 2.97 0 0 0-.225.744c-.056.323-.09.723-.09 1.201 0 .49.034.89.09 1.2.056.312.135.567.225.745.09.178.19.312.303.39a.677.677 0 0 0 .348.11ZM20.377.344c.607 0 .91.3.91.9v5.803l.606.144v.145h-.91c-.247 0-.437-.034-.583-.111a1.275 1.275 0 0 1-.348-.256 1.092 1.092 0 0 1-.225-.378c-.09.178-.202.322-.337.456-.112.11-.27.211-.46.311-.191.1-.416.145-.674.145-.292 0-.561-.056-.808-.167a1.678 1.678 0 0 1-.652-.5c-.18-.223-.337-.5-.438-.823-.112-.334-.157-.711-.157-1.156 0-.445.056-.823.158-1.156.112-.334.258-.6.46-.823.19-.222.427-.389.696-.5a2.365 2.365 0 0 1 1.392-.111c.146.044.27.089.37.144.124.056.225.123.315.2V.666l-.606-.144V.377h1.291V.344ZM19.67 2.9a1.793 1.793 0 0 0-.483-.345.605.605 0 0 0-.28-.055.702.702 0 0 0-.36.1c-.112.067-.202.178-.292.345a2.667 2.667 0 0 0-.19.711c-.046.312-.068.7-.068 1.19 0 .478.022.856.067 1.156.045.3.101.533.18.7.067.167.146.29.247.345.09.055.18.089.27.089a.695.695 0 0 0 .404-.123c.112-.077.202-.177.28-.277a2.35 2.35 0 0 0 .236-.4V2.9h-.011ZM25.272 7.502c-.864 0-1.538-.233-2.01-.7-.482-.467-.718-1.123-.718-1.945 0-.412.056-.79.18-1.112a2.6 2.6 0 0 1 .505-.834c.213-.233.472-.4.786-.522.303-.122.64-.178 1.01-.178.382 0 .719.056 1.011.156.303.11.55.255.763.433a1.83 1.83 0 0 1 .651 1.412c0 .089 0 .178-.01.244l-.034.19c-.023.066-.034.122-.056.166-.292.056-.607.111-.944.145-.28.044-.606.077-.976.1-.37.022-.753.044-1.157.044 0 .411.034.756.09 1.034.056.278.146.5.247.656a.925.925 0 0 0 .382.344c.146.067.314.1.483.1.202 0 .392-.033.572-.11a1.472 1.472 0 0 0 .775-.712c.079-.156.112-.311.112-.478h.247c0 .2-.045.389-.134.578-.09.189-.225.356-.393.5a2 2 0 0 1-.607.345c-.224.1-.483.144-.775.144Zm-1.01-2.657c.224 0 .427 0 .606-.01.18-.012.326-.023.45-.034.145-.011.258-.033.359-.044.01-.067.033-.145.045-.223.01-.078.022-.155.033-.244.012-.09.012-.19.012-.29 0-.3-.023-.555-.068-.755a1.737 1.737 0 0 0-.18-.5c-.067-.123-.145-.223-.247-.267a.667.667 0 0 0-.269-.078.45.45 0 0 0-.27.1c-.09.067-.168.189-.247.356a3.458 3.458 0 0 0-.18.744c-.044.323-.044.734-.044 1.245ZM31.695 2.545a1.2 1.2 0 0 0-.539.123 1.836 1.836 0 0 0-.404.278 2.825 2.825 0 0 0-.326.4v3.701l.607.145v.144h-2.83v-.144l.607-.145V2.645l-.607-.144v-.145h.91c.235 0 .426.045.584.123.146.077.269.166.359.255.1.111.18.234.224.367.101-.144.225-.278.37-.4.124-.1.282-.189.473-.278.19-.089.404-.122.662-.122.36 0 .629.089.808.244.18.167.259.4.259.7 0 .223-.068.412-.202.545-.135.134-.326.2-.55.2h-.158c-.056 0-.09-.01-.123-.01-.045-.012-.09-.012-.124-.034v-1.4ZM37.197 3.846c0-.223-.023-.423-.067-.59a1.109 1.109 0 0 0-.18-.4.55.55 0 0 0-.247-.233.621.621 0 0 0-.27-.078.695.695 0 0 0-.404.122 1.104 1.104 0 0 0-.28.278 2.3 2.3 0 0 0-.225.4v3.702l.606.145v.144H33.3v-.144l.607-.145V2.645l-.606-.144v-.145h.91c.235 0 .426.045.583.122.146.078.27.167.36.256.1.111.18.234.224.367.09-.167.202-.322.337-.456.112-.11.27-.211.449-.311.18-.1.415-.145.685-.145.292 0 .561.045.797.145.247.089.45.222.618.367.168.155.303.322.404.522.101.2.146.4.146.612v3.201l.606.145v.144h-1.314c-.606 0-.909-.3-.909-.9v-2.58ZM1.12 14.36v-.41h7.804v.41l-1.639.412v8.393h5.884v-8.393l-1.64-.412v-.41h7.804v.41l-1.64.412v17.34l1.64.412v.411h-7.804v-.422l1.64-.411v-8.26H7.285v8.26l1.64.411v.411H1.12v-.41l1.639-.412V14.76l-1.64-.4ZM29.034 18.963c1.134 0 2.145.167 3.043.489.898.322 1.65.8 2.28 1.423a6.096 6.096 0 0 1 1.437 2.267c.325.89.494 1.89.494 3.013s-.169 2.123-.494 3.012a6.052 6.052 0 0 1-1.438 2.257 6.222 6.222 0 0 1-2.279 1.423c-.898.322-1.909.489-3.043.489-1.134 0-2.144-.167-3.043-.49a6.13 6.13 0 0 1-2.279-1.422 6.144 6.144 0 0 1-1.437-2.256c-.326-.89-.494-1.89-.494-3.013s.168-2.123.494-3.013a6.188 6.188 0 0 1 1.437-2.267c.629-.634 1.392-1.1 2.28-1.423.898-.322 1.908-.49 3.042-.49Zm0 13.817c.315 0 .618-.1.932-.3.315-.2.584-.545.831-1.045.247-.5.45-1.178.607-2.034.157-.856.235-1.945.235-3.268 0-1.323-.078-2.412-.235-3.268-.158-.856-.36-1.534-.607-2.035-.247-.5-.528-.844-.83-1.044-.304-.2-.618-.3-.933-.3-.314 0-.617.1-.932.3-.314.2-.584.544-.83 1.044-.248.5-.45 1.179-.607 2.035-.157.856-.236 1.945-.236 3.268 0 1.323.079 2.412.236 3.268.157.856.36 1.534.606 2.034.247.5.528.845.831 1.045.315.2.618.3.932.3ZM56.802 23.432c0-.644-.056-1.2-.169-1.634-.112-.433-.247-.8-.426-1.078a2.04 2.04 0 0 0-.573-.611c-.213-.123-.415-.19-.617-.19a1.4 1.4 0 0 0-.921.334 4.37 4.37 0 0 0-.696.745c-.214.322-.416.69-.573 1.078v10.027l1.65.411v.411H46.82v-.41l1.64-.412v-8.67c0-.645-.057-1.201-.17-1.635-.112-.433-.246-.8-.426-1.078a2.04 2.04 0 0 0-.573-.611c-.213-.123-.415-.19-.617-.19a1.4 1.4 0 0 0-.92.334c-.27.222-.495.478-.697.745a5.49 5.49 0 0 0-.573 1.078v10.027l1.64.411v.411h-7.658v-.41l1.64-.412V20.186l-1.64-.41v-.412h2.459c.64 0 1.168.111 1.572.322.415.211.73.456.977.7.27.312.471.645.606 1 .236-.455.528-.855.876-1.222.314-.311.696-.589 1.145-.845.46-.255 1.01-.378 1.673-.378 1.09 0 2.044.245 2.83.723.797.478 1.403 1.1 1.819 1.856.235-.466.527-.889.875-1.278a5.555 5.555 0 0 1 1.146-.89c.46-.266 1.01-.41 1.673-.41.752 0 1.426.122 2.055.355a4.938 4.938 0 0 1 1.605.967c.45.412.797.878 1.044 1.423a4.15 4.15 0 0 1 .371 1.734v8.67l1.64.412v.411h-3.56c-1.64 0-2.459-.811-2.459-2.434v-7.048h-.011ZM71.859 33.324c-2.335 0-4.154-.633-5.446-1.912-1.291-1.278-1.942-3.023-1.942-5.269 0-1.122.168-2.123.494-3.012a6.686 6.686 0 0 1 1.37-2.268 5.696 5.696 0 0 1 2.122-1.423c.83-.322 1.74-.489 2.717-.489 1.022 0 1.943.145 2.751.434.809.289 1.505.678 2.066 1.167.561.489 1 1.067 1.302 1.723.304.656.45 1.356.45 2.1 0 .256-.012.479-.045.668-.034.189-.056.355-.101.5-.056.178-.101.334-.135.456-.809.167-1.65.3-2.549.411-.763.111-1.65.2-2.65.29-1 .077-2.055.121-3.144.121 0 1.123.079 2.057.247 2.802.169.744.393 1.345.685 1.79.292.444.64.755 1.044.944.405.19.843.29 1.314.29.55 0 1.067-.1 1.55-.3.483-.201.898-.468 1.257-.801.36-.334.64-.712.854-1.134.213-.423.314-.856.314-1.29h.685c0 .545-.124 1.067-.37 1.568a4.05 4.05 0 0 1-1.056 1.345c-.46.389-1 .7-1.64.934a6.331 6.331 0 0 1-2.144.355Zm-2.74-7.18c.618 0 1.168-.012 1.64-.045.471-.034.875-.056 1.201-.09.382-.032.707-.077.988-.133.034-.177.079-.378.135-.6.034-.2.067-.422.09-.667.022-.244.045-.5.045-.767 0-.811-.068-1.49-.191-2.045-.124-.556-.292-1-.483-1.345s-.415-.59-.651-.734a1.46 1.46 0 0 0-.73-.222c-.236 0-.483.089-.73.256-.247.177-.46.5-.651.978s-.348 1.156-.483 2.023c-.112.867-.18 2-.18 3.39ZM91.183 32.647V21.653l-9.813-7.692v18.686h9.813ZM103.321 32.647V21.653l-9.656-7.692v18.686h9.656Z" fill="#3C2B4A"/></svg>