<svg width="115" height="35" fill="none" xmlns="http://www.w3.org/2000/svg"><path d="m16.243 7.56.842-.179c.213 0 .393.045.517.134.123.089.19.178.19.256 0 .077-.022.2-.056.344-.033.145-.348 1.634-.932 4.447a602.679 602.679 0 0 0-1.28 6.291 189.607 189.607 0 0 0 4.57-6.48c1.74-2.568 2.762-4.269 3.054-5.114a1.53 1.53 0 0 1 .36-.611c.146-.145.28-.234.393-.256.112-.022.292-.044.527-.044.236 0 .517.055.843.155.325.1.494.267.494.512 0 .444-.674 1.745-2.01 3.88a127.65 127.65 0 0 1-4.604 6.802c-1.73 2.401-3.166 4.302-4.323 5.703-.202.244-.46.378-.752.378a3.21 3.21 0 0 1-.932-.156c-.326-.1-.494-.278-.494-.545 0-.833.74-4.857 2.223-12.05-1.269 1.623-2.807 3.891-4.615 6.793-1.886 3-2.953 4.868-3.2 5.58-.135.433-.292.689-.471.756a.954.954 0 0 1-.393.077l-.91.1a.883.883 0 0 1-.494-.144c-.146-.1-.225-.2-.225-.311 0-.3.427-1.212 1.27-2.724A98.4 98.4 0 0 1 8.81 16.22a94.02 94.02 0 0 1 3.548-5.18c1.235-1.679 2.19-2.813 2.863-3.38a.674.674 0 0 1 .472-.178l.55.078ZM29.739 15.096c.584 0 .876.2.876.59 0 .21-.045.366-.146.466-.101.1-.315.422-.64.99a22.528 22.528 0 0 0-1.078 2.145c-.393.867-.651 1.612-.764 2.223a1.178 1.178 0 0 0-.033.322c0 .423.112.623.348.623s.505-.111.82-.322a5.83 5.83 0 0 0 .841-.7c.248-.245.483-.501.72-.757.235-.255.37-.411.415-.444a.336.336 0 0 1 .202-.056c.146 0 .235.111.27.334.033.222.044.444.044.689 0 .244-.022.4-.067.489-.225.433-.708.956-1.471 1.567-.753.612-1.449.912-2.066.912-.618 0-1.078-.19-1.359-.556a2.02 2.02 0 0 1-.438-1.234c0-.456.079-.845.236-1.19-.64.823-1.37 1.512-2.19 2.09-.83.567-1.493.856-2.02.856-.528 0-.944-.155-1.28-.466-.427-.39-.63-.923-.63-1.612 0-.69.158-1.379.472-2.079a7.558 7.558 0 0 1 1.224-1.9c.505-.579 1.067-1.101 1.673-1.568 1.269-.99 2.448-1.479 3.526-1.479.415 0 .752.067 1.01.2.259.134.427.312.494.512.18-.278.337-.445.472-.523.101-.089.292-.122.539-.122Zm-1.527 1.267c-1.314 0-2.672.723-4.076 2.168a10.303 10.303 0 0 0-1.381 1.856c-.427.723-.629 1.212-.629 1.479 0 .267.079.4.236.4.213 0 .808-.422 1.797-1.256.988-.834 1.639-1.457 1.953-1.857.36-.444 1.056-1.378 2.1-2.79Z" fill="#3C2B4A"/><path d="m38.475 9.07.472.111c.067 0 .134.034.18.1a.299.299 0 0 1 .078.19c0 .055-.079.222-.247.489-.169.266-.348.566-.573.9-.224.334-.337.523-.348.556a19.692 19.692 0 0 1 1.269-.067c.247 0 .415.022.517.056.09.033.202.133.314.289.123.155.224.278.325.355.101.078.146.2.146.356 0 .156-.1.3-.291.4-.191.111-.405.178-.63.2-1.785.178-2.761.267-2.941.278-.618.945-1.494 2.412-2.605 4.402-1.112 1.99-1.707 3.246-1.774 3.746a3.867 3.867 0 0 0-.045.556c0 .3.157.445.471.445.315 0 .663-.122 1.045-.356a8.58 8.58 0 0 0 1.055-.778c.865-.756 1.325-1.145 1.381-1.145.202 0 .303.345.303 1.023 0 .367-.168.7-.516 1-.775.656-1.426 1.156-1.954 1.49-.527.333-1.055.5-1.594.5a1.54 1.54 0 0 1-.326-.033c-.617-.111-1.066-.334-1.347-.667-.292-.334-.427-.779-.427-1.334 0-.556.168-1.245.505-2.046.337-.8.753-1.656 1.258-2.556a88.907 88.907 0 0 1 2.481-4.147l-.438.056c-.886.1-1.403.144-1.549.144h-.101c-.225 0-.438-.044-.64-.133-.202-.089-.314-.2-.314-.322 0-.134.056-.256.168-.378a.96.96 0 0 0 .202-.29c.056-.166.258-.355.606-.555.349-.2.607-.311.786-.322l.517-.034c.168-.01.348-.01.55-.022.202-.011.36-.011.472-.022l1.033-.045c.64-.956 1.089-1.578 1.325-1.845.247-.278.381-.422.415-.445a.472.472 0 0 1 .236-.044l.55-.056Z" fill="#3C2B4A"/><path d="M45.38 20.177c.146 0 .236.11.27.333.034.222.045.445.045.69 0 .244-.023.4-.068.488-.224.423-.707.945-1.46 1.557-.752.611-1.47.922-2.144.922-.415 0-.797-.122-1.156-.367-.348-.244-.528-.678-.528-1.289 0-.611.168-1.223.494-1.812-1.909 2.368-3.391 3.546-4.48 3.546-.427 0-.775-.156-1.044-.456-.27-.3-.393-.611-.393-.945 0-.322.044-.655.134-1 .09-.345.191-.656.292-.934a9.88 9.88 0 0 1 .46-1.011c.203-.4.36-.69.45-.879.09-.189.258-.455.482-.822.225-.367.506-.867.865-1.49.36-.622.651-1.089.887-1.39.236-.3.46-.455.685-.455.225 0 .416.089.584.267.168.178.258.333.258.444 0 .112-.258.623-.774 1.534-1.516 2.724-2.28 4.302-2.28 4.758 0 .111.045.167.124.167.37 0 1.29-.79 2.75-2.368 1.46-1.578 2.314-2.59 2.55-3.034.235-.445.448-.823.673-1.123.213-.3.382-.49.494-.556.326-.211.752-.322 1.28-.345.09 0 .146 0 .191.011.045.012.101.078.157.19.056.11.09.21.09.289-.067.21-.37.778-.92 1.7a72.542 72.542 0 0 0-.899 1.556c-.91 1.857-1.358 3.069-1.358 3.624 0 .323.123.478.37.478.45-.055.988-.41 1.617-1.056.236-.233.46-.478.685-.722.224-.245.37-.39.415-.423a.272.272 0 0 1 .202-.077Z" fill="#3C2B4A"/><path d="M48.715 17.541c1.808-2.034 3.357-3.056 4.626-3.056.314 0 .573.088.775.277a.935.935 0 0 1 .303.723c0 .3-.213.79-.64 1.49a24 24 0 0 1-1.18 1.756c-.19.244-.403.367-.65.367a.67.67 0 0 1-.562-.267.977.977 0 0 1-.202-.611c0-.523.28-1.123.853-1.779l-.022-.022c-.258.022-.876.522-1.886 1.478-1 .967-1.853 1.834-2.56 2.59-.697.767-1.46 1.69-2.291 2.79-.236.323-.438.49-.606.49-.169 0-.382-.056-.652-.156s-.438-.178-.494-.223c-.056-.044-.09-.122-.09-.233 0-.1.034-.233.09-.367.056-.144.18-.344.337-.6.157-.256.416-.678.753-1.256.336-.578.853-1.456 1.56-2.623.708-1.168 1.123-1.88 1.269-2.124.292-.5.528-.867.719-1.09.348-.433.932-.644 1.751-.644.18 0 .281.111.281.345 0 .356-.337 1.034-1 2.012l-.482.733ZM61.1 15.23c0 .5-.202.945-.618 1.323-.415.378-.875.567-1.403.567-.169 0-.28-.044-.337-.122a.536.536 0 0 1-.079-.312c0-.122.012-.255.045-.378-.28.09-.584.234-.92.423-.337.189-.753.467-1.247.845-.494.378-.74.644-.74.833 0 .056.089.09.269.09.18 0 .46-.067.83-.19.371-.122.64-.189.787-.189.146 0 .247.011.291.023.102.055.203.166.326.344.112.178.168.323.168.423 0 .1-.1.233-.303.4a2.231 2.231 0 0 1-.673.378 3.709 3.709 0 0 0-.506.2c-1.617.9-2.425 1.512-2.425 1.845 0 .59.505.89 1.527.89.651 0 1.314-.2 1.965-.612.561-.345 1.067-.7 1.516-1.067.45-.356.73-.578.853-.667.124-.089.214-.122.27-.122.202 0 .303.222.303.667 0 .444-.023.733-.079.867-.056.144-.202.31-.46.522-1.64 1.323-3.2 1.99-4.66 1.99-.786 0-1.403-.111-1.875-.323-.864-.389-1.291-.978-1.291-1.778 0-1.045.73-1.845 2.2-2.379-.291-.133-.482-.289-.56-.5-.09-.2-.124-.523-.124-.967 0-.445.213-.912.628-1.412.416-.5.932-.911 1.539-1.223 1.347-.722 2.56-1.078 3.615-1.078.258 0 .505.056.775.178s.393.289.393.511ZM87.307 7.492h.146c.045 0 .079 0 .09.011.011.011.022.011.045.022.022 0 .034.012.056.034.034.033.09.066.157.1.09.067.135.144.135.233 0 .09-.09.278-.27.567-.18.29-.64.99-1.392 2.123a245.433 245.433 0 0 0-4.615 7.248c-2.346 3.869-3.537 5.814-3.559 5.836-.022.022-.034.044-.045.067-.011.044-.034.066-.09.066l-.157-.033-.314.078-.18-.034-.19.034h-.068l-.64.089c-.382 0-.573-.134-.573-.39 0-.11.034-.244.101-.4.236-.555 1.437-2.567 3.593-6.058a178.97 178.97 0 0 1-4.2.056l-2.47-.011c-.404.645-.965 1.556-1.672 2.745-1.528 2.59-2.336 3.891-2.437 3.913-.101.023-.18.045-.247.045s-.124-.034-.168-.111c-.057-.067-.09-.112-.113-.112a.325.325 0 0 0-.123.045c-.056.033-.146.044-.27.044l-.27-.01-.1-.067c-.011 0-.023.01-.034.033-.011.022-.045.033-.09.033-.326 0-.494-.133-.494-.411 0-.178.067-.422.191-.723.135-.3.303-.622.516-.967.214-.344.753-1.178 1.64-2.479.876-1.3 1.314-1.956 1.314-1.967-.146-.011-.315-.011-.506-.022-.393 0-.662-.011-.83-.045-.439-.078-.742-.433-.899-1.067-.09-.311-.123-.511-.112-.611 0-.2.09-.312.27-.312l.302.078c.158.011.517.022 1.1.056.585.033 1 .044 1.258.044l.652-.022c.999-1.545 2.19-3.302 3.581-5.258-1.01.823-2.133 1.234-3.368 1.234-.584 0-1.09-.133-1.505-.411-.426-.278-.628-.634-.628-1.056 0-.423.157-.756.483-1.012.325-.244.628-.367.92-.367.292 0 .438.045.438.134 0 .033-.045.066-.123.1-.079.044-.124.078-.124.11 0 .123.135.234.404.323.27.09.573.145.91.145.337 0 .74-.1 1.235-.29.494-.188 1-.444 1.527-.744a35.632 35.632 0 0 0 1.752-1.056 1.54 1.54 0 0 1 .696-.178c.224 0 .37.022.471.078.101.044.169.1.214.144a.93.93 0 0 1 .146.19c.056.077.1.144.157.177.045.045.079.09.079.145 0 .055-.034.133-.09.255-.056.112-.349.578-.876 1.39-.528.811-1.213 1.845-2.044 3.101a215.043 215.043 0 0 0-1.819 2.78c2.055 0 4.267-.034 6.647-.112 2.897-4.524 4.424-6.892 4.582-7.114.157-.222.303-.367.438-.434.134-.066.291-.1.482-.1l.977.078ZM91.058 15.074c.235 0 .471.1.707.311.247.211.36.523.36.945 0 .422-.147.967-.45 1.645a10.953 10.953 0 0 1-1.235 2.057c-.516.689-1.1 1.345-1.718 1.956a9.142 9.142 0 0 1-2.021 1.5c-.73.39-1.381.59-1.976.59s-1.067-.19-1.426-.556c-.36-.367-.54-.878-.54-1.534s.17-1.39.495-2.179c.325-.8.74-1.5 1.257-2.112a12.254 12.254 0 0 1 1.673-1.645c1.247-1 2.347-1.49 3.29-1.49.427 0 .741.1.955.312.078.066.112.133.112.178v.066c.124-.044.292-.044.517-.044ZM89.9 16.586h-.079c-.27 0-.404-.19-.404-.578-.561.178-1.145.5-1.763.956a8.41 8.41 0 0 0-1.65 1.623c-.988 1.244-1.482 2.3-1.494 3.157 0 .422.158.633.472.633.314 0 .786-.211 1.403-.611.618-.4 1.236-.99 1.853-1.757.606-.756 1.067-1.422 1.37-1.978.303-.556.46-.934.46-1.145-.01-.2-.067-.3-.168-.3ZM91.877 23.823l-.561-.022h-.202a.78.78 0 0 1-.247-.134c-.09-.066-.158-.122-.203-.144-.044-.023-.067-.09-.067-.167 0-.078.034-.222.09-.411 1.493-3.257 2.942-5.87 4.345-7.815.158-.211.405-.378.741-.489a3.195 3.195 0 0 1 1-.167c.19 0 .292.145.292.445 0 .089-.034.2-.09.333-.056.145-.213.367-.46.69-.248.322-.54.689-.876 1.089-.337.4-.528.645-.573.711 1.055-1.078 1.999-1.878 2.852-2.412.853-.522 1.46-.789 1.841-.789.382 0 .674.111.876.322.202.212.304.445.304.69 0 .244-.023.455-.057.61a2.012 2.012 0 0 1-.191.512 14.78 14.78 0 0 1-.235.456c-.068.122-.18.289-.326.49-.157.2-.258.344-.314.422-.056.077-.18.222-.36.433s-.28.334-.292.356c.214-.211.517-.523.899-.945.381-.422.707-.767.977-1.045.269-.278.595-.6.999-.956a8.947 8.947 0 0 1 1.111-.856c.831-.511 1.674-.778 2.527-.778.292 0 .539.089.741.278.202.189.303.4.303.656 0 .255-.314.867-.932 1.823-.617.956-1.246 1.923-1.864 2.89-.617.967-.932 1.578-.932 1.834 0 .345.068.556.191.623a.92.92 0 0 0 .472.077c.179-.01.449-.133.775-.355.336-.223.628-.445.887-.69.426-.378.808-.744 1.179-1.1a.375.375 0 0 1 .258-.1c.146 0 .236.111.269.333a4.5 4.5 0 0 1 .045.69c0 .244-.022.4-.067.489-.225.422-.719.945-1.471 1.567-.764.611-1.493.923-2.19.923-.089 0-.146 0-.179-.011-.786-.078-1.336-.29-1.64-.645a1.878 1.878 0 0 1-.449-1.256c0-.478.169-1.078.506-1.768.336-.689.696-1.323 1.1-1.878.404-.556.763-1.068 1.1-1.523.337-.456.506-.7.506-.734 0-.033-.034-.055-.09-.055-.236 0-.764.378-1.595 1.145a44.57 44.57 0 0 0-3.638 3.757 90.53 90.53 0 0 0-1.909 2.423c-.112.156-.303.233-.55.233-.247 0-.505-.044-.775-.144-.269-.1-.404-.222-.404-.367 0-.078.607-1.145 1.83-3.201 1.224-2.057 1.83-3.18 1.83-3.357 0-.19-.111-.278-.336-.278-.225 0-.696.333-1.404 1-1.942 1.834-3.447 3.669-4.513 5.48a3.796 3.796 0 0 1-.405.5c-.202.223-.381.312-.449.312Z" fill="#3C2B4A"/><path d="M114.143 15.23c0 .5-.202.945-.617 1.323-.416.378-.876.567-1.404.567-.168 0-.28-.044-.337-.122a.537.537 0 0 1-.078-.312c0-.122.011-.255.045-.378a5.048 5.048 0 0 0-.921.423 10.93 10.93 0 0 0-1.246.845c-.494.378-.741.644-.741.833 0 .056.089.09.269.09.18 0 .46-.067.831-.19.371-.122.64-.189.786-.189.146 0 .247.011.292.023.101.055.202.166.326.344.112.178.168.323.168.423 0 .1-.101.233-.303.4a2.232 2.232 0 0 1-.674.378 3.682 3.682 0 0 0-.505.2c-1.617.9-2.425 1.512-2.425 1.845 0 .59.505.89 1.527.89.651 0 1.313-.2 1.965-.612.561-.345 1.066-.7 1.515-1.067.45-.356.73-.578.854-.667.123-.089.213-.122.269-.122.202 0 .303.222.303.667 0 .444-.022.733-.078.867-.056.144-.202.31-.461.522-1.639 1.323-3.2 1.99-4.659 1.99-.786 0-1.404-.111-1.875-.323-.865-.389-1.292-.978-1.292-1.778 0-1.045.73-1.845 2.201-2.379-.292-.133-.483-.289-.561-.5-.09-.2-.124-.523-.124-.967 0-.445.213-.912.629-1.412.415-.5.932-.911 1.538-1.223 1.348-.722 2.56-1.078 3.616-1.078.258 0 .505.056.774.178.27.122.393.289.393.511ZM.32 26.9a58.739 58.739 0 0 0 9.028 2.89 69 69 0 0 0 9.241 1.623c1.55.212 3.11.234 4.649.378 1.56.011 3.11.134 4.66.045l2.324-.056c.775-.01 1.55-.11 2.324-.155.775-.067 1.55-.1 2.313-.2l2.302-.323c3.088-.333 6.086-1.045 9.073-1.9 3.02-.823 5.872-1.913 8.892-3.046 3.088-1.123 6.434-1.857 9.825-1.501 1.673.211 3.358.745 4.728 1.723 1.38.967 2.369 2.345 2.997 3.79-.943-1.289-2.122-2.345-3.48-3-1.359-.657-2.852-.924-4.334-.879-2.998.044-5.952 1.034-8.725 2.279a74.834 74.834 0 0 1-8.949 3.657c-3.099.99-6.3 1.779-9.544 2.179-6.456.844-13.07.856-19.448-.423-3.2-.578-6.321-1.478-9.342-2.623-2.998-1.19-5.928-2.579-8.533-4.458ZM107.698 8.393a52.012 52.012 0 0 0-7.635-2.524c-2.572-.678-5.177-1.156-7.793-1.49-1.302-.2-2.627-.244-3.93-.4-1.313-.033-2.616-.166-3.93-.11-.65.01-1.313.01-1.965 0-.65 0-1.313.066-1.964.088-.652.045-1.314.056-1.965.123l-1.954.233c-2.617.211-5.154.745-7.692 1.4-2.571.612-5.008 1.48-7.601 2.346-2.661.878-5.547 1.412-8.444 1.012-1.426-.234-2.863-.734-3.997-1.623-1.157-.878-1.943-2.079-2.426-3.335.798 1.1 1.786 2 2.92 2.557 1.134.556 2.38.789 3.627.778 2.515 0 5.007-.8 7.365-1.8 2.403-1.135 5.042-2.135 7.67-2.958 2.65-.789 5.411-1.39 8.174-1.678 5.513-.578 11.15-.445 16.55.822 2.706.567 5.345 1.434 7.871 2.501 2.538 1.09 4.986 2.357 7.119 4.058Z" fill="#3C2B4A"/></svg>