<svg width="667" height="488" fill="none" xmlns="http://www.w3.org/2000/svg"><g clip-path="url(#a)"><path fill="#FEF6F4" d="M0 0h667v488H0z"/><path d="M0 487.662h666.667v-666.667H0v666.667Z" fill="#FEF6F4"/><path d="M666.667 102.862v384.4l-.027.4H399.88L0 441.168V314.275c156.547 70.694 264.08 23.614 393.52-93.146 130.787-117.947 226.68-125 273.147-118.267Z" fill="#FEF6F4"/><path d="M666.667 121.355v366.307H0v-92.68c186.067 73.88 293.827 16 417.427-124.587 109.706-124.786 199.973-147.946 249.24-149.04Z" fill="#FFE9F6"/><path d="M627.416 487.667H462.723v-.005h164.706l-.013.005Zm39.249-19.184v-75.039l.002.002v75.036l-.002.001Z" fill="#E1DFDE"/><path d="M298.393 295.553c-1.448-3.471.23-4.262.23-4.262-3.979-4.626.54-5.79.54-5.79s-.663-1.404 1.773-2.483c.643-.284 1.471-.411 2.437-.411 2.78 0 6.716 1.052 10.747 2.482a508.998 508.998 0 0 1-15.727 10.464Z" fill="#F1D1E7"/><path d="M346.228 342.845c-.38-1.83-.583-2.836-.583-2.836s.562-.41 1.5-1.064l-1.5-5.408s.862-.776 2.254-1.896c-1.56-4.027-6.014-6.724-6.819-6.978l-.269-.069a2.016 2.016 0 0 0-.284-.023c-.086 0-.134.008-.134.008a64.257 64.257 0 0 1-4.772-1.496c-11.728-4.102-22.677-11.157-29.409-17.141 0 0-1.543-.895-1.288-2.568 0 0-5.197-5.275-5.705-6.168a14.951 14.951 0 0 1-.824-1.653 508.964 508.964 0 0 0 15.726-10.464c1.096.389 2.199.805 3.287 1.237 5.536 2.189 10.719 3.569 13.88 4.303 1.965.462 3.145.67 3.145.67-5.089-5.914-.593-7.704-.593-7.704s4.719 4.704 11.82 6.286c13.155 2.929 15.643 18.398 15.229 22.1-.169 1.502 1.142 6.273 2.748 11.389.147-.008.292-.012.435-.012.531 0 1.037.055 1.513.179l.395 1.11a605.43 605.43 0 0 1-19.752 18.198Zm19.357-19.308s-.462.817-1.242 2.042l.032.098c.478-.659.893-1.368 1.21-2.14ZM464.081 165.315c.977-4.597 2.767-8.732 5.195-11.981a101.972 101.972 0 0 0-1.256-4.945 56.687 56.687 0 0 1-2.072-13.378 125.695 125.695 0 0 0-6.976 1.918c.342-12.06 2.333-18.667 2.578-19.454-3.438 7.702-4.593 15.696-4.986 20.227-1.203.405-1.83.652-1.83.652 2.108-57.981 45.958-66.687 68.919-67.25 0-.002.765-3.874 18.256-3.874 6.713 0 19.625 2.497 32.02 10.077 12.541 4.64 25.387 12.646 33.987 26.42-37.642 5.823-86.172 22.48-143.835 61.588Z" fill="#F1D1E7"/><path d="M475.243 211.899c-3.008-4.8-5.076-9.166-5.634-12.186a63.386 63.386 0 0 1-.832-5.979c-2.23-3.485-3.927-7.764-4.835-12.611-1.021-5.454-.904-10.894.14-15.808 57.663-39.108 106.193-55.765 143.835-61.588 4.29 6.872 7.525 15.182 9.136 25.223-38.098 10.467-86.515 33.883-141.81 82.949Z" fill="#F1D1E7"/><path d="M627.431 487.662H462.724c.903-19.316 1.239-48.161-2.835-70.507-8.708 16.543-18.108 32.186-25.446 38.826-11.25 10.178-23.899 16.994-35.046 16.993-7.35 0-14.049-2.964-19.258-9.883-11.835-15.712-30.403-103.308-33.912-120.246a605.43 605.43 0 0 0 19.752-18.198l1.489 4.2c.545.003 1.036.074 1.444.244 14.271 29.122 33.531 99.334 33.531 99.334s38.222-125.334 67.636-143.942c3.873-2.82 8.964-5.478 14.326-7.86-2.097-15.432-4.542-36.89-5.69-59.572a95.415 95.415 0 0 1-3.471-5.152c55.295-49.066 103.712-72.482 141.809-82.949.252 1.571.464 3.181.635 4.839 5.573 54.137-3.66 127.71-7.489 154.449 16.378 19.437 32.441 60.463 43.126 91.801l13.342 13.405v75.039c-.15.073-20.474 10.161-39.236 19.179Zm-23.788-103.848c-3.087 7.003-5.455 11.217-5.455 11.217s-26.891 33.911-19.628 79.156l46.861-33.192c-5.12-12.317-14.382-35.256-21.778-57.181Z" fill="#F1D1E7"/><path d="M358.984 327.186s17.96-13.14 23.27-10.918c0 0-5.023 21.334-11.635 19.778-6.613-1.555-11.635-8.86-11.635-8.86Z" fill="#1F2C52"/><path d="M358.984 320.712s13.082-11.777 19.94-10c0 0-7.057 12.52-12.918 13.352-5.86.832-7.022-3.352-7.022-3.352Z" fill="#FBC74B"/><path d="M382.256 326.071c-6.424 16.578-20.469-4.47-20.469-4.47 0-5.536-6.386-9.453-7.366-9.761l-.269-.069c-.255-.039-.416-.016-.416-.016a63.948 63.948 0 0 1-4.773-1.495c-11.728-4.103-22.678-11.159-29.41-17.141 0 0-1.541-.895-1.288-2.568 0 0-5.196-5.275-5.705-6.17-2.784-4.88-.593-5.913-.593-5.913-3.979-4.627.538-5.791.538-5.791s-.662-1.404 1.775-2.484c2.991-1.317 9.985.742 16.469 3.308 5.538 2.191 10.719 3.571 13.88 4.303a63.15 63.15 0 0 0 3.146.671c-5.088-5.914-.594-7.703-.594-7.703s4.719 4.704 11.822 6.284c13.154 2.931 15.642 18.4 15.228 22.101-.412 3.678 8.025 26.914 8.025 26.914Z" fill="#F68A68"/><path d="M354.506 283.866s.779 6.423 4.48 10.764c-2.105-2.159-5.474-6.068-6.924-10.248 0 0-6.392-4.148-7.433-6.577 1.967.462 3.145.67 3.145.67 3.394 3.34 6.732 5.391 6.732 5.391ZM318.264 290.551c.386-1.928 2.955-1.543 4.755 0 1.799 1.541 7.326 5.331 9.51 5.813 2.185.484.629-14.38 2.571-17.508 0 0-2.314 0-7.068-2.185-4.756-2.184-10.75-5.932-15.528-3.993 0 0 2.162-1.019 6.917 1.294 4.755 2.314 13.237 6.17 13.237 6.17s1.156 2.192-.514 4.116c-1.671 1.924-16.198-9.263-20.179-5.79 0 0 3.6.388 5.913 1.802 2.314 1.413 11.952 6.425 13.495 6.682 1.541.258.771 4.755-.772 5.398 0 0-6.683-3.023-9.509-4.596-2.828-1.572-2.828 2.797-2.828 2.797Z" fill="#F2815D"/><path d="M358.984 320.712s16.192-.888 19.94-10l4.415 12.446-21.333 8.444-3.022-10.89Z" fill="#F5982E"/><path d="M483.419 271.659c-29.413 18.609-67.635 143.942-67.635 143.942s-19.261-70.212-33.53-99.333c0 0-10.92 12.889-23.27 10.917 0 0 21.383 105.672 34.495 123.083 13.112 17.411 35.639 9.777 54.305-7.111 18.667-16.889 50.684-92.045 50.684-92.045l-15.049-79.453Z" fill="#110128"/><path d="M548.071 58.249s76.028-4.599 82.958 62.717c6.929 67.316-9.036 164.703-9.036 164.703l-120.642 1.68s-25.977-144.098 5.987-188.308c31.963-44.212 40.733-40.792 40.733-40.792Z" fill="#3F131C"/><path d="M572.551 146.316s-2.612 17.807-4.772 49.419c-.341 4.955-.67 10.24-.976 15.855-1.086 19.784-1.88 43.572-1.88 70.704l-25.826 22.982s-9.923-11.277-10.679-60.989c-.22-12.949.207-28.524 1.587-47.185.329-4.564.72-9.324 1.184-14.268 2.757-29.806 41.362-36.518 41.362-36.518Z" fill="#E36546"/><path d="M567.779 195.735c-.341 4.955-.67 10.24-.976 15.855-8.006 12.888-21.286 29.329-38.385 32.697-.22-12.949.207-28.524 1.587-47.185l37.774-1.367Z" fill="#E36546"/><path d="M515.657 155.632c2.895 15.461-3.349 30.831-13.945 34.329-10.596 3.498-21.534-6.2-24.43-21.661-2.894-15.461 3.35-30.831 13.946-34.329 10.596-3.499 21.533 6.2 24.429 21.661Z" fill="#110128"/><path d="M606.418 166.044a120.549 120.549 0 0 1-1.85 4.333c-10.291 23.148-34.036 41.235-54.009 51.072-12.022 5.934-22.683 8.871-28.21 8.119-14.72-2.005-37.332-31.517-39.397-42.68-4.155-22.348 6.053-24.02-1.588-51.323-10.349-36.937 17.359-78.064 80.381-69.445 67.786 9.276 60.025 62.856 44.673 99.924Z" fill="#F68A68"/><path d="M606.419 166.044a122.382 122.382 0 0 1-1.851 4.333c-10.291 23.148-34.036 41.235-54.009 51.072 40.674-24.02 36.305-65.206 36.305-65.206l19.555 9.801Z" fill="#F68A68"/><path d="M566.078 120.966s8.357 38.871 25.967 46.5c17.608 7.628 32.233-46.309-25.967-46.5Z" fill="#5E1020"/><path d="M555.518 145.202c-.8-5.163-4.16-9.037-8.186-9.037-4.623 0-8.371 5.106-8.371 11.405 0 6.3 3.748 11.407 8.371 11.407 4.622 0 8.369-5.107 8.369-11.407 5.003-.248 6.857-2.636 6.857-2.636-5.472 1.807-7.04.268-7.04.268Z" fill="#3F131C"/><path d="M554.042 148.728c0 3.919-1.4 7.344-3.524 9.286-1.154 1.068-2.53 1.682-4.004 1.682-1.4 0-2.714-.565-3.844-1.536a8.448 8.448 0 0 1-1.424-1.584c-1.413-1.977-2.285-4.777-2.285-7.848 0-4.297 1.708-8.018 4.176-9.8.787-.565 1.659-.945 2.579-1.093.27-.036.528-.061.798-.061.872 0 1.695.209 2.468.602 2.948 1.486 5.06 5.563 5.06 10.352Z" fill="#FEF6F4"/><path d="M540.72 183.928s-.502 2.89-2.387 6.351c-.395.752-.884 1.54-1.433 2.328-3.844 5.444-11.294 11.031-25.416 8.476a51.292 51.292 0 0 1-3.152-.668s-.8-8.895-9.766-15.424c.215.071 2.328.859 6.172 1.504 6.84 1.157 19.162 1.885 35.982-2.567Z" fill="#8B1722"/><path d="M538.334 190.279c-.395.752-.884 1.54-1.434 2.328-3.844 5.444-11.293 11.031-25.416 8.476 4.715-9.515 20.068-10.744 26.85-10.804Z" fill="#B51B42"/><path d="M540.72 183.928s-.752 4.298-3.82 8.679c-12.07 3.725-29.32.215-29.32.215l-2.842-6.327c6.84 1.157 19.162 1.885 35.982-2.567Z" fill="#FEF6F4"/><path d="M554.045 148.728c0 3.919-1.4 7.344-3.524 9.286a5.33 5.33 0 0 1-1.241.146c-3.991 0-7.221-4.433-7.221-9.899 0-5.329 3.07-9.677 6.926-9.885 2.948 1.486 5.06 5.563 5.06 10.352Z" fill="#211C1D"/><path d="M546.861 142.878c0 1.819-1.075 3.292-2.399 3.292-1.325 0-2.4-1.473-2.4-3.292 0-1.817 1.075-3.292 2.4-3.292 1.324 0 2.399 1.475 2.399 3.292Z" fill="#FEF6F4"/><path d="M491.931 145.202c.8-5.163 4.16-9.037 8.186-9.037 4.623 0 8.37 5.106 8.37 11.405 0 6.3-3.747 11.407-8.37 11.407-4.622 0-8.37-5.107-8.37-11.407-5.002-.248-6.856-2.636-6.856-2.636 5.47 1.807 7.038.268 7.04.268Z" fill="#3F131C"/><path d="M507.339 148.728c0 3.919-1.4 7.344-3.525 9.286-1.154 1.068-2.518 1.682-3.991 1.682-1.412 0-2.727-.565-3.844-1.536a8.106 8.106 0 0 1-1.437-1.584c-1.4-1.977-2.272-4.777-2.272-7.848 0-4.297 1.708-8.018 4.176-9.8.785-.565 1.657-.945 2.578-1.093.259-.036.528-.061.799-.061.86 0 1.695.209 2.456.602 2.948 1.486 5.06 5.563 5.06 10.352Z" fill="#FEF6F4"/><path d="M507.342 148.728c0 3.919-1.4 7.344-3.525 9.286a5.153 5.153 0 0 1-1.228.146c-3.991 0-7.222-4.433-7.222-9.899 0-5.317 3.059-9.665 6.915-9.885 2.948 1.486 5.06 5.563 5.06 10.352Z" fill="#211C1D"/><path d="M500.166 142.878c0 1.819-1.073 3.292-2.399 3.292-1.325 0-2.4-1.473-2.4-3.292 0-1.817 1.075-3.292 2.4-3.292 1.326 0 2.399 1.475 2.399 3.292Z" fill="#FEF6F4"/><path d="M506.94 176.475c-1.312 0-2.797-.664-4.245-1.911-1.759-1.511-3.531-3.992-3.531-6.129 0-2.89 1.168-3.624 2.648-4.555 1.425-.896 3.376-2.123 5.816-6.229 4.685-7.892-.008-18.764-.056-18.872a1 1 0 0 1 1.831-.807c.212.484 5.15 11.932-.056 20.699-2.686 4.522-4.963 5.954-6.47 6.902-1.316.827-1.713 1.078-1.713 2.862 0 1.241 1.219 3.222 2.833 4.612 1.172 1.006 2.37 1.532 3.194 1.409a.999.999 0 1 1 .298 1.977 3.645 3.645 0 0 1-.549.042Z" fill="#E36546"/><path d="M558.135 130.458c-.458 0-.917-.169-1.273-.512-10.809-10.349-21.404-3.444-21.849-3.145a1.845 1.845 0 0 1-2.555-.496 1.84 1.84 0 0 1 .487-2.554c.133-.092 13.464-8.917 26.464 3.534a1.842 1.842 0 0 1-1.274 3.173ZM484.888 129.435a1.84 1.84 0 0 1-1.435-2.996c6.26-7.791 17.093-5.362 21.945-2.988a1.842 1.842 0 0 1-1.614 3.31c-.468-.225-11.484-5.446-17.459 1.984-.364.454-.899.69-1.437.69Z" fill="#3F131C"/><path d="M578.483 108.864c-12.796 10.231-12.402 18.73-12.402 18.73a129.096 129.096 0 0 0-12.748-4.422c-.467-7.061-.75-17.365.712-24.954 0 0-6.091 10.144-7.738 23.137a135.193 135.193 0 0 0-21.306-3.132c-.136-7.688.16-15.597 1.326-22.253-.233.688-2.653 8.204-4.348 20.104-.86-17.046 2.395-29.499 2.604-30.272-5.293 11.138-6.472 23.088-6.349 32.114-11.237-.246-21.283.847-29.376 2.259-.037-5.181.147-11.519.811-18.679 0 0-3.17 7.566-3.808 19.244-5.846 1.143-10.475 2.42-13.546 3.366.344-12.06 2.334-18.667 2.579-19.454-3.439 7.7-4.593 15.695-4.985 20.227a43.994 43.994 0 0 0-1.831.651c2.861-78.72 82.676-66.612 82.676-66.612 29.473 8.192 40.539 39.717 27.729 49.946Z" fill="#5E1020"/><path d="M548.074 58.248s76.028-4.599 82.958 62.717c6.929 67.316-9.036 164.703-9.036 164.703l-16.275-139.499-39.643-25.204c2.291-29.592-18.004-62.717-18.004-62.717Z" fill="#5E1020"/><path d="M588.087 159.18c9.082-12.106 29.956-19.344 37.225-7.17 5.38 9.01 2.724 20.54-2.923 27.562-8.021 9.967-31.102 12.603-37.566-3.472-2.324-5.776-.591-11.781 3.264-16.92Z" fill="#F68A68"/><path d="M597.93 176.107s4.709-14.61 11.148-20.603c6.54-6.091 14.818-3.469 16.062 10.225 0 0-4.149-3.328-6.973-1.517 0 0 6.256 14.731-10.951 18.204 0 0-.524-9.627-9.286-6.309Z" fill="#E36546"/><path d="M617.255 167.908c-2.097 15.589-12.844 28.227-24.002 28.227-11.159 0-18.506-12.638-16.407-28.227 2.097-15.589 12.844-28.228 24.003-28.228 11.158 0 18.505 12.639 16.406 28.228Z" fill="#110128"/><path d="M601.765 151.111s12.167-93.674-64.769-92.83c0 0 .763-3.875 18.256-3.875s77.08 16.917 59.921 96.705c0 0-5.338-4.732-13.408 0ZM535.572 208.04c-.972 0-1.948-.017-2.938-.051a1.167 1.167 0 0 1-1.126-1.206c.022-.644.555-1.182 1.206-1.124 38.481 1.297 61.476-24.351 61.704-24.61a1.166 1.166 0 1 1 1.752 1.539c-.23.26-22.795 25.452-60.598 25.452Z" fill="#D2D3D2"/><path d="M533.926 209.346h-4.932a3.08 3.08 0 0 1 0-6.16h4.932a3.08 3.08 0 1 1 0 6.16Z" fill="#110128"/><path d="M619.303 168.437c-1.571 11.68-9.623 21.149-17.984 21.149-8.362 0-13.864-9.469-12.294-21.149 1.572-11.682 9.624-21.15 17.986-21.15 8.36 0 13.864 9.468 12.292 21.15ZM475.319 487.667h124.585c-26.21-57.745 11.628-105.459 11.628-105.459s3.391-6.029 7.354-15.674c8.894-21.692 20.629-61.65 3.009-92.367-2.865-5.003-9.731-8.979-17.717-12.071a87.866 87.866 0 0 0-3.367-1.229c-16.331-5.635-35.576-7.879-35.576-7.879-30.383 12.451-36.579 0-36.579 0s-30.92 8.25-45.234 18.671c-7.271 5.301-15.09 26.049-19.102 49.401-3.868 22.647-4.154 47.729 3.164 63.536 11.931 25.757 9.332 81.866 7.835 103.071Z" fill="#FEF6F4"/><path d="M666.667 367.216c-12.129-35.569-31.184-83.635-49.765-98.429 0 0-13.283 28.792-10.896 59.101 2.388 30.311 36.606 109.407 36.606 109.407l24.055-18.995v-51.084ZM576.488 251.019s10.796 3.431 13.935 22.451l-36.38 16.689 9.94 15.117s-31.098 10.536-54.367 39.87c0 0-13.276-23.972-18.221-39.87l17.09-12.832-16.216-13.445s14.438-23.292 33.643-26.011l5.545 9.472 45.031-11.441Z" fill="#110128"/><path d="M572.552 252.019s-38.571 32.027-58.378 72.472c0 0-6.834-29.333 5.47-63.112 1.822-5.005 14.337-.444 14.337-.444l38.571-8.916Z" fill="#F8F683"/><path d="m565.593 239.603-31.954 15.831-5.222-11.147s-15.614 19.24-13.7 34.712l16.74-18.851s8.314 21.112 14.064 21.231c9.466.196 30.967-30.36 30.967-30.36s-7.249-13.027-10.895-11.416Z" fill="#F5982E"/><path d="M666.668 374.956c-8.998 1.026-24.054 50.49-24.054 50.49l-87.848 62.221h58.256c14.017-5.715 38.237-16.14 53.646-25.833v-86.878Z" fill="#110128"/><path d="M251.169 142.87H72.432C57.282 142.87 45 130.589 45 115.438c0-15.149 12.282-27.432 27.432-27.432h178.737c15.15 0 27.432 12.283 27.432 27.432 0 15.151-12.282 27.432-27.432 27.432Z" fill="#E1E0DE"/><path d="M259.176 134.864H80.44c-15.15 0-27.432-12.281-27.432-27.432C53.008 92.282 65.29 80 80.44 80h178.736c15.151 0 27.432 12.283 27.432 27.432 0 15.151-12.281 27.432-27.432 27.432Z" fill="#110128"/><path d="M140.528 101.615h-4.238v10.994h-2.557v-10.994h-4.237v-2.259h11.032v2.259Zm4.097 11.181c-.784 0-1.493-.131-2.128-.392a5.014 5.014 0 0 1-1.624-1.101 5.252 5.252 0 0 1-1.045-1.606 5.254 5.254 0 0 1-.355-1.922c0-.934.206-1.786.616-2.558a4.83 4.83 0 0 1 1.792-1.848c.784-.473 1.705-.709 2.763-.709 1.07 0 1.985.236 2.744.709a4.597 4.597 0 0 1 1.736 1.848c.411.759.616 1.581.616 2.464 0 .15-.006.305-.019.467a9.396 9.396 0 0 1-.037.373h-7.56c.05.498.193.934.429 1.307.249.373.56.66.934.859a2.898 2.898 0 0 0 2.632-.075c.448-.249.752-.572.914-.971l2.147.598a4.033 4.033 0 0 1-1.027 1.325 4.901 4.901 0 0 1-1.549.915 5.906 5.906 0 0 1-1.979.317Zm-2.557-5.861h5.115c-.05-.498-.193-.927-.43-1.288a2.275 2.275 0 0 0-.896-.859 2.485 2.485 0 0 0-1.25-.317 2.45 2.45 0 0 0-1.232.317c-.361.199-.66.485-.896.859-.224.361-.361.79-.411 1.288Zm9.177-7.952h2.501v10.49c0 .448.075.753.224.915.15.149.355.224.616.224.199 0 .405-.025.616-.075.212-.049.399-.112.56-.186l.336 1.904a4.867 4.867 0 0 1-1.176.373 6.423 6.423 0 0 1-1.213.131c-.784 0-1.394-.206-1.829-.616-.423-.423-.635-1.021-.635-1.792V98.983Zm10.479 13.813c-.784 0-1.493-.131-2.128-.392a5.003 5.003 0 0 1-1.624-1.101 5.252 5.252 0 0 1-1.045-1.606 5.254 5.254 0 0 1-.355-1.922c0-.934.205-1.786.616-2.558a4.83 4.83 0 0 1 1.792-1.848c.784-.473 1.705-.709 2.763-.709 1.07 0 1.985.236 2.744.709a4.597 4.597 0 0 1 1.736 1.848c.41.759.616 1.581.616 2.464 0 .15-.006.305-.019.467a9.396 9.396 0 0 1-.037.373h-7.56c.05.498.193.934.429 1.307.249.373.56.66.933.859.386.186.797.28 1.232.28.498 0 .965-.119 1.4-.355.448-.249.753-.572.915-.971l2.147.598a4.033 4.033 0 0 1-1.027 1.325 4.901 4.901 0 0 1-1.549.915 5.91 5.91 0 0 1-1.979.317Zm-2.557-5.861h5.114c-.049-.498-.192-.927-.429-1.288a2.281 2.281 0 0 0-.896-.859 2.486 2.486 0 0 0-1.251-.317c-.448 0-.858.105-1.232.317-.36.199-.659.485-.896.859-.224.361-.36.79-.41 1.288Zm15.057 5.861c-.759 0-1.431-.168-2.016-.504a3.724 3.724 0 0 1-1.344-1.4v5.693h-2.501v-13.757h2.184v1.68a4.074 4.074 0 0 1 1.418-1.344c.573-.336 1.226-.504 1.96-.504.66 0 1.263.131 1.811.392.56.261 1.045.628 1.456 1.101.411.461.728.996.952 1.606.236.597.355 1.244.355 1.941 0 .946-.187 1.804-.56 2.576-.361.772-.865 1.388-1.512 1.848-.635.448-1.369.672-2.203.672Zm-.84-2.128c.386 0 .734-.081 1.045-.243.311-.161.579-.379.803-.653.236-.286.411-.604.523-.952.124-.361.186-.734.186-1.12 0-.411-.068-.79-.205-1.139a2.548 2.548 0 0 0-.56-.914 2.595 2.595 0 0 0-.877-.635 2.517 2.517 0 0 0-1.064-.224c-.237 0-.479.044-.728.131a2.67 2.67 0 0 0-.691.336 2.984 2.984 0 0 0-.597.522c-.162.199-.28.417-.355.654v2.296c.149.361.348.69.597.989.262.299.56.535.896.709.336.162.679.243 1.027.243Zm15.9 1.941h-2.501v-5.488c0-.759-.15-1.325-.448-1.698-.287-.374-.685-.56-1.195-.56-.299 0-.616.087-.952.261a3.151 3.151 0 0 0-.915.728 2.864 2.864 0 0 0-.578 1.045v5.712h-2.502V98.983h2.502v5.656a3.846 3.846 0 0 1 1.474-1.456 4.093 4.093 0 0 1 2.035-.523c.635 0 1.151.112 1.549.336.399.212.71.504.934.877.224.361.379.772.466 1.232.087.448.131.915.131 1.4v6.104Zm6.692.187c-.796 0-1.512-.131-2.146-.392a4.854 4.854 0 0 1-1.624-1.12 5.074 5.074 0 0 1-1.008-1.624 5.263 5.263 0 0 1-.355-1.923c0-.684.118-1.331.355-1.941a5.074 5.074 0 0 1 1.008-1.624c.448-.473.989-.84 1.624-1.101.634-.274 1.35-.411 2.146-.411.797 0 1.506.137 2.128.411a4.628 4.628 0 0 1 1.624 1.101 4.687 4.687 0 0 1 1.008 1.624c.237.61.355 1.257.355 1.941 0 .672-.118 1.313-.355 1.923a4.687 4.687 0 0 1-1.008 1.624 4.65 4.65 0 0 1-1.605 1.12c-.635.261-1.35.392-2.147.392Zm-2.557-5.059c0 .573.112 1.083.336 1.531.224.436.529.778.915 1.027.385.249.821.373 1.306.373.473 0 .903-.124 1.288-.373.386-.262.691-.61.915-1.046.236-.448.355-.958.355-1.53 0-.56-.119-1.064-.355-1.512a2.591 2.591 0 0 0-.915-1.046 2.323 2.323 0 0 0-1.288-.373c-.485 0-.921.131-1.306.392a2.588 2.588 0 0 0-.915 1.045c-.224.436-.336.94-.336 1.512Zm18.451 4.872h-2.501v-5.488c0-.784-.137-1.356-.411-1.717-.274-.361-.653-.541-1.139-.541-.336 0-.678.087-1.026.261a3.151 3.151 0 0 0-.915.728 2.725 2.725 0 0 0-.597 1.045v5.712h-2.502v-9.781h2.259v1.811c.249-.423.566-.778.952-1.064a4.032 4.032 0 0 1 1.325-.672 5.28 5.28 0 0 1 1.606-.243c.609 0 1.107.112 1.493.336.398.212.697.504.896.877.212.361.355.772.429 1.232.087.461.131.927.131 1.4v6.104Zm6.711.187c-.784 0-1.493-.131-2.128-.392a5.003 5.003 0 0 1-1.624-1.101 5.234 5.234 0 0 1-1.045-1.606 5.254 5.254 0 0 1-.355-1.922c0-.934.205-1.786.616-2.558a4.824 4.824 0 0 1 1.792-1.848c.784-.473 1.705-.709 2.763-.709 1.07 0 1.984.236 2.744.709a4.604 4.604 0 0 1 1.736 1.848c.41.759.616 1.581.616 2.464 0 .15-.007.305-.019.467-.013.149-.025.274-.037.373h-7.56c.049.498.192.934.429 1.307.249.373.56.66.933.859.386.186.797.28 1.232.28.498 0 .965-.119 1.4-.355.448-.249.753-.572.915-.971l2.147.598a4.033 4.033 0 0 1-1.027 1.325 4.913 4.913 0 0 1-1.549.915 5.91 5.91 0 0 1-1.979.317Zm-2.557-5.861h5.114c-.05-.498-.193-.927-.429-1.288a2.281 2.281 0 0 0-.896-.859 2.486 2.486 0 0 0-1.251-.317c-.448 0-.858.105-1.232.317a2.46 2.46 0 0 0-.896.859c-.224.361-.361.79-.41 1.288ZM104.324 107.433c0 12.6-10.213 22.813-22.812 22.813-12.6 0-22.813-10.213-22.813-22.813 0-12.599 10.214-22.812 22.813-22.812 12.599 0 22.812 10.213 22.812 22.812Z" fill="#FEF6F4"/><path d="m91.356 95.486-2.752-1.666a62.134 62.134 0 0 1-4.68 7.146c.934.731 1.868 1.462 2.802 2.191.736.571.872 1.645.282 2.383a66.236 66.236 0 0 1-7.116 7.593 1.686 1.686 0 0 1-2.395-.127l-2.368-2.654a62.257 62.257 0 0 1-6.828 5.134l1.842 2.639c2.36 3.525 7.558 4.341 11.183 1.325a71.113 71.113 0 0 0 12.079-12.89c2.775-3.814 1.623-8.947-2.049-11.074Z" fill="#110128"/><path d="M84.252 99.915a61.397 61.397 0 0 0 3.555-5.418c.494-.847 1.602-1.12 2.503-.594.9.527 1.228 1.7.703 2.602a64.936 64.936 0 0 1-3.743 5.706c-.612.835-1.791.96-2.606.303-.815-.659-.987-1.812-.412-2.599ZM69.066 114.497a61.64 61.64 0 0 0 5.177-3.898c.747-.626 1.909-.528 2.62.242.709.77.66 1.955-.134 2.62a64.757 64.757 0 0 1-5.452 4.104c-.864.584-2.057.334-2.64-.532-.585-.864-.384-1.988.43-2.536Z" fill="#110128"/><path d="M251.169 222.286H72.432c-15.15 0-27.432-12.281-27.432-27.432 0-15.151 12.282-27.432 27.432-27.432h178.737c15.15 0 27.432 12.281 27.432 27.432 0 15.151-12.282 27.432-27.432 27.432Z" fill="#E1E0DE"/><path d="M259.176 214.28H80.44c-15.15 0-27.432-12.281-27.432-27.432 0-15.15 12.282-27.432 27.432-27.432h178.736c15.151 0 27.432 12.282 27.432 27.432 0 15.151-12.281 27.432-27.432 27.432Z" fill="#110128"/><path d="M104.324 186.848c0 12.599-10.213 22.812-22.812 22.812-12.6 0-22.813-10.213-22.813-22.812 0-12.6 10.214-22.813 22.813-22.813 12.599 0 22.812 10.213 22.812 22.813Z" fill="#FEF6F4"/><path d="m98.276 185.961-4.684 12.546a3.454 3.454 0 0 1-4.452 2.023l-22.363-8.349a3.452 3.452 0 0 1-2.027-4.442l4.685-12.546c.157-.422.392-.802.684-1.114a3.353 3.353 0 0 1 1.13-.83 3.451 3.451 0 0 1 2.627-.083l22.363 8.348a3.48 3.48 0 0 1 1.94 1.789c.194.423.299.895.31 1.367.016.428-.056.869-.213 1.291Z" fill="#110128"/><path d="m98.178 183.303-14.726 2.844a3.007 3.007 0 0 1-2.947-1.1l-9.26-11.798a3.35 3.35 0 0 0-1.128.83l9.282 11.83a4.397 4.397 0 0 0 1.927 1.421c.75.28 1.576.355 2.396.193l14.764-2.853a3.506 3.506 0 0 0-.308-1.367ZM139.822 189.766v2.258h-9.202v-13.253h9.034v2.259h-6.458v3.192h5.581v2.09h-5.581v3.454h6.626Zm1.71-1.736v-2.259h5.656v2.259h-5.656Zm23.053 3.994h-2.502v-5.488c0-.771-.137-1.337-.41-1.698-.262-.374-.629-.56-1.102-.56-.485 0-.952.193-1.4.578-.435.374-.746.865-.933 1.475v5.693h-2.501v-5.488c0-.784-.137-1.356-.411-1.717-.261-.361-.628-.541-1.101-.541-.486 0-.952.186-1.4.56-.436.373-.747.865-.934 1.474v5.712h-2.501v-9.781h2.259v1.811a3.81 3.81 0 0 1 1.493-1.456c.622-.349 1.338-.523 2.147-.523.809 0 1.437.199 1.885.597.46.399.753.89.877 1.475.399-.672.903-1.182 1.512-1.531a4.101 4.101 0 0 1 2.091-.541c.61 0 1.101.112 1.475.336.385.212.684.504.896.877.211.361.354.772.429 1.232.087.461.131.928.131 1.4v6.104Zm1.505-2.893c0-.635.175-1.188.523-1.661.361-.486.859-.859 1.493-1.12.635-.262 1.363-.392 2.184-.392.411 0 .828.031 1.251.093.423.062.79.162 1.101.299v-.523c0-.622-.186-1.101-.56-1.437-.361-.336-.902-.504-1.624-.504-.535 0-1.045.093-1.53.28-.486.186-.996.46-1.531.821l-.803-1.643a8.032 8.032 0 0 1 1.979-.952 7.244 7.244 0 0 1 2.147-.317c1.393 0 2.476.349 3.248 1.045.784.697 1.176 1.693 1.176 2.987v3.117c0 .262.043.448.13.56.1.112.255.181.467.206v2.034c-.224.038-.429.069-.616.094a3.218 3.218 0 0 1-.448.037c-.498 0-.877-.112-1.139-.336a1.444 1.444 0 0 1-.466-.821l-.056-.504c-.423.547-.952.97-1.587 1.269a4.512 4.512 0 0 1-1.941.448 3.876 3.876 0 0 1-1.755-.392 3.244 3.244 0 0 1-1.213-1.101 2.999 2.999 0 0 1-.43-1.587Zm6.086.504c.137-.149.249-.299.336-.448a.827.827 0 0 0 .13-.411v-.989a4.638 4.638 0 0 0-.97-.28 4.717 4.717 0 0 0-.99-.112c-.647 0-1.182.143-1.605.429-.411.274-.616.641-.616 1.102 0 .249.068.485.205.709.137.224.336.405.598.541.261.137.572.206.933.206.373 0 .74-.069 1.101-.206.361-.149.654-.329.878-.541Zm5.305 2.389v-9.781h2.501v9.781h-2.501Zm0-11.144v-2.482h2.501v2.482h-2.501Zm4.739-2.482h2.502v10.49c0 .448.074.753.224.915.149.149.354.224.616.224.199 0 .404-.025.616-.075.211-.049.398-.112.56-.186l.336 1.904a4.823 4.823 0 0 1-1.176.373 6.433 6.433 0 0 1-1.214.131c-.784 0-1.394-.206-1.829-.616-.423-.423-.635-1.021-.635-1.792v-11.368Zm9.245 10.733c0-.635.175-1.188.523-1.661.361-.486.859-.859 1.493-1.12.635-.262 1.363-.392 2.184-.392.411 0 .828.031 1.251.093.423.062.79.162 1.101.299v-.523c0-.622-.186-1.101-.56-1.437-.361-.336-.902-.504-1.624-.504-.535 0-1.045.093-1.53.28-.486.186-.996.46-1.531.821l-.803-1.643a8.032 8.032 0 0 1 1.979-.952 7.244 7.244 0 0 1 2.147-.317c1.393 0 2.476.349 3.248 1.045.784.697 1.176 1.693 1.176 2.987v3.117c0 .262.043.448.13.56.1.112.255.181.467.206v2.034c-.224.038-.429.069-.616.094a3.218 3.218 0 0 1-.448.037c-.498 0-.877-.112-1.139-.336a1.444 1.444 0 0 1-.466-.821l-.056-.504c-.423.547-.952.97-1.587 1.269a4.512 4.512 0 0 1-1.941.448 3.876 3.876 0 0 1-1.755-.392 3.244 3.244 0 0 1-1.213-1.101 2.999 2.999 0 0 1-.43-1.587Zm6.086.504c.137-.149.249-.299.336-.448a.827.827 0 0 0 .13-.411v-.989a4.638 4.638 0 0 0-.97-.28 4.717 4.717 0 0 0-.99-.112c-.647 0-1.182.143-1.605.429-.411.274-.616.641-.616 1.102 0 .249.068.485.205.709.137.224.336.405.598.541.261.137.572.206.933.206.373 0 .74-.069 1.101-.206.361-.149.654-.329.878-.541Zm4.708-2.501c0-.946.186-1.798.56-2.558.373-.771.89-1.381 1.549-1.829.66-.448 1.413-.672 2.259-.672.722 0 1.369.181 1.941.541a3.826 3.826 0 0 1 1.363 1.344v-5.562h2.501v10.826c0 .262.044.448.131.56.087.112.236.181.448.206v2.034c-.436.088-.79.131-1.064.131-.448 0-.822-.112-1.12-.336a1.236 1.236 0 0 1-.486-.877l-.037-.616a3.627 3.627 0 0 1-1.475 1.4 4.047 4.047 0 0 1-1.922.485 4.45 4.45 0 0 1-1.867-.392 4.663 4.663 0 0 1-1.475-1.083 5.217 5.217 0 0 1-.97-1.605 5.851 5.851 0 0 1-.336-1.997Zm7.672 1.306v-2.333a2.647 2.647 0 0 0-.598-.971 3.151 3.151 0 0 0-.914-.672 2.175 2.175 0 0 0-1.008-.261c-.386 0-.734.081-1.046.243a2.768 2.768 0 0 0-.821.653 3.08 3.08 0 0 0-.523.952 3.824 3.824 0 0 0-.168 1.139c0 .398.063.778.187 1.138a2.797 2.797 0 0 0 1.437 1.531c.336.149.697.224 1.083.224.237 0 .473-.037.709-.112.249-.087.48-.199.691-.336a2.57 2.57 0 0 0 .579-.523c.174-.211.305-.435.392-.672Zm4.359-1.306c0-.946.187-1.798.56-2.558.373-.771.89-1.381 1.549-1.829.66-.448 1.413-.672 2.259-.672.722 0 1.369.181 1.941.541a3.826 3.826 0 0 1 1.363 1.344v-5.562h2.501v10.826c0 .262.044.448.131.56.087.112.236.181.448.206v2.034c-.436.088-.79.131-1.064.131-.448 0-.821-.112-1.12-.336a1.231 1.231 0 0 1-.485-.877l-.038-.616a3.631 3.631 0 0 1-1.474 1.4 4.054 4.054 0 0 1-1.923.485 4.45 4.45 0 0 1-1.867-.392 4.648 4.648 0 0 1-1.474-1.083 5.2 5.2 0 0 1-.971-1.605 5.851 5.851 0 0 1-.336-1.997Zm7.672 1.306v-2.333a2.645 2.645 0 0 0-.597-.971 3.169 3.169 0 0 0-.915-.672 2.175 2.175 0 0 0-1.008-.261c-.386 0-.734.081-1.045.243a2.772 2.772 0 0 0-.822.653 3.057 3.057 0 0 0-.522.952 3.824 3.824 0 0 0-.168 1.139c0 .398.062.778.186 1.138a2.784 2.784 0 0 0 1.438 1.531 2.64 2.64 0 0 0 1.082.224c.237 0 .473-.037.71-.112.249-.087.479-.199.69-.336a2.57 2.57 0 0 0 .579-.523c.174-.211.305-.435.392-.672Zm10.781-4.032c-.759 0-1.438.15-2.035.448-.597.287-1.027.704-1.288 1.251v5.917h-2.501v-9.781h2.296v2.091c.348-.672.79-1.201 1.325-1.587.535-.386 1.101-.597 1.699-.635h.317a.81.81 0 0 1 .187.019v2.277Zm5.803 7.803c-.784 0-1.494-.131-2.128-.392a5.003 5.003 0 0 1-1.624-1.101 5.255 5.255 0 0 1-1.046-1.606 5.274 5.274 0 0 1-.354-1.922c0-.934.205-1.786.616-2.558a4.824 4.824 0 0 1 1.792-1.848c.784-.472 1.705-.709 2.762-.709 1.071 0 1.985.237 2.744.709a4.59 4.59 0 0 1 1.736 1.848c.411.76.616 1.581.616 2.464a6.315 6.315 0 0 1-.056.84h-7.56c.05.498.193.934.43 1.307.249.373.56.66.933.859.386.186.797.28 1.232.28.498 0 .965-.118 1.4-.355.448-.249.753-.572.915-.971l2.146.598a4.006 4.006 0 0 1-1.026 1.325 4.906 4.906 0 0 1-1.55.915 5.9 5.9 0 0 1-1.978.317Zm-2.558-5.861h5.115c-.05-.498-.193-.927-.429-1.288a2.281 2.281 0 0 0-.896-.859 2.499 2.499 0 0 0-1.251-.317 2.46 2.46 0 0 0-1.232.317 2.46 2.46 0 0 0-.896.859c-.224.361-.361.79-.411 1.288Zm12.799 5.861a6.98 6.98 0 0 1-2.389-.411 5.35 5.35 0 0 1-1.96-1.213l.896-1.624c.584.473 1.157.821 1.717 1.045.572.224 1.12.336 1.643.336.485 0 .871-.087 1.157-.261a.85.85 0 0 0 .448-.784c0-.236-.081-.417-.243-.541-.162-.137-.398-.255-.709-.355a29.55 29.55 0 0 0-1.101-.336 16.975 16.975 0 0 1-1.811-.691c-.485-.224-.853-.504-1.101-.84-.237-.348-.355-.79-.355-1.325 0-.647.162-1.201.485-1.661.336-.473.797-.84 1.382-1.102.597-.261 1.294-.392 2.09-.392.697 0 1.357.112 1.979.336.622.212 1.188.56 1.699 1.046l-1.008 1.586c-.498-.385-.971-.665-1.419-.84a3.526 3.526 0 0 0-1.363-.28c-.261 0-.51.032-.746.094a1.246 1.246 0 0 0-.56.317c-.137.137-.206.336-.206.597 0 .237.062.424.187.56.137.125.336.237.597.336.274.1.604.212.99.336a15.57 15.57 0 0 1 1.978.691c.548.237.958.529 1.232.877.274.336.411.803.411 1.4 0 .971-.355 1.73-1.064 2.278-.709.547-1.661.821-2.856.821Zm9.224 0a6.98 6.98 0 0 1-2.389-.411 5.35 5.35 0 0 1-1.96-1.213l.896-1.624c.584.473 1.157.821 1.717 1.045.572.224 1.12.336 1.643.336.485 0 .871-.087 1.157-.261a.85.85 0 0 0 .448-.784c0-.236-.081-.417-.243-.541-.162-.137-.398-.255-.709-.355a29.55 29.55 0 0 0-1.101-.336 16.975 16.975 0 0 1-1.811-.691c-.485-.224-.853-.504-1.101-.84-.237-.348-.355-.79-.355-1.325 0-.647.162-1.201.485-1.661.336-.473.797-.84 1.382-1.102.597-.261 1.294-.392 2.09-.392.697 0 1.357.112 1.979.336.622.212 1.188.56 1.699 1.046l-1.008 1.586c-.498-.385-.971-.665-1.419-.84a3.526 3.526 0 0 0-1.363-.28c-.261 0-.51.032-.746.094a1.246 1.246 0 0 0-.56.317c-.137.137-.206.336-.206.597 0 .237.062.424.187.56.137.125.336.237.597.336.274.1.604.212.99.336a15.57 15.57 0 0 1 1.978.691c.548.237.958.529 1.232.877.274.336.411.803.411 1.4 0 .971-.355 1.73-1.064 2.278-.709.547-1.661.821-2.856.821Z" fill="#FEF6F4"/><path d="M251.169 301.708H72.432c-15.15 0-27.432-12.281-27.432-27.432 0-15.151 12.282-27.432 27.432-27.432h178.737c15.15 0 27.432 12.281 27.432 27.432 0 15.151-12.282 27.432-27.432 27.432Z" fill="#E1E0DE"/><path d="M259.176 293.703H80.44c-15.15 0-27.432-12.281-27.432-27.432 0-15.151 12.282-27.432 27.432-27.432h178.736c15.151 0 27.432 12.281 27.432 27.432 0 15.151-12.281 27.432-27.432 27.432Z" fill="#110128"/><path d="M104.324 266.271c0 12.598-10.213 22.813-22.812 22.813-12.6 0-22.813-10.215-22.813-22.813 0-12.599 10.214-22.812 22.813-22.812 12.599 0 22.812 10.213 22.812 22.812Z" fill="#FEF6F4"/><path d="M81.51 268.66a4.59 4.59 0 1 1 0-9.182 4.59 4.59 0 0 1 0 9.182Zm8.514-13.327c-4.702-4.702-12.326-4.702-17.029 0-4.702 4.703-4.702 12.327 0 17.028l8.515 8.515 8.514-8.515c4.703-4.701 4.703-12.325 0-17.028Z" fill="#110128"/><path d="M130.616 271.447v-13.253h2.576v10.995h6.757v2.258h-9.333Zm15.102.187c-.796 0-1.511-.131-2.146-.392a4.854 4.854 0 0 1-1.624-1.12 5.074 5.074 0 0 1-1.008-1.624 5.263 5.263 0 0 1-.355-1.923c0-.684.118-1.331.355-1.941a5.074 5.074 0 0 1 1.008-1.624c.448-.473.989-.84 1.624-1.101.635-.274 1.35-.411 2.146-.411.797 0 1.506.137 2.129.411a4.624 4.624 0 0 1 1.623 1.101 4.69 4.69 0 0 1 1.009 1.624c.236.61.354 1.257.354 1.941 0 .672-.118 1.313-.354 1.923a4.69 4.69 0 0 1-1.009 1.624 4.65 4.65 0 0 1-1.605 1.12c-.634.261-1.35.392-2.147.392Zm-2.557-5.059c0 .573.112 1.083.336 1.531.224.435.529.778.915 1.027.386.248.821.373 1.306.373a2.33 2.33 0 0 0 1.288-.373c.386-.262.691-.61.915-1.046.237-.448.355-.958.355-1.53 0-.56-.118-1.064-.355-1.512a2.591 2.591 0 0 0-.915-1.046 2.323 2.323 0 0 0-1.288-.373c-.485 0-.92.131-1.306.392a2.588 2.588 0 0 0-.915 1.045c-.224.436-.336.94-.336 1.512Zm13.915 5.059c-.796 0-1.512-.131-2.147-.392a4.864 4.864 0 0 1-1.624-1.12 5.422 5.422 0 0 1-1.045-1.643 5.278 5.278 0 0 1-.355-1.922c0-.921.206-1.761.616-2.52a4.824 4.824 0 0 1 1.792-1.848c.772-.461 1.687-.691 2.744-.691 1.058 0 1.967.23 2.726.691.759.46 1.325 1.064 1.698 1.81l-2.445.747a2.116 2.116 0 0 0-.84-.821 2.28 2.28 0 0 0-1.157-.299c-.473 0-.909.124-1.307.373a2.46 2.46 0 0 0-.915 1.027c-.224.435-.336.946-.336 1.531 0 .572.112 1.082.336 1.53.237.436.548.784.934 1.046.386.248.815.373 1.288.373.298 0 .578-.05.84-.149.274-.1.516-.237.728-.411.211-.174.367-.373.466-.597l2.446.746a3.948 3.948 0 0 1-.99 1.307 4.72 4.72 0 0 1-1.512.915c-.572.211-1.219.317-1.941.317Zm5.31-3.08c0-.635.174-1.189.523-1.661.36-.486.858-.859 1.493-1.12.635-.262 1.363-.392 2.184-.392.411 0 .827.031 1.251.093.423.062.79.162 1.101.299v-.523c0-.622-.187-1.101-.56-1.437-.361-.336-.902-.504-1.624-.504-.535 0-1.045.093-1.531.28-.485.186-.995.46-1.53.821l-.803-1.643a8.032 8.032 0 0 1 1.979-.952 7.242 7.242 0 0 1 2.146-.317c1.394 0 2.477.348 3.248 1.045.784.697 1.176 1.693 1.176 2.987v3.117c0 .262.044.448.131.56.099.112.255.181.467.206v2.034c-.224.038-.43.069-.616.094a3.393 3.393 0 0 1-.448.037c-.498 0-.878-.112-1.139-.336a1.446 1.446 0 0 1-.467-.821l-.056-.504c-.423.547-.952.97-1.586 1.269a4.513 4.513 0 0 1-1.942.448 3.869 3.869 0 0 1-1.754-.392 3.247 3.247 0 0 1-1.214-1.101 3.007 3.007 0 0 1-.429-1.587Zm6.085.504c.137-.149.249-.299.336-.448a.829.829 0 0 0 .131-.411v-.989a4.588 4.588 0 0 0-.971-.28 4.701 4.701 0 0 0-.989-.112c-.647 0-1.182.143-1.605.429-.411.274-.616.641-.616 1.102 0 .248.068.485.205.709.137.224.336.404.597.541.262.137.573.206.934.206.373 0 .74-.069 1.101-.206.361-.149.653-.33.877-.541Zm11.076 1.885c-.212.087-.467.187-.765.299a5.532 5.532 0 0 1-.971.261 4.697 4.697 0 0 1-1.027.112c-.46 0-.883-.081-1.269-.242a2.071 2.071 0 0 1-.933-.766c-.224-.361-.336-.827-.336-1.4v-5.618h-1.288v-1.923h1.288v-3.173h2.501v3.173h2.053v1.923h-2.053v4.778c.012.336.106.579.28.728.174.15.392.224.653.224.262 0 .517-.043.766-.13.248-.088.448-.162.597-.224l.504 1.978Zm1.303.504v-9.781h2.501v9.781h-2.501Zm0-11.144v-2.482h2.501v2.482h-2.501Zm9.275 11.331c-.797 0-1.512-.131-2.147-.392a4.854 4.854 0 0 1-1.624-1.12 5.11 5.11 0 0 1-1.008-1.624 5.284 5.284 0 0 1-.355-1.923c0-.684.119-1.331.355-1.941a5.11 5.11 0 0 1 1.008-1.624c.448-.473.989-.84 1.624-1.101.635-.274 1.35-.411 2.147-.411.796 0 1.506.137 2.128.411a4.637 4.637 0 0 1 2.632 2.725c.236.61.354 1.257.354 1.941 0 .672-.118 1.313-.354 1.923a4.687 4.687 0 0 1-1.008 1.624 4.663 4.663 0 0 1-1.606 1.12c-.634.261-1.35.392-2.146.392Zm-2.558-5.059c0 .573.112 1.083.336 1.531.224.435.529.778.915 1.027.386.248.821.373 1.307.373.473 0 .902-.125 1.288-.373.386-.262.69-.61.914-1.046.237-.448.355-.958.355-1.53 0-.56-.118-1.064-.355-1.512a2.589 2.589 0 0 0-.914-1.046 2.325 2.325 0 0 0-1.288-.373c-.486 0-.921.131-1.307.392a2.588 2.588 0 0 0-.915 1.045c-.224.436-.336.94-.336 1.512Zm18.451 4.872h-2.501v-5.488c0-.784-.137-1.356-.411-1.717-.273-.361-.653-.541-1.138-.541a2.29 2.29 0 0 0-1.027.261 3.151 3.151 0 0 0-.915.728 2.751 2.751 0 0 0-.597 1.045v5.712h-2.501v-9.781h2.258v1.811a3.55 3.55 0 0 1 .952-1.064 4.028 4.028 0 0 1 1.326-.672 5.27 5.27 0 0 1 1.605-.243c.61 0 1.108.112 1.493.336.399.211.697.504.896.877.212.361.355.772.43 1.232.087.461.13.927.13 1.4v6.104Z" fill="#FEF6F4"/></g><defs><clipPath id="a"><path fill="#fff" d="M0 0h667v488H0z"/></clipPath></defs></svg>