<svg width="231" height="232" viewBox="0 0 231 232" fill="none" xmlns="http://www.w3.org/2000/svg">
<path d="M227.874 226.609C226.662 226.61 225.679 227.592 225.68 228.805C225.68 230.018 226.665 231.001 227.877 231C229.09 230.999 230.073 230.016 230.072 228.802C230.071 227.589 229.087 226.609 227.874 226.609Z" fill="black"/>
<path d="M227.827 201.436C226.615 201.437 225.632 202.419 225.633 203.632C225.634 204.845 226.618 205.827 227.83 205.827C229.043 205.826 230.026 204.842 230.025 203.629C230.024 202.416 229.04 201.435 227.827 201.436Z" fill="black"/>
<path d="M227.788 176.271C226.576 176.272 225.593 177.254 225.594 178.467C225.595 179.68 226.579 180.662 227.791 180.662C229.004 180.661 229.987 179.677 229.986 178.464C229.985 177.251 229.001 176.27 227.788 176.271Z" fill="black"/>
<path d="M227.749 151.105C226.537 151.106 225.554 152.088 225.555 153.301C225.555 154.515 226.54 155.497 227.752 155.496C228.965 155.495 229.948 154.512 229.947 153.298C229.946 152.085 228.962 151.105 227.749 151.105Z" fill="black"/>
<path d="M227.71 125.94C226.498 125.941 225.515 126.923 225.516 128.136C225.516 129.35 226.501 130.332 227.713 130.331C228.926 130.33 229.909 129.347 229.908 128.133C229.907 126.92 228.923 125.94 227.71 125.94Z" fill="black"/>
<path d="M227.679 100.775C226.467 100.776 225.484 101.758 225.484 102.971C225.485 104.184 226.47 105.167 227.681 105.166C228.894 105.165 229.877 104.182 229.876 102.968C229.876 101.755 228.892 100.775 227.679 100.775Z" fill="black"/>
<path d="M227.639 75.6099C226.428 75.6107 225.444 76.5926 225.445 77.8058C225.446 79.019 226.431 80.0012 227.642 80.0004C228.855 79.9996 229.838 79.016 229.837 77.8028C229.837 76.5896 228.852 75.6091 227.639 75.6099Z" fill="black"/>
<path d="M227.616 50.4448C226.405 50.4456 225.421 51.4275 225.422 52.6407C225.423 53.8539 226.407 54.8362 227.619 54.8354C228.832 54.8345 229.815 53.851 229.814 52.6378C229.813 51.4246 228.829 50.444 227.616 50.4448Z" fill="black"/>
<path d="M227.6 25.2798C226.389 25.2806 225.405 26.2625 225.406 27.4757C225.407 28.6889 226.392 29.6711 227.603 29.6703C228.816 29.6695 229.799 28.6859 229.798 27.4727C229.798 26.2595 228.813 25.279 227.6 25.2798Z" fill="black"/>
<path d="M227.577 0.114266C226.365 0.115078 225.382 1.09696 225.383 2.31016C225.384 3.52336 226.368 4.5056 227.58 4.50479C228.793 4.50397 229.776 3.52042 229.775 2.30721C229.774 1.09401 228.79 0.113452 227.577 0.114266Z" fill="black"/>
<path d="M202.86 226.624C201.647 226.625 200.663 227.607 200.664 228.82C200.665 230.033 201.65 231.015 202.863 231.015C204.074 231.014 205.057 230.03 205.056 228.817C205.055 227.604 204.071 226.623 202.86 226.624Z" fill="black"/>
<path d="M202.821 201.453C201.608 201.454 200.624 202.436 200.625 203.649C200.626 204.862 201.611 205.844 202.823 205.844C204.035 205.843 205.018 204.859 205.017 203.646C205.016 202.433 204.032 201.452 202.821 201.453Z" fill="black"/>
<path d="M202.781 176.288C201.569 176.289 200.585 177.271 200.586 178.484C200.587 179.697 201.572 180.679 202.784 180.679C203.996 180.678 204.979 179.694 204.978 178.481C204.977 177.268 203.993 176.287 202.781 176.288Z" fill="black"/>
<path d="M202.742 151.123C201.53 151.123 200.546 152.105 200.547 153.318C200.548 154.532 201.532 155.514 202.745 155.513C203.957 155.512 204.94 154.529 204.939 153.316C204.938 152.102 203.954 151.122 202.742 151.123Z" fill="black"/>
<path d="M202.703 125.958C201.49 125.958 200.507 126.94 200.508 128.153C200.509 129.367 201.493 130.349 202.706 130.348C203.918 130.347 204.901 129.364 204.9 128.15C204.899 126.937 203.915 125.957 202.703 125.958Z" fill="black"/>
<path d="M202.672 100.792C201.459 100.793 200.476 101.775 200.477 102.988C200.477 104.201 201.462 105.183 202.675 105.183C203.887 105.182 204.869 104.198 204.869 102.985C204.868 101.772 203.884 100.791 202.672 100.792Z" fill="black"/>
<path d="M202.633 75.627C201.42 75.6278 200.437 76.6097 200.437 77.8229C200.438 79.0361 201.423 80.0183 202.636 80.0175C203.848 80.0167 204.83 79.0331 204.83 77.8199C204.829 76.6067 203.845 75.6261 202.633 75.627Z" fill="black"/>
<path d="M202.61 50.4619C201.397 50.4627 200.413 51.4446 200.414 52.6578C200.415 53.871 201.4 54.8533 202.613 54.8524C203.824 54.8516 204.807 53.8681 204.806 52.6549C204.805 51.4417 203.821 50.4611 202.61 50.4619Z" fill="black"/>
<path d="M202.586 25.2964C201.373 25.2972 200.39 26.2791 200.391 27.4923C200.391 28.7055 201.376 29.6877 202.589 29.6869C203.801 29.6861 204.784 28.7025 204.783 27.4893C204.782 26.2761 203.798 25.2956 202.586 25.2964Z" fill="black"/>
<path d="M202.571 0.131354C201.358 0.132168 200.374 1.11405 200.375 2.32725C200.376 3.54045 201.361 4.52269 202.573 4.52188C203.785 4.52106 204.768 3.53751 204.767 2.3243C204.766 1.1111 203.782 0.130542 202.571 0.131354Z" fill="black"/>
<path d="M177.85 226.639C176.638 226.64 175.655 227.622 175.656 228.835C175.657 230.048 176.641 231.031 177.853 231.03C179.066 231.029 180.049 230.045 180.048 228.832C180.048 227.619 179.063 226.638 177.85 226.639Z" fill="black"/>
<path d="M177.811 201.47C176.599 201.471 175.616 202.453 175.617 203.666C175.618 204.879 176.602 205.862 177.814 205.861C179.027 205.86 180.01 204.876 180.009 203.663C180.008 202.45 179.024 201.469 177.811 201.47Z" fill="black"/>
<path d="M177.764 176.305C176.552 176.306 175.569 177.287 175.57 178.501C175.571 179.714 176.555 180.696 177.767 180.695C178.98 180.694 179.963 179.711 179.962 178.498C179.962 177.284 178.977 176.304 177.764 176.305Z" fill="black"/>
<path d="M177.725 151.14C176.513 151.14 175.53 152.122 175.531 153.336C175.532 154.549 176.516 155.531 177.728 155.53C178.941 155.529 179.924 154.546 179.923 153.333C179.923 152.119 178.938 151.139 177.725 151.14Z" fill="black"/>
<path d="M177.686 125.975C176.474 125.975 175.491 126.957 175.492 128.171C175.493 129.384 176.477 130.366 177.689 130.365C178.902 130.364 179.885 129.381 179.884 128.168C179.883 126.954 178.899 125.974 177.686 125.975Z" fill="black"/>
<path d="M177.654 100.809C176.443 100.81 175.46 101.792 175.461 103.005C175.462 104.218 176.446 105.2 177.657 105.2C178.87 105.199 179.854 104.215 179.853 103.002C179.852 101.789 178.867 100.808 177.654 100.809Z" fill="black"/>
<path d="M177.615 75.6436C176.404 75.6444 175.421 76.6263 175.422 77.8395C175.423 79.0527 176.407 80.0349 177.618 80.0341C178.831 80.0333 179.815 79.0497 179.814 77.8365C179.813 76.6233 178.828 75.6427 177.615 75.6436Z" fill="black"/>
<path d="M177.6 50.478C176.388 50.4788 175.405 51.4607 175.406 52.6739C175.407 53.8871 176.391 54.8694 177.603 54.8686C178.816 54.8677 179.799 53.8842 179.798 52.671C179.798 51.4578 178.813 50.4772 177.6 50.478Z" fill="black"/>
<path d="M177.576 25.313C176.365 25.3138 175.382 26.2957 175.383 27.5089C175.384 28.7221 176.368 29.7043 177.579 29.7035C178.792 29.7027 179.776 28.7191 179.775 27.5059C179.774 26.2927 178.789 25.3122 177.576 25.313Z" fill="black"/>
<path d="M177.553 0.148446C176.341 0.149258 175.359 1.13114 175.359 2.34434C175.36 3.55754 176.344 4.53978 177.556 4.53897C178.769 4.53815 179.752 3.5546 179.751 2.34139C179.751 1.12819 178.766 0.147632 177.553 0.148446Z" fill="black"/>
<path d="M152.835 226.654C151.623 226.655 150.64 227.637 150.641 228.85C150.641 230.063 151.626 231.046 152.838 231.045C154.05 231.044 155.034 230.06 155.033 228.847C155.032 227.634 154.047 226.653 152.835 226.654Z" fill="black"/>
<path d="M152.796 201.486C151.584 201.487 150.601 202.469 150.602 203.682C150.602 204.895 151.586 205.878 152.799 205.877C154.011 205.876 154.994 204.892 154.994 203.679C154.993 202.466 154.008 201.486 152.796 201.486Z" fill="black"/>
<path d="M152.757 176.321C151.544 176.322 150.562 177.304 150.562 178.517C150.563 179.73 151.547 180.713 152.76 180.712C153.972 180.711 154.955 179.727 154.955 178.514C154.954 177.301 153.969 176.32 152.757 176.321Z" fill="black"/>
<path d="M152.718 151.156C151.505 151.157 150.523 152.138 150.523 153.352C150.524 154.565 151.508 155.547 152.721 155.546C153.933 155.545 154.916 154.562 154.916 153.349C154.915 152.136 153.93 151.155 152.718 151.156Z" fill="black"/>
<path d="M152.679 125.991C151.466 125.992 150.484 126.973 150.484 128.187C150.485 129.4 151.469 130.382 152.682 130.381C153.894 130.38 154.877 129.397 154.876 128.184C154.876 126.97 153.891 125.99 152.679 125.991Z" fill="black"/>
<path d="M152.648 100.826C151.435 100.827 150.452 101.808 150.453 103.022C150.454 104.235 151.438 105.217 152.651 105.216C153.863 105.215 154.846 104.232 154.845 103.019C154.844 101.805 153.86 100.825 152.648 100.826Z" fill="black"/>
<path d="M152.609 75.6602C151.396 75.661 150.413 76.6429 150.414 77.8561C150.415 79.0693 151.399 80.0515 152.612 80.0507C153.823 80.0499 154.807 79.0663 154.806 77.8531C154.805 76.6399 153.821 75.6594 152.609 75.6602Z" fill="black"/>
<path d="M152.585 50.4951C151.373 50.4959 150.39 51.4778 150.391 52.691C150.391 53.9042 151.376 54.8865 152.588 54.8856C153.8 54.8848 154.784 53.9013 154.783 52.6881C154.782 51.4749 153.797 50.4943 152.585 50.4951Z" fill="black"/>
<path d="M152.57 25.3301C151.357 25.3309 150.374 26.3128 150.375 27.526C150.376 28.7392 151.36 29.7214 152.573 29.7206C153.784 29.7198 154.768 28.7362 154.767 27.523C154.766 26.3098 153.781 25.3293 152.57 25.3301Z" fill="black"/>
<path d="M152.546 0.164558C151.334 0.165371 150.351 1.14725 150.352 2.36045C150.352 3.57366 151.336 4.55589 152.549 4.55508C153.761 4.55427 154.744 3.57071 154.744 2.35751C154.743 1.14431 153.758 0.163746 152.546 0.164558Z" fill="black"/>
<path d="M127.818 226.67C126.606 226.671 125.623 227.653 125.624 228.866C125.624 230.079 126.609 231.061 127.821 231.06C129.035 231.06 130.018 230.076 130.017 228.863C130.016 227.65 129.032 226.669 127.818 226.67Z" fill="black"/>
<path d="M127.779 201.503C126.567 201.504 125.584 202.486 125.585 203.699C125.585 204.913 126.569 205.895 127.782 205.894C128.996 205.893 129.979 204.91 129.978 203.696C129.977 202.483 128.993 201.503 127.779 201.503Z" fill="black"/>
<path d="M127.748 176.338C126.535 176.339 125.552 177.321 125.553 178.534C125.554 179.747 126.538 180.73 127.751 180.729C128.965 180.728 129.948 179.745 129.947 178.531C129.946 177.318 128.962 176.338 127.748 176.338Z" fill="black"/>
<path d="M127.693 151.173C126.481 151.174 125.498 152.156 125.499 153.369C125.499 154.582 126.484 155.564 127.696 155.563C128.91 155.563 129.893 154.579 129.892 153.366C129.891 152.153 128.907 151.172 127.693 151.173Z" fill="black"/>
<path d="M127.654 126.008C126.442 126.009 125.459 126.991 125.46 128.204C125.46 129.417 126.444 130.399 127.657 130.398C128.871 130.398 129.854 129.414 129.853 128.201C129.852 126.988 128.868 126.007 127.654 126.008Z" fill="black"/>
<path d="M127.623 100.843C126.41 100.844 125.427 101.825 125.428 103.039C125.429 104.252 126.413 105.234 127.626 105.233C128.84 105.232 129.823 104.249 129.822 103.036C129.821 101.823 128.837 100.842 127.623 100.843Z" fill="black"/>
<path d="M127.584 75.6773C126.371 75.6781 125.388 76.6599 125.389 77.8731C125.39 79.0864 126.374 80.0686 127.587 80.0678C128.801 80.067 129.784 79.0834 129.783 77.8702C129.782 76.657 128.798 75.6764 127.584 75.6773Z" fill="black"/>
<path d="M127.561 50.5122C126.348 50.513 125.365 51.4949 125.366 52.7081C125.367 53.9213 126.351 54.9036 127.564 54.9027C128.777 54.9019 129.76 53.9184 129.759 52.7052C129.758 51.492 128.774 50.5114 127.561 50.5122Z" fill="black"/>
<path d="M127.545 25.3472C126.332 25.348 125.349 26.3299 125.35 27.5431C125.351 28.7563 126.335 29.7385 127.548 29.7377C128.762 29.7369 129.744 28.7533 129.744 27.5401C129.743 26.3269 128.759 25.3464 127.545 25.3472Z" fill="black"/>
<path d="M127.522 0.181649C126.309 0.182462 125.326 1.16434 125.327 2.37754C125.328 3.59075 126.312 4.57298 127.525 4.57217C128.738 4.57136 129.721 3.5878 129.72 2.3746C129.719 1.1614 128.735 0.180835 127.522 0.181649Z" fill="black"/>
<path d="M102.804 226.685C101.592 226.686 100.609 227.668 100.609 228.881C100.61 230.094 101.595 231.076 102.806 231.076C104.019 231.075 105.002 230.091 105.001 228.878C105.001 227.665 104.017 226.684 102.804 226.685Z" fill="black"/>
<path d="M102.764 201.52C101.553 201.521 100.569 202.503 100.57 203.716C100.571 204.929 101.556 205.911 102.767 205.911C103.98 205.91 104.963 204.926 104.962 203.713C104.962 202.5 103.977 201.519 102.764 201.52Z" fill="black"/>
<path d="M102.725 176.354C101.514 176.355 100.53 177.337 100.531 178.55C100.532 179.764 101.517 180.746 102.728 180.745C103.941 180.744 104.924 179.761 104.923 178.547C104.923 177.334 103.938 176.354 102.725 176.354Z" fill="black"/>
<path d="M102.686 151.189C101.475 151.19 100.491 152.172 100.492 153.385C100.493 154.599 101.478 155.581 102.689 155.58C103.902 155.579 104.885 154.596 104.884 153.382C104.883 152.169 103.899 151.189 102.686 151.189Z" fill="black"/>
<path d="M102.647 126.024C101.436 126.025 100.452 127.007 100.453 128.22C100.454 129.433 101.439 130.415 102.65 130.414C103.863 130.414 104.846 129.43 104.845 128.217C104.844 127.004 103.86 126.023 102.647 126.024Z" fill="black"/>
<path d="M102.616 100.859C101.405 100.86 100.421 101.842 100.422 103.055C100.423 104.268 101.407 105.25 102.619 105.249C103.832 105.249 104.815 104.265 104.814 103.052C104.813 101.839 103.829 100.858 102.616 100.859Z" fill="black"/>
<path d="M102.577 75.6939C101.365 75.6947 100.382 76.6765 100.383 77.8897C100.384 79.103 101.368 80.0852 102.58 80.0844C103.793 80.0836 104.776 79.1 104.775 77.8868C104.774 76.6736 103.79 75.693 102.577 75.6939Z" fill="black"/>
<path d="M102.554 50.5283C101.342 50.5291 100.359 51.511 100.359 52.7242C100.36 53.9374 101.345 54.9197 102.556 54.9189C103.769 54.918 104.752 53.9345 104.751 52.7213C104.751 51.5081 103.767 50.5275 102.554 50.5283Z" fill="black"/>
<path d="M102.53 25.3633C101.319 25.3641 100.335 26.346 100.336 27.5592C100.337 28.7724 101.322 29.7546 102.533 29.7538C103.746 29.753 104.729 28.7694 104.728 27.5562C104.727 26.343 103.743 25.3625 102.53 25.3633Z" fill="black"/>
<path d="M102.514 0.19825C101.303 0.199062 100.319 1.18094 100.32 2.39414C100.321 3.60735 101.306 4.58958 102.517 4.58877C103.73 4.58796 104.713 3.6044 104.712 2.3912C104.712 1.178 103.727 0.197437 102.514 0.19825Z" fill="black"/>
<path d="M77.7971 226.701C76.5842 226.702 75.6007 227.683 75.6016 228.897C75.6024 230.11 76.5872 231.092 77.8 231.091C79.0117 231.09 79.9945 230.107 79.9937 228.894C79.9928 227.68 79.0087 226.7 77.7971 226.701Z" fill="black"/>
<path d="M77.758 201.537C76.5452 201.537 75.5617 202.519 75.5625 203.733C75.5633 204.946 76.5481 205.928 77.761 205.927C78.9726 205.926 79.9554 204.943 79.9546 203.73C79.9538 202.516 78.9697 201.536 77.758 201.537Z" fill="black"/>
<path d="M77.7189 176.372C76.5061 176.372 75.5226 177.354 75.5234 178.567C75.5242 179.781 76.509 180.763 77.7219 180.762C78.9335 180.761 79.9163 179.778 79.9155 178.565C79.9147 177.351 78.9306 176.371 77.7189 176.372Z" fill="black"/>
<path d="M77.6721 151.207C76.4592 151.207 75.4757 152.189 75.4766 153.402C75.4774 154.616 76.4622 155.598 77.675 155.597C78.8867 155.596 79.8695 154.613 79.8687 153.4C79.8678 152.186 78.8837 151.206 77.6721 151.207Z" fill="black"/>
<path d="M77.633 126.041C76.4202 126.042 75.4367 127.024 75.4375 128.237C75.4383 129.45 76.4231 130.432 77.636 130.432C78.8476 130.431 79.8304 129.447 79.8296 128.234C79.8288 127.021 78.8447 126.04 77.633 126.041Z" fill="black"/>
<path d="M77.6018 100.876C76.3889 100.877 75.4054 101.859 75.4062 103.072C75.4071 104.285 76.3918 105.267 77.6047 105.267C78.8164 105.266 79.7992 104.282 79.7983 103.069C79.7975 101.856 78.8134 100.875 77.6018 100.876Z" fill="black"/>
<path d="M77.5627 75.7109C76.3498 75.7118 75.3664 76.6936 75.3672 77.9068C75.368 79.12 76.3528 80.1023 77.5656 80.1015C78.7773 80.1007 79.7601 79.1171 79.7593 77.9039C79.7585 76.6907 78.7744 75.7101 77.5627 75.7109Z" fill="black"/>
<path d="M77.5471 50.5454C76.3342 50.5462 75.3507 51.5281 75.3516 52.7413C75.3524 53.9545 76.3372 54.9368 77.55 54.9359C78.7617 54.9351 79.7445 53.9516 79.7437 52.7384C79.7428 51.5252 78.7587 50.5446 77.5471 50.5454Z" fill="black"/>
<path d="M77.5236 25.3804C76.3108 25.3812 75.3273 26.3631 75.3281 27.5763C75.3289 28.7895 76.3137 29.7717 77.5266 29.7709C78.7382 29.7701 79.721 28.7865 79.7202 27.5733C79.7194 26.3601 78.7353 25.3796 77.5236 25.3804Z" fill="black"/>
<path d="M77.5002 0.214851C76.2873 0.215664 75.3039 1.19754 75.3047 2.41075C75.3055 3.62395 76.2903 4.60619 77.5031 4.60537C78.7148 4.60456 79.6976 3.621 79.6968 2.4078C79.696 1.1946 78.7119 0.214038 77.5002 0.214851Z" fill="black"/>
<path d="M52.7726 226.717C51.5611 226.718 50.5771 227.7 50.578 228.913C50.5788 230.126 51.5641 231.109 52.7756 231.108C53.9888 231.107 54.971 230.123 54.9702 228.91C54.9694 227.697 53.9858 226.716 52.7726 226.717Z" fill="black"/>
<path d="M52.7335 201.554C51.5221 201.555 50.5381 202.536 50.5389 203.75C50.5397 204.963 51.525 205.945 52.7365 205.944C53.9497 205.943 54.932 204.96 54.9312 203.747C54.9303 202.533 53.9467 201.553 52.7335 201.554Z" fill="black"/>
<path d="M52.6945 176.389C51.483 176.389 50.499 177.371 50.4998 178.585C50.5006 179.798 51.4859 180.78 52.6974 180.779C53.9106 180.778 54.8929 179.795 54.8921 178.582C54.8913 177.368 53.9077 176.388 52.6945 176.389Z" fill="black"/>
<path d="M52.6554 151.223C51.4439 151.224 50.46 152.206 50.4608 153.419C50.4616 154.632 51.4469 155.614 52.6584 155.614C53.8716 155.613 54.8538 154.629 54.853 153.416C54.8522 152.203 53.8686 151.222 52.6554 151.223Z" fill="black"/>
<path d="M52.6164 126.058C51.4049 126.059 50.4209 127.041 50.4217 128.254C50.4225 129.467 51.4078 130.449 52.6193 130.449C53.8325 130.448 54.8148 129.464 54.814 128.251C54.8132 127.038 53.8296 126.057 52.6164 126.058Z" fill="black"/>
<path d="M52.5851 100.893C51.3736 100.894 50.3896 101.876 50.3905 103.089C50.3913 104.302 51.3766 105.284 52.5881 105.284C53.8013 105.283 54.7835 104.299 54.7827 103.086C54.7819 101.873 53.7983 100.892 52.5851 100.893Z" fill="black"/>
<path d="M52.546 75.7275C51.3346 75.7284 50.3506 76.7102 50.3514 77.9234C50.3522 79.1366 51.3375 80.1189 52.549 80.1181C53.7622 80.1173 54.7445 79.1337 54.7437 77.9205C54.7428 76.7073 53.7592 75.7267 52.546 75.7275Z" fill="black"/>
<path d="M52.5226 50.5625C51.3111 50.5633 50.3271 51.5452 50.328 52.7584C50.3288 53.9716 51.3141 54.9538 52.5256 54.953C53.7388 54.9522 54.721 53.9687 54.7202 52.7555C54.7194 51.5423 53.7358 50.5617 52.5226 50.5625Z" fill="black"/>
<path d="M52.4992 25.3975C51.2877 25.3983 50.3037 26.3802 50.3045 27.5934C50.3053 28.8066 51.2906 29.7888 52.5021 29.788C53.7153 29.7872 54.6976 28.8036 54.6968 27.5904C54.696 26.3772 53.7124 25.3967 52.4992 25.3975Z" fill="black"/>
<path d="M52.4835 0.231941C51.2721 0.232753 50.2881 1.21463 50.2889 2.42784C50.2897 3.64104 51.275 4.62328 52.4865 4.62246C53.6997 4.62165 54.682 3.63809 54.6812 2.42489C54.6803 1.21169 53.6967 0.231128 52.4835 0.231941Z" fill="black"/>
<path d="M27.7492 226.733C26.536 226.734 25.5537 227.716 25.5545 228.929C25.5553 230.142 26.5389 231.124 27.7521 231.123C28.9636 231.123 29.9476 230.139 29.9468 228.926C29.946 227.713 28.9607 226.732 27.7492 226.733Z" fill="black"/>
<path d="M27.7101 201.57C26.4969 201.571 25.5146 202.553 25.5155 203.766C25.5163 204.979 26.4998 205.962 27.7131 205.961C28.9245 205.96 29.9085 204.976 29.9077 203.763C29.9069 202.55 28.9216 201.57 27.7101 201.57Z" fill="black"/>
<path d="M27.671 176.405C26.4578 176.406 25.4756 177.387 25.4764 178.601C25.4772 179.814 26.4608 180.796 27.674 180.795C28.8855 180.795 29.8695 179.811 29.8687 178.598C29.8678 177.385 28.8825 176.404 27.671 176.405Z" fill="black"/>
<path d="M27.632 151.24C26.4188 151.241 25.4365 152.222 25.4373 153.436C25.4381 154.649 26.4217 155.631 27.6349 155.63C28.8464 155.629 29.8304 154.646 29.8296 153.433C29.8288 152.22 28.8435 151.239 27.632 151.24Z" fill="black"/>
<path d="M27.5929 126.075C26.3797 126.076 25.3975 127.057 25.3983 128.271C25.3991 129.484 26.3827 130.466 27.5959 130.465C28.8073 130.464 29.7913 129.481 29.7905 128.268C29.7897 127.054 28.8044 126.074 27.5929 126.075Z" fill="black"/>
<path d="M27.5617 100.909C26.3485 100.91 25.3662 101.892 25.367 103.105C25.3678 104.318 26.3514 105.301 27.5646 105.3C28.7761 105.299 29.7601 104.315 29.7593 103.102C29.7585 101.889 28.7732 100.908 27.5617 100.909Z" fill="black"/>
<path d="M27.5226 75.7441C26.3094 75.745 25.3271 76.7268 25.328 77.94C25.3288 79.1532 26.3123 80.1355 27.5256 80.1347C28.737 80.1339 29.721 79.1503 29.7202 77.9371C29.7194 76.7239 28.7341 75.7433 27.5226 75.7441Z" fill="black"/>
<path d="M27.4992 50.5786C26.286 50.5794 25.3037 51.5613 25.3045 52.7745C25.3053 53.9877 26.2889 54.97 27.5021 54.9691C28.7136 54.9683 29.6976 53.9848 29.6968 52.7716C29.696 51.5584 28.7107 50.5778 27.4992 50.5786Z" fill="black"/>
<path d="M27.4835 25.4136C26.2703 25.4144 25.2881 26.3963 25.2889 27.6095C25.2897 28.8227 26.2733 29.8049 27.4865 29.8041C28.698 29.8033 29.682 28.8197 29.6812 27.6065C29.6803 26.3933 28.695 25.4128 27.4835 25.4136Z" fill="black"/>
<path d="M27.4601 0.248543C26.2469 0.249356 25.2646 1.23123 25.2655 2.44444C25.2663 3.65764 26.2498 4.63988 27.4631 4.63907C28.6745 4.63825 29.6585 3.65469 29.6577 2.44149C29.6569 1.22829 28.6716 0.24773 27.4601 0.248543Z" fill="black"/>
<path d="M2.73355 226.75C1.52034 226.751 0.538082 227.733 0.538895 228.946C0.539709 230.159 1.52329 231.141 2.73649 231.141C3.94969 231.14 4.93197 230.156 4.93116 228.943C4.93035 227.73 3.94675 226.749 2.73355 226.75Z" fill="black"/>
<path d="M2.67886 201.587C1.46566 201.588 0.483395 202.57 0.484208 203.783C0.485021 204.996 1.4686 205.978 2.6818 205.977C3.895 205.977 4.87728 204.993 4.87647 203.78C4.87566 202.567 3.89206 201.586 2.67886 201.587Z" fill="black"/>
<path d="M2.66323 176.422C1.45003 176.423 0.46777 177.405 0.468583 178.618C0.469396 179.831 1.45297 180.813 2.66618 180.812C3.87938 180.812 4.86166 179.828 4.86085 178.615C4.86003 177.402 3.87644 176.421 2.66323 176.422Z" fill="black"/>
<path d="M2.60855 151.257C1.39534 151.258 0.413082 152.24 0.413895 153.453C0.414709 154.666 1.39829 155.648 2.61149 155.647C3.82469 155.647 4.80697 154.663 4.80616 153.45C4.80535 152.237 3.82175 151.256 2.60855 151.257Z" fill="black"/>
<path d="M2.56948 126.091C1.35628 126.092 0.37402 127.074 0.374833 128.287C0.375646 129.5 1.35922 130.483 2.57243 130.482C3.78563 130.481 4.76791 129.497 4.7671 128.284C4.76628 127.071 3.78269 126.091 2.56948 126.091Z" fill="black"/>
<path d="M2.53823 100.926C1.32503 100.927 0.34277 101.909 0.343583 103.122C0.344396 104.335 1.32797 105.318 2.54118 105.317C3.75438 105.316 4.73666 104.332 4.73585 103.119C4.73503 101.906 3.75144 100.925 2.53823 100.926Z" fill="black"/>
<path d="M2.49917 75.7612C1.28597 75.7621 0.303707 76.7439 0.30452 77.9571C0.305334 79.1703 1.28891 80.1526 2.50211 80.1518C3.71532 80.1509 4.6976 79.1674 4.69678 77.9542C4.69597 76.741 3.71237 75.7604 2.49917 75.7612Z" fill="black"/>
<path d="M2.48355 50.5957C1.27034 50.5965 0.288082 51.5784 0.288895 52.7916C0.289709 54.0048 1.27329 54.987 2.48649 54.9862C3.69969 54.9854 4.68197 54.0019 4.68116 52.7887C4.68035 51.5755 3.69675 50.5949 2.48355 50.5957Z" fill="black"/>
<path d="M2.46011 25.4307C1.24691 25.4315 0.264645 26.4134 0.265458 27.6266C0.266271 28.8398 1.24985 29.822 2.46305 29.8212C3.67625 29.8204 4.65853 28.8368 4.65772 27.6236C4.65691 26.4104 3.67331 25.4299 2.46011 25.4307Z" fill="black"/>
<path d="M2.43667 0.265633C1.22347 0.266446 0.241207 1.24832 0.24202 2.46153C0.242834 3.67473 1.22641 4.65697 2.43961 4.65615C3.65282 4.65534 4.6351 3.67178 4.63428 2.45858C4.63347 1.24538 3.64987 0.264819 2.43667 0.265633Z" fill="black"/>
</svg>
