<svg width="154" height="47" fill="none" xmlns="http://www.w3.org/2000/svg"><path d="M30.865 25.06c.008.88-.28 1.397-1.042 1.83-3.22 1.839-6.407 3.744-9.614 5.605-1.3.757-1.694.529-1.7-.975-.014-3.75-.028-7.499.012-11.25.011-.881-.265-1.412-1.04-1.83-1.529-.925-3.37-2.05-5.173-3.12 0-4.252-.003-8.192 0-12.13.002-1.895.33-2.083 1.967-1.125 5.134 2.999 10.257 6.021 15.405 8.991.84.485 1.208 1.016 1.19 2.032-.06 3.992-.045 7.98-.005 11.972ZM12.37 17.19c-.003 8.51 0 17.018-.006 25.53 0 2.026-.27 2.187-1.982 1.16-3.1-1.859-6.18-3.758-9.3-5.58C.273 37.828 0 37.277 0 36.345c.031-8.702.017-17.405.023-26.107 0-1.706.327-1.89 1.82-1.022 3.405 1.975 6.8 3.966 10.464 6.105.017.413.065 1.374.063 1.87ZM57.965 23.884c1.517.346 2.707 1.061 3.57 2.146.876 1.073 1.314 2.51 1.314 4.311 0 2.676-1.036 4.68-3.108 6.012-2.06 1.332-5.31 1.998-9.75 1.998-1.06 0-2.269-.055-3.625-.166a48.827 48.827 0 0 1-3.663-.425V11.138a34.875 34.875 0 0 1 3.996-.629 37.73 37.73 0 0 1 4.162-.24c2.565 0 4.668.27 6.309.813 1.652.53 2.88 1.357 3.681 2.48.814 1.122 1.221 2.571 1.221 4.347 0 1.418-.364 2.67-1.091 3.756-.728 1.073-1.733 1.813-3.016 2.22Zm-6.068-8.676c-.9 0-1.88.08-2.941.24v6.013h2.793c1.073 0 1.918-.105 2.535-.314.629-.223 1.073-.555 1.332-1 .27-.456.407-1.054.407-1.794 0-1.122-.315-1.924-.944-2.405-.629-.493-1.69-.74-3.182-.74Zm-.11 18.186c1.232 0 2.213-.118 2.94-.352.728-.234 1.252-.598 1.573-1.091.333-.494.5-1.154.5-1.98 0-1.172-.364-2.023-1.092-2.553-.715-.543-1.862-.814-3.44-.814h-3.312v6.66c1.036.086 1.98.13 2.83.13ZM65.063 38V8.104h6.327V38h-6.327Zm17.605.389c-2.862 0-5.045-.852-6.55-2.553-1.504-1.715-2.256-4.336-2.256-7.863 0-3.589.752-6.253 2.257-7.992 1.504-1.739 3.687-2.609 6.549-2.609 2.849 0 5.032.882 6.549 2.646 1.517 1.764 2.275 4.397 2.275 7.9 0 3.54-.758 6.172-2.275 7.899-1.505 1.714-3.688 2.572-6.55 2.572Zm0-4.681c.555 0 .999-.148 1.332-.444.333-.308.585-.876.758-1.702.173-.826.26-2.017.26-3.57 0-1.591-.093-2.819-.278-3.682-.173-.863-.432-1.45-.777-1.758-.333-.32-.765-.48-1.295-.48-.53 0-.968.16-1.314.48-.333.309-.592.889-.777 1.74-.172.838-.259 2.04-.259 3.607 0 1.591.087 2.806.26 3.645.172.838.425 1.412.758 1.72.333.296.777.444 1.332.444Zm18.009 12.802c-.9 0-1.863-.055-2.886-.166a21.454 21.454 0 0 1-2.813-.482V40.83c1.74.47 3.448.703 5.125.703 1.566 0 2.72-.345 3.46-1.035.752-.679 1.128-1.826 1.128-3.441v-1.221h-.314a4.484 4.484 0 0 1-1.665 1.757c-.703.407-1.524.61-2.461.61-1.184 0-2.282-.351-3.293-1.054-1.011-.703-1.832-1.8-2.46-3.293-.63-1.505-.944-3.38-.944-5.624 0-3.577.845-6.278 2.534-8.103 1.703-1.825 4.354-2.744 7.956-2.757 1.184 0 2.392.1 3.626.297 1.245.197 2.361.48 3.348.85v17.428c0 3.687-.851 6.37-2.553 8.047-1.702 1.677-4.298 2.516-7.788 2.516Zm2.331-13.542c.308 0 .61-.05.906-.148.308-.111.567-.259.777-.444V22.312a8.53 8.53 0 0 0-1.221-.111c-.765 0-1.4.166-1.905.5-.506.32-.895.881-1.166 1.683-.259.802-.388 1.893-.388 3.274 0 1.406.111 2.498.333 3.275.222.765.548 1.295.98 1.591.432.296.993.444 1.684.444ZM114.24 38V17.706h6.364V38h-6.364Zm3.182-22.773c-1.307 0-2.281-.296-2.923-.889-.641-.604-.962-1.467-.962-2.59 0-1.11.321-1.967.962-2.571.642-.604 1.616-.906 2.923-.906 1.308 0 2.282.302 2.923.906.654.604.981 1.462.981 2.572 0 1.122-.327 1.985-.981 2.59-.641.591-1.615.887-2.923.887Zm17.438-2.387c-1.258 0-2.164.247-2.719.74-.543.493-.814 1.277-.814 2.35v1.776h4.44v4.939h-4.44V38h-6.235V22.645h-2.738v-4.94h2.738v-1.368c0-2.763.74-4.884 2.22-6.364 1.48-1.493 3.669-2.239 6.568-2.239.949 0 1.831.074 2.645.222v5.013c-.74-.086-1.295-.129-1.665-.129Zm12.217 4.866h6.253l-7.733 28.434h-6.179l2.239-8.14h-2.035l-5.513-20.294h6.512l3.2 14.189 3.256-14.19Z" fill="#000"/></svg>