<svg width="697" height="106" fill="none" xmlns="http://www.w3.org/2000/svg"><path d="M179.277 36.713c-.42-.265.31-.421.18-.666-.72-.234-1.509-.109-2.239-.046-4.707.384-9.464.676-14.081 1.253-2.638.333-5.127.39-7.805.312-2.378-.068-4.867.25-7.195.588-5.797.847-11.583 1.68-17.499 2.314-6.696.718-13.432 1.295-20.167 1.899-2.519.223-4.927.645-7.536.733-2.668.094-5.326-.037-8.014.114-3.968.224-7.746.843-11.613 1.238-1.5.151-3.018.115-4.507.38-6.236 1.123-12.512 2.158-19.038 2.798-3.008.291-5.976.811-9.044.863-1.65.032-3.388.177-4.977-.02-1.38-.167-2.349.322-3.488.426-1.53.135-2.808-.161-4.197-.104-1.83.078-3.678.083-5.507.088-6.456.026-12.872.344-19.308.505-3.258.083-6.566.218-9.844-.094-.729-.067-1.309-.213-2.398-.67 9.954-1.062 19.168-2.513 28.382-3.99l-.15-.343c-.66-.02-1.319-.042-2.198-.068.72-.535 1.998-.634 2.368-1.201-.76-.224-1.529 0-2.279-.203 2.969-.317 5.987-.546 8.895-.978 4.907-.728 9.954-1.238 14.5-2.548 1.26-.364 2.629-.64 4.198-.635 1.959.01 3.618-.63 5.497-.884 5.106-.697 10.123-1.56 15.31-2.138 5.886-.65 11.693-1.482 17.509-2.293 4.937-.687 10.013-1.072 14.94-1.763 7.136-.999 14.411-1.649 21.586-2.544.62-.078 1.29-.052 1.929-.12.87-.093 1.839-.14 1.979-.894-1.989 0-3.788.4-5.596.609-7.306.842-14.731 1.331-22.076 2.049-8.095.796-16.19 1.623-24.235 2.564-1.25.146-1.789-.38-2.998-.25-4.227.453-8.155 1.415-12.392 1.816-4.088.384-8.075.988-12.142 1.42-2.359.249-4.858.135-7.026.514-4.577.801-9.384 1.046-13.951 1.826-.13.02-.31-.047-.8-.13 2.978-.557 5.757-.895 8.445-1.358 3.058-.525 6.406-.619 9.254-1.31 7.885-1.914 16.45-2.554 24.684-3.781 12.583-1.873 25.344-3.397 38.086-4.941 9.994-1.212 20.037-2.263 30.091-3.308 9.944-1.035 19.947-1.909 29.921-2.85 9.324-.88 18.628-1.795 27.972-2.622 6.916-.613 13.882-1.04 20.787-1.685 6.336-.593 12.752-.874 19.088-1.524 4.527-.468 9.174-.64 13.752-1.024 5.076-.432 10.183-.786 15.28-1.176 5.796-.442 11.583-.905 17.379-1.32 9.584-.693 19.178-1.364 28.772-2.024a6497.42 6497.42 0 0 1 24.874-1.66c9.364-.603 18.728-1.216 28.102-1.747 8.505-.478 17.029-.811 25.534-1.3 3.018-.172 6.026-.203 9.054-.739 3.098-.546 6.616-.473 9.964-.629 8.495-.395 16.989-.775 25.484-1.139 2.578-.11 5.157-.156 7.735-.234 5.207-.15 10.413-.328 15.62-.447 4.167-.099 8.335-.135 12.502-.203 4.817-.078 9.644-.198 14.461-.224 7.016-.047 14.021-.312 21.047-.135 2.498.062 5.026-.099 7.515.016 5.836.265 11.702-.047 17.549.296 3.448.203 6.965.083 10.453.291 3.138.182 6.326.416 9.464.318 5.027-.162 9.984.234 14.941.395 3.028.099 6.126.359 9.184.525 9.804.53 19.548 1.363 29.381 1.753 1.469.057 2.968.135 4.408.291 1.798.198 3.337.146 5.176-.145 1.889-.297 4.178.046 6.276.176 4.228.26 8.435.593 12.662.843 1.329.078 2.609.385 4.098.27.339-.847-.67-1.685-.27-2.517.35-.036.39.052.41.151.539 2.216 1.429 2.61 5.786 2.98 4.397.375 8.844.5 13.212.988 7.505.833 15.02 1.634 22.535 2.455.36.042.87.13.99.27.869 1.036 2.738 1.005 4.237.864 1.879-.177 2.448.219 2.818 1.01.12.249.45.478.77.81-2.978.921-6.196 1.332-9.434.874-3.878-.551-7.835-.665-11.753-1.004-3.358-.286-6.766-.525-10.123-.598-2.679-.057-5.717-.135-8.145.905-1.11.479-2.529.63-4.228.65.71.437 1.809.219 2.239.614-2.568 1.207-5.706.76-8.545.609-2.268-.12-4.567-.36-6.855-.51-7.286-.479-14.621.224-21.916-.328 1.329.598 1.349.536 2.558.666 5.476.588 11.133.52 16.579 1.108 6.776.733 13.602 1.108 20.487 1.363 2.479.093 4.887.696 7.366.81 3.338.152 6.586.599 10.053.443 3.758-.172 7.346.63 10.874 1.3 1.029.198 2.038.453 3.108.562 1.529.161 2.508.608 3.647 1.154 2.009.963 4.108 1.93 6.566 2.611.91.25 1.559.562 1.789 1.16-1.729.338-3.378.094-4.747-.208-4.477-.993-9.274-1.425-13.841-2.247-.91-.16-1.749.068-2.359.318-4.227 1.721-8.554 1.472-12.802.145-2.488-.775-5.136-.775-7.825-.873-4.017-.151-8.035-.36-12.052-.49-3.348-.109-6.586-.561-9.904-.743-.949-.052-1.729-.291-2.508-.51-1.899-.525-3.988-.447-6.006-.593-4.308-.312-8.215-1.357-12.442-1.815-1.779-.192-3.538-.624-5.647-.286 5.167.978 10.154 1.945 15.071 3.022 5.046 1.108 8.194 3.552 13.701 4.738-3.118.832-6.486-.11-8.625 1.071-.689-.13-.839-.353-.859-.53-.15-2.195-3.288-2.944-6.466-3.755-5.427-1.394-11.263-2.226-16.759-3.506-1.3-.301-2.749-.088-4.038-.426-.59-.156-.949.166-1.089.426-.84 1.628-3.998 2.17-5.777 3.36-.609.406-1.898-.093-2.518.515.16-.739-.27-1.207-1.589-1.451-.41-.078-.68-.39-.979-.603-1.27-.926-2.549-1.753-5.117-1.108-2.309.577-4.327-.115-6.406-.51-1.159-.218-2.129-.53-3.288.28-.999.703-2.798.162-3.848-.244-2.178-.842-4.257-1.789-6.286-2.688-1.628-.723-2.998-.77-4.667-.838-3.727-.15-7.465-.405-11.183-.37-4.387.043-8.734-.285-13.121-.13-.88.032-1.779 0-2.828 0 .519.568 1.089 1.166.209 1.733-1.049.67-2.578.707-4.077.697-5.506-.037-11.023-.224-16.51-.094-5.426.125-10.823.572-16.239.843-2.868.145-5.757.223-8.685.15 1.439-.145 2.868-.285 4.308-.431-1.48-.39-2.999-.291-4.308-.016-3.348.713-6.815.88-10.373.942-5.757.104-11.503.296-17.299.457.12.536.869.463 1.329.416 3.498-.353 7.015-.057 10.523-.16 4.957-.146 9.924-.172 14.891-.396a536.843 536.843 0 0 1 17.149-.468c5.467-.068 10.943-.068 16.41.057 4.996.114 9.963.515 14.95.645 5.547.146 11.113.042 16.65.203 5.706.166 11.382.54 17.079.78 3.478.146 6.965.198 10.443.302 1.319.041 2.678.041 3.678.644-.8.713-1.949.916-3.318.905-6.996-.046-13.941-.39-20.887-.79-3.018-.172-6.066-.167-9.104-.224-1.479-.026-1.319.812-2.748 1.217 5.686.172 10.763.323 16 .484-.48.723-1.43.63-2.199.614-6.136-.094-12.262-.23-18.398-.323-3.608-.052-7.206.234-10.814.104-5.286-.187-10.583-.067-15.87-.125-4.647-.052-9.284.167-13.911.209-6.296.057-12.542.42-18.838.488-7.635.084-15.25.62-22.885.682-8.095.067-16.08.76-24.135.941-8.764.198-17.429.832-26.154 1.16-7.904.297-15.77.931-23.665 1.269-6.995.302-13.891 1.004-20.926 1.17-5.247.125-10.444.65-15.64 1.093-3.458.29-6.996.556-10.524.676-6.006.208-11.892.847-17.848 1.248-4.278.286-8.615.5-12.802.89-5.307.488-10.784.348-16 1.315-3.348.624-7.066.796-10.643.973-2.839.14-5.567.572-8.365.697-6.136.275-12.073 1.222-18.339 1.217-3.737 0-7.595.442-11.372.816-3.378.333-6.756.765-10.224.812-2.828.036-5.526.525-8.345.676-4.187.229-8.344.681-12.482 1.123-6.985.744-14.101 1.01-21.136 1.581-3.798.307-7.546.858-11.353 1.066-6.096.328-12.043 1.15-18.169 1.39-2.988.119-5.876.582-8.984.27-1.019-.104-2.189.66-3.588.8-2.708.266-5.606.635-8.145.557-3.797-.114-7.075.577-10.593.801-5.936.38-11.702 1.165-17.599 1.638-4.567.37-9.044 1.025-13.57 1.493-4.528.473-9.115.817-13.622 1.321-4.288.484-8.625.785-12.932 1.191-6.576.62-13.102 1.379-19.798 1.644-1.838.073-3.637.229-6.056.177 5.227-1.582 10.284-2.481 15.68-2.965 4.807-.432 9.544-1.035 14.331-1.524 4.138-.426 8.195-1.009 12.293-1.519 4.167-.515 8.404-.89 12.561-1.482 3.238-.463 6.606-.806 9.954-1.129 2.628-.255 5.237-.629 7.845-.93 2.349-.266 4.757-.505 7.146-.713 8.814-.765 17.428-2.008 26.293-2.679 6.426-.489 12.742-1.352 19.148-1.919 2.408-.213 4.657-.66 7.385-.9-5.117-.192-9.444.9-14.021 1.264-2.508.198-5.007.37-7.655.291.34-.42.879-.457 1.379-.483 3.977-.224 7.845-.817 11.842-1.004 1.519-.068 2.989-.364 4.508-.463 1.868-.125 3.597-.603 5.686.083 1.079.354 3.158.016 4.717-.166 5.057-.598 10.234-.775 15.31-1.264 5.497-.53 10.993-1.077 16.52-1.545 4.277-.358 8.594-.572 12.882-.91 4.847-.38 9.624-.946 14.491-1.269 6.775-.442 13.511-1.035 20.267-1.56.599-.047 1.299.052 1.799-.463-2.589-.031-4.917.317-7.276.494-4.767.354-9.514.775-14.301 1.066-4.767.286-9.564.484-14.261 1.124-3.398.463-6.975.561-10.423.936-4.807.52-9.684.76-14.491 1.32-4.237.5-8.645.594-12.972.86-1.469.088-2.928.181-4.407.249-.5.026-1.159.052-1.229-.318-.22-1.102-1.679-.889-3.018-.795-.7.047-1.389.176-2.069.041l.02-.005Zm85.496-5.04c.09.162.35.214.6.193 2.838-.245 5.726-.36 8.524-.645 3.408-.349 6.836-.785 10.234-.978 7.965-.452 15.84-1.17 23.775-1.695 1.519-.1 3.198-.12 4.727-.916-16.26 1.212-32.17 2.299-47.87 4.046l.01-.005Z" fill="#cd09d1"/><path d="M521 28.165c-4.967.523-9.633.741-14.369.553-2.604-.101-5.117.133-7.551.595-.36.066-.731.147-1.101.157-3.995.112-7.991.214-11.976.32-4.907.127-9.884.051-14.7.452-4.146.346-8.291.58-12.457.803-3.885.208-7.81-.127-11.616.122-5.427.355-10.834.757-16.291.955-5.668.208-11.336.462-16.983.772-9.503.518-18.996 1.107-28.499 1.64-5.327.3-10.674.534-15.991.854-4.857.29-9.703.66-14.55.99-.641.046-1.342.123-1.933.041-6.238-.878-12.356-.106-18.495.33-3.264.234-6.528.478-9.813.67a32.16 32.16 0 0 0-3.985.448c1.872.254 3.515-.229 5.027.274-14.971 1.697-30.101 2.84-45.271 3.856-.071-.127-.131-.254-.201-.376l2.644-.732c-.02-.04-.03-.08-.05-.122-2.724.163-5.438.34-8.161.488-6.078.32-12.087.894-18.235.965-3.835.046-7.67.462-11.465.813a41.776 41.776 0 0 1-3.064.147c-3.285.066-6.359.752-9.653.808-.882.015-1.643.081-2.193-.381-.551-.462-1.362-.193-2.073-.132-3.485.31-6.96.7-10.995.167 1.492-.228 2.934-.243 2.573-1.148-.1-.248.431-.365.912-.421 2.813-.31 5.517-.813 8.421-1.006 6.789-.452 13.558-1.026 20.327-1.58 10.184-.833 20.358-1.706 30.542-2.545 5.547-.457 11.115-.838 16.662-1.28 6.939-.548 13.919-.98 20.808-1.696 5.988-.625 12.087-.996 18.165-1.372 6.729-.416 13.488-.68 20.217-1.061 3.955-.224 7.78-.864 11.766-1.037 4.546-.203 9.082-.431 13.628-.67 8.201-.422 16.462-.462 24.633-1.128 4.376-.355 8.822-.467 13.238-.686 4.717-.233 9.433-.442 14.139-.7 4.116-.224 8.502-.661 12.217.197 5.547 1.28 10.955.34 16.392.346 6.008.01 12.006-.346 18.024-.467 7.47-.148 14.97-.412 22.43-.254 5.047.106 10.074.06 15.111.101 1.392.01 2.814.051 3.795.925v.005ZM120.01 52.959a17.458 17.458 0 0 1 4.639-1.2c4.437-.519 9.076-.459 13.6-.754.299-.022.626.021.751.368-6.199.664-12.157 1.864-19 1.586h.01ZM192.01 45.978c5.902-.873 11.803-1.79 17.843-1.978l.147.743c-6.069.084-11.872 1.416-18 1.241l.01-.006ZM117 44.656c5.89-.716 11.709-1.58 17.86-1.656.05.11.09.224.14.334-5.97.554-11.93 1.112-17.9 1.666-.03-.115-.07-.23-.1-.344ZM225 52.488c.749-.82 1.941-.494 2.847-.713 1.881-.456 3.704-.963 5.477-1.57.562-.194 1.281-.4 1.616.144.266.438-.404.65-.907.794-2.147.607-4.344 1.145-6.472 1.783-1.251.375-1.399-.813-2.561-.444v.006ZM657.01 52.32c.62-.54 1.1-.88 1.48-1.3.8-.9 1.75-1.18 2.65-.35.84.77.88 3.75.19 4.23-.57.39-1.07.14-1.52-.31-.81-.81-1.61-1.63-2.8-2.27ZM73 48.077c-5.934.698-11.523 1.19-17 1.923 1.38-.832 14.677-2.36 17-1.923ZM149 41.02c-3.522.694-7.256.853-11 .98 3.493-.769 7.16-1.087 11-.98ZM267 48c-1.021.608-5.32 1.121-8 .975 2.588-.464 4.99-.828 8-.975ZM204 54.727c2.303-.412 4.585-1.025 7-.56-2.159 1.42-4.626.604-7 .56Z" fill="#cd09d1"/></svg>